# Blender 5.0.0
# www.blender.org
mtllib catenaries_GlobalPos.mtl
o CatenaryLines
v 184.943604 9.404537 -20.331888
v 184.810013 8.989342 -20.960339
v 184.669815 8.628139 -21.619928
v 184.523941 8.323355 -22.306229
v 184.373367 8.077037 -23.014633
v 184.219101 7.890835 -23.740383
v 184.062180 7.766002 -24.478609
v 183.903671 7.703375 -25.224354
v 183.744629 7.703375 -25.972609
v 183.586121 7.766002 -26.718353
v 183.429199 7.890835 -27.456577
v 183.274933 8.077037 -28.182329
v 183.124359 8.323356 -28.890732
v 182.978485 8.628140 -29.577034
v 182.838287 8.989343 -30.236624
v 182.704697 9.404537 -30.865074
v 185.398041 9.404537 -20.358284
v 185.263809 8.989266 -20.989796
v 185.122986 8.628038 -21.652334
v 184.976501 8.323262 -22.341486
v 184.825333 8.076967 -23.052656
v 184.670502 7.890795 -23.781107
v 184.513016 7.765986 -24.521984
v 184.353943 7.703374 -25.270350
v 184.194351 7.703375 -26.021217
v 184.035278 7.765987 -26.769585
v 183.877792 7.890795 -27.510460
v 183.722961 8.076967 -28.238911
v 183.571793 8.323262 -28.950081
v 183.425308 8.628038 -29.639233
v 183.284485 8.989266 -30.301771
v 183.150253 9.404537 -30.933283
v 185.852386 9.404536 -20.385130
v 185.717468 8.989185 -21.019859
v 185.575989 8.627933 -21.685499
v 185.428864 8.323162 -22.377649
v 185.277084 8.076893 -23.091732
v 185.121643 7.890751 -23.823023
v 184.963562 7.765969 -24.566692
v 184.803909 7.703371 -25.317818
v 184.643723 7.703371 -26.071438
v 184.484070 7.765969 -26.822563
v 184.326004 7.890751 -27.566231
v 184.170563 8.076893 -28.297523
v 184.018768 8.323163 -29.011606
v 183.871658 8.627933 -29.703756
v 183.730164 8.989186 -30.369396
v 183.595245 9.404537 -31.004128
v 186.238724 9.404538 -20.731974
v 186.108078 8.989697 -21.346584
v 185.970703 8.628613 -21.992849
v 185.827576 8.323797 -22.666279
v 185.679642 8.077364 -23.362194
v 185.527969 7.891025 -24.075764
v 185.373596 7.766077 -24.802032
v 185.217606 7.703384 -25.535955
v 185.061050 7.703385 -26.272436
v 184.905060 7.766077 -27.006359
v 184.750687 7.891026 -27.732626
v 184.599014 8.077364 -28.446196
v 184.451080 8.323796 -29.142113
v 184.307953 8.628613 -29.815540
v 184.170578 8.989697 -30.461807
v 184.039932 9.404538 -31.076416
v 186.483353 9.246452 -21.745455
v 186.365921 8.844964 -22.297934
v 186.241409 8.496241 -22.883688
v 186.110855 8.203147 -23.497908
v 185.975311 7.968087 -24.135555
v 185.835907 7.792990 -24.791393
v 185.693787 7.679294 -25.460041
v 185.550110 7.627931 -26.136009
v 185.406052 7.639323 -26.813751
v 185.262802 7.713378 -27.487701
v 185.121521 7.849486 -28.152332
v 184.983398 8.046530 -28.802185
v 184.849533 8.302894 -29.431927
v 184.721054 8.616474 -30.036392
v 184.598999 8.984695 -30.610615
v 184.484375 9.404535 -31.149883
v 186.839020 8.685296 -22.236553
v 186.722244 8.327047 -22.785887
v 186.599121 8.022072 -23.365173
v 186.470673 7.772966 -23.969482
v 186.337997 7.581849 -24.593674
v 186.202225 7.450346 -25.232433
v 186.064514 7.379578 -25.880331
v 185.926025 7.370145 -26.531849
v 185.787949 7.422129 -27.181446
v 185.651459 7.535087 -27.823593
v 185.517700 7.708057 -28.452827
v 185.387848 7.939569 -29.063793
v 185.262970 8.227654 -29.651295
v 185.144135 8.569855 -30.210331
v 185.032379 8.963266 -30.736141
v 184.928619 9.404537 -31.224262
v 187.293671 8.680146 -22.261948
v 187.176102 8.322117 -22.815065
v 187.052200 8.017441 -23.397961
v 186.923019 7.768682 -24.005722
v 186.789642 7.577938 -24.633236
v 186.653183 7.446813 -25.275209
v 186.514801 7.376414 -25.926239
v 186.375656 7.367332 -26.580841
v 186.236938 7.419645 -27.233501
v 186.099792 7.532912 -27.878719
v 185.965378 7.706178 -28.511063
v 185.834839 7.937984 -29.125206
v 185.709274 8.226379 -29.715973
v 185.589722 8.568931 -30.278389
v 185.477219 8.962757 -30.807716
v 185.372681 9.404537 -31.299496
v 187.746582 8.674995 -22.295542
v 187.628326 8.317213 -22.851925
v 187.503769 8.012850 -23.437929
v 187.373947 7.764446 -24.048664
v 187.239960 7.574078 -24.679031
v 187.102921 7.443334 -25.323765
v 186.963959 7.373306 -25.977480
v 186.824265 7.364581 -26.634718
v 186.684982 7.417229 -27.289991
v 186.547272 7.530811 -27.937828
v 186.412308 7.704379 -28.572815
v 186.281189 7.936482 -29.189655
v 186.155029 8.225186 -29.783195
v 186.034882 8.568077 -30.348476
v 185.921738 8.962290 -30.880783
v 185.816544 9.404537 -31.375664
v 188.529587 9.404537 -20.776163
v 188.426117 8.963232 -21.262955
v 188.314621 8.569729 -21.787500
v 188.196060 8.227386 -22.345324
v 188.071426 7.939126 -22.931665
v 187.941803 7.707407 -23.541523
v 187.808273 7.534205 -24.169691
v 187.671997 7.421000 -24.810814
v 187.534134 7.368756 -25.459417
v 187.395859 7.377920 -26.109970
v 187.258347 7.448412 -26.756920
v 187.122772 7.579633 -27.394747
v 186.990295 7.770462 -28.018009
v 186.862030 8.019272 -28.621391
v 186.739105 8.323938 -29.199741
v 186.622543 8.681862 -29.748127
v 188.967117 9.404537 -20.882164
v 188.864670 8.963772 -21.364088
v 188.754166 8.570667 -21.883968
v 188.636551 8.228619 -22.437309
v 188.512848 7.940585 -23.019331
v 188.384109 7.709052 -23.625002
v 188.251450 7.536025 -24.249086
v 188.116028 7.422997 -24.886192
v 187.979019 7.370946 -25.530811
v 187.841583 7.380321 -26.177374
v 187.704926 7.451042 -26.820290
v 187.570221 7.582496 -27.454004
v 187.438644 7.773548 -28.073038
v 187.311325 8.022548 -28.672043
v 187.189362 8.327342 -29.245840
v 187.073807 8.685295 -29.789471
v 189.404373 9.404537 -20.989378
v 189.302673 8.964203 -21.467825
v 189.192886 8.571428 -21.984373
v 189.075943 8.229639 -22.534513
v 188.952896 7.941820 -23.113449
v 188.824783 7.710481 -23.716127
v 188.692764 7.537640 -24.337288
v 188.557953 7.424805 -24.971516
v 188.421539 7.372961 -25.613274
v 188.284714 7.382561 -26.256962
v 188.148682 7.453519 -26.896969
v 188.014618 7.585218 -27.527706
v 187.883682 7.776508 -28.143673
v 187.757034 8.025722 -28.739494
v 187.635788 8.330682 -29.309971
v 187.520966 8.688729 -29.850126
v 189.841415 9.404537 -21.097689
v 189.722733 8.978590 -21.656042
v 189.596741 8.604250 -22.248726
v 189.464447 8.284389 -22.871189
v 189.326813 8.021463 -23.518648
v 189.184937 7.817493 -24.186138
v 189.039886 7.674042 -24.868530
v 188.892792 7.592214 -25.560585
v 188.744766 7.572637 -26.256990
v 188.596954 7.615459 -26.952398
v 188.450485 7.720354 -27.641470
v 188.306488 7.886516 -28.318913
v 188.166077 8.112667 -28.979530
v 188.030304 8.397074 -29.618244
v 187.900238 8.737551 -30.230154
v 187.776871 9.131484 -30.810560
v 190.278229 9.404538 -21.206995
v 190.144730 8.989353 -21.835018
v 190.004623 8.628155 -22.494198
v 189.858826 8.323370 -23.180099
v 189.708344 8.077047 -23.888117
v 189.554153 7.890841 -24.613491
v 189.397324 7.766004 -25.351345
v 189.238876 7.703376 -26.096724
v 189.079910 7.703377 -26.844614
v 188.921478 7.766004 -27.589993
v 188.764648 7.890841 -28.327847
v 188.610458 8.077047 -29.053221
v 188.459961 8.323370 -29.761238
v 188.314178 8.628154 -30.447142
v 188.174057 8.989353 -31.106319
v 188.040573 9.404537 -31.734343
v 190.714813 9.404537 -21.317429
v 190.578247 8.989001 -21.959890
v 190.435181 8.627684 -22.632984
v 190.286530 8.322931 -23.332346
v 190.133255 8.076722 -24.053432
v 189.976364 7.890653 -24.791563
v 189.816864 7.765931 -25.541950
v 189.655792 7.703367 -26.299723
v 189.494202 7.703367 -27.059961
v 189.333130 7.765931 -27.817734
v 189.173630 7.890653 -28.568121
v 189.016724 8.076722 -29.306252
v 188.863464 8.322931 -30.027338
v 188.714813 8.627684 -30.726696
v 188.571732 8.989001 -31.399794
v 188.435181 9.404537 -32.042255
v 191.151093 9.404538 -21.429226
v 191.014130 8.988956 -22.073576
v 190.870682 8.627625 -22.748493
v 190.721649 8.322876 -23.449615
v 190.568008 8.076681 -24.172415
v 190.410767 7.890629 -24.912220
v 190.250916 7.765922 -25.664249
v 190.089508 7.703366 -26.423647
v 189.927567 7.703367 -27.185509
v 189.766144 7.765922 -27.944904
v 189.606293 7.890629 -28.696938
v 189.449051 8.076681 -29.436741
v 189.295410 8.322876 -30.159538
v 189.146378 8.627625 -30.860661
v 189.002930 8.988956 -31.535578
v 188.865967 9.404536 -32.179928
v 191.587006 9.404537 -21.542852
v 191.449661 8.988914 -22.188984
v 191.305832 8.627567 -22.865620
v 191.156448 8.322822 -23.568405
v 191.002472 8.076641 -24.292818
v 190.844894 7.890605 -25.034201
v 190.684708 7.765913 -25.787785
v 190.522964 7.703364 -26.548716
v 190.360703 7.703364 -27.312103
v 190.198959 7.765913 -28.073036
v 190.038788 7.890604 -28.826618
v 189.881195 8.076641 -29.568001
v 189.727219 8.322824 -30.292416
v 189.577835 8.627568 -30.995201
v 189.434021 8.988914 -31.671835
v 189.296677 9.404537 -32.317966
v 192.022186 9.404536 -21.659836
v 191.884521 8.988876 -22.307529
v 191.740372 8.627519 -22.985672
v 191.590683 8.322777 -23.689915
v 191.436401 8.076608 -24.415745
v 191.278519 7.890586 -25.158512
v 191.118057 7.765904 -25.913456
v 190.956024 7.703363 -26.675734
v 190.793472 7.703363 -27.440464
v 190.631454 7.765904 -28.202742
v 190.470978 7.890584 -28.957684
v 190.313095 8.076607 -29.700451
v 190.158813 8.322777 -30.426285
v 190.009125 8.627517 -31.130527
v 189.864990 8.988874 -31.808668
v 189.727310 9.404534 -32.456360
v 192.147705 9.404537 -23.233725
v 192.032532 8.991865 -23.775541
v 191.910004 8.631516 -24.351963
v 191.781158 8.326501 -24.958170
v 191.647049 8.079370 -25.589096
v 191.508804 7.892193 -26.239466
v 191.367599 7.766531 -26.903839
v 191.224579 7.703436 -27.576664
v 191.080963 7.703436 -28.252312
v 190.937958 7.766531 -28.925137
v 190.796738 7.892193 -29.589510
v 190.658493 8.079371 -30.239878
v 190.524384 8.326502 -30.870804
v 190.395538 8.631516 -31.477013
v 190.273010 8.991865 -32.053436
v 190.157852 9.404537 -32.595249
v 192.884888 9.404538 -21.929934
v 192.747086 8.988865 -22.578209
v 192.602829 8.627501 -23.256912
v 192.453018 8.322762 -23.961699
v 192.298630 8.076595 -24.688057
v 192.140640 7.890579 -25.431341
v 191.980057 7.765903 -26.186790
v 191.817932 7.703364 -26.949570
v 191.655273 7.703365 -27.714800
v 191.493134 7.765902 -28.477581
v 191.332565 7.890579 -29.233030
v 191.174576 8.076595 -29.976315
v 191.020172 8.322762 -30.702673
v 190.870377 8.627501 -31.407461
v 190.726105 8.988864 -32.086163
v 190.588318 9.404537 -32.734440
v 193.313950 9.404538 -22.075712
v 193.176254 8.988875 -22.723534
v 193.032074 8.627516 -23.401798
v 192.882370 8.322775 -24.106159
v 192.728058 8.076606 -24.832108
v 192.570160 7.890586 -25.574987
v 192.409668 7.765905 -26.330040
v 192.247620 7.703365 -27.092430
v 192.085037 7.703366 -27.857269
v 191.922989 7.765904 -28.619658
v 191.762497 7.890584 -29.374712
v 191.604599 8.076606 -30.117592
v 191.450287 8.322775 -30.843540
v 191.300568 8.627516 -31.547901
v 191.156403 8.988873 -32.226166
v 191.018707 9.404537 -32.873985
v 193.742416 9.404536 -22.224310
v 193.604843 8.988888 -22.871525
v 193.460800 8.627533 -23.549208
v 193.311203 8.322791 -24.253006
v 193.157013 8.076616 -24.978405
v 192.999222 7.890591 -25.720749
v 192.838852 7.765906 -26.475275
v 192.676910 7.703363 -27.237143
v 192.514450 7.703363 -28.001463
v 192.352509 7.765905 -28.763330
v 192.192123 7.890591 -29.517857
v 192.034332 8.076615 -30.260202
v 191.880142 8.322790 -30.985600
v 191.730545 8.627531 -31.689398
v 191.586502 8.988885 -32.367081
v 191.448929 9.404533 -33.014297
v 194.170410 9.404537 -22.375109
v 194.032990 8.988905 -23.021626
v 193.889099 8.627556 -23.698631
v 193.739639 8.322812 -24.401777
v 193.585587 8.076633 -25.126541
v 193.427917 7.890601 -25.868267
v 193.267670 7.765911 -26.622185
v 193.105865 7.703364 -27.383450
v 192.943527 7.703365 -28.147167
v 192.781723 7.765911 -28.908434
v 192.621460 7.890601 -29.662352
v 192.463806 8.076633 -30.404076
v 192.309753 8.322812 -31.128839
v 192.160294 8.627555 -31.831985
v 192.016388 8.988904 -32.508991
v 191.878967 9.404536 -33.155510
v 194.597961 9.404537 -22.528017
v 194.485687 8.992337 -23.056255
v 194.365921 8.632147 -23.619701
v 194.239716 8.327089 -24.213474
v 194.108154 8.079809 -24.832420
v 193.972382 7.892448 -25.471180
v 193.833572 7.766630 -26.124218
v 193.692932 7.703449 -26.785866
v 193.551682 7.703448 -27.450397
v 193.411041 7.766630 -28.112049
v 193.272247 7.892447 -28.765083
v 193.136475 8.079807 -29.403843
v 193.004913 8.327089 -30.022791
v 192.878693 8.632147 -30.616562
v 192.758926 8.992336 -31.180008
v 192.646652 9.404536 -31.708248
v 195.025192 9.404537 -22.682436
v 194.887390 8.988862 -23.330780
v 194.743118 8.627498 -24.009552
v 194.593292 8.322759 -24.714405
v 194.438889 8.076593 -25.440828
v 194.280884 7.890577 -26.184174
v 194.120300 7.765902 -26.939686
v 193.958145 7.703363 -27.702526
v 193.795471 7.703362 -28.467819
v 193.633331 7.765902 -29.230659
v 193.472748 7.890577 -29.986172
v 193.314743 8.076593 -30.729515
v 193.160339 8.322759 -31.455940
v 193.010513 8.627498 -32.160793
v 192.866241 8.988862 -32.839561
v 192.728424 9.404537 -33.487911
v 195.452118 9.404537 -22.838356
v 195.313553 8.988779 -23.490242
v 195.168549 8.627389 -24.172428
v 195.018021 8.322657 -24.880587
v 194.862930 8.076517 -25.610226
v 194.704254 7.890533 -26.356712
v 194.543015 7.765884 -27.115309
v 194.380219 7.703361 -27.881205
v 194.216904 7.703362 -28.649538
v 194.054108 7.765883 -29.415434
v 193.892868 7.890533 -30.174034
v 193.734192 8.076518 -30.920519
v 193.579102 8.322656 -31.650156
v 193.428574 8.627388 -32.358315
v 193.283569 8.988779 -33.040501
v 193.145020 9.404536 -33.692387
v 195.878677 9.404538 -22.995911
v 195.739380 8.988702 -23.651257
v 195.593658 8.627283 -24.336784
v 195.442459 8.322558 -25.048180
v 195.286697 8.076445 -25.780960
v 195.127365 7.890492 -26.530521
v 194.965485 7.765869 -27.292141
v 194.802048 7.703360 -28.061028
v 194.638107 7.703360 -28.832340
v 194.474670 7.765869 -29.601227
v 194.312790 7.890491 -30.362846
v 194.153458 8.076445 -31.112408
v 193.997696 8.322558 -31.845188
v 193.846497 8.627282 -32.556583
v 193.700775 8.988701 -33.242111
v 193.561478 9.404537 -33.897457
v 196.304825 9.404537 -23.155436
v 196.164810 8.988624 -23.814121
v 196.018417 8.627182 -24.502876
v 195.866547 8.322464 -25.217392
v 195.710129 8.076375 -25.953213
v 195.550186 7.890450 -26.705742
v 195.387665 7.765853 -27.470280
v 195.223633 7.703359 -28.242054
v 195.059067 7.703359 -29.016247
v 194.895020 7.765851 -29.788021
v 194.732513 7.890450 -30.552559
v 194.572556 8.076375 -31.305090
v 194.416153 8.322463 -32.040909
v 194.264282 8.627181 -32.755424
v 194.117874 8.988623 -33.444180
v 193.977875 9.404536 -34.102863
v 196.730377 9.404538 -23.317739
v 196.589691 8.988555 -23.979580
v 196.442642 8.627089 -24.671377
v 196.290146 8.322376 -25.388844
v 196.133133 8.076310 -26.127535
v 195.972580 7.890413 -26.882870
v 195.809494 7.765839 -27.650167
v 195.644867 7.703357 -28.424675
v 195.479721 7.703358 -29.201588
v 195.315094 7.765839 -29.976093
v 195.152008 7.890414 -30.743391
v 194.991455 8.076310 -31.498726
v 194.834442 8.322376 -32.237415
v 194.681931 8.627088 -32.954884
v 194.534882 8.988555 -33.646683
v 194.394211 9.404538 -34.308521
l 1 2
l 2 3
l 3 4
l 4 5
l 5 6
l 6 7
l 7 8
l 8 9
l 9 10
l 10 11
l 11 12
l 12 13
l 13 14
l 14 15
l 15 16
l 17 18
l 18 19
l 19 20
l 20 21
l 21 22
l 22 23
l 23 24
l 24 25
l 25 26
l 26 27
l 27 28
l 28 29
l 29 30
l 30 31
l 31 32
l 33 34
l 34 35
l 35 36
l 36 37
l 37 38
l 38 39
l 39 40
l 40 41
l 41 42
l 42 43
l 43 44
l 44 45
l 45 46
l 46 47
l 47 48
l 49 50
l 50 51
l 51 52
l 52 53
l 53 54
l 54 55
l 55 56
l 56 57
l 57 58
l 58 59
l 59 60
l 60 61
l 61 62
l 62 63
l 63 64
l 65 66
l 66 67
l 67 68
l 68 69
l 69 70
l 70 71
l 71 72
l 72 73
l 73 74
l 74 75
l 75 76
l 76 77
l 77 78
l 78 79
l 79 80
l 81 82
l 82 83
l 83 84
l 84 85
l 85 86
l 86 87
l 87 88
l 88 89
l 89 90
l 90 91
l 91 92
l 92 93
l 93 94
l 94 95
l 95 96
l 97 98
l 98 99
l 99 100
l 100 101
l 101 102
l 102 103
l 103 104
l 104 105
l 105 106
l 106 107
l 107 108
l 108 109
l 109 110
l 110 111
l 111 112
l 113 114
l 114 115
l 115 116
l 116 117
l 117 118
l 118 119
l 119 120
l 120 121
l 121 122
l 122 123
l 123 124
l 124 125
l 125 126
l 126 127
l 127 128
l 129 130
l 130 131
l 131 132
l 132 133
l 133 134
l 134 135
l 135 136
l 136 137
l 137 138
l 138 139
l 139 140
l 140 141
l 141 142
l 142 143
l 143 144
l 145 146
l 146 147
l 147 148
l 148 149
l 149 150
l 150 151
l 151 152
l 152 153
l 153 154
l 154 155
l 155 156
l 156 157
l 157 158
l 158 159
l 159 160
l 161 162
l 162 163
l 163 164
l 164 165
l 165 166
l 166 167
l 167 168
l 168 169
l 169 170
l 170 171
l 171 172
l 172 173
l 173 174
l 174 175
l 175 176
l 177 178
l 178 179
l 179 180
l 180 181
l 181 182
l 182 183
l 183 184
l 184 185
l 185 186
l 186 187
l 187 188
l 188 189
l 189 190
l 190 191
l 191 192
l 193 194
l 194 195
l 195 196
l 196 197
l 197 198
l 198 199
l 199 200
l 200 201
l 201 202
l 202 203
l 203 204
l 204 205
l 205 206
l 206 207
l 207 208
l 209 210
l 210 211
l 211 212
l 212 213
l 213 214
l 214 215
l 215 216
l 216 217
l 217 218
l 218 219
l 219 220
l 220 221
l 221 222
l 222 223
l 223 224
l 225 226
l 226 227
l 227 228
l 228 229
l 229 230
l 230 231
l 231 232
l 232 233
l 233 234
l 234 235
l 235 236
l 236 237
l 237 238
l 238 239
l 239 240
l 241 242
l 242 243
l 243 244
l 244 245
l 245 246
l 246 247
l 247 248
l 248 249
l 249 250
l 250 251
l 251 252
l 252 253
l 253 254
l 254 255
l 255 256
l 257 258
l 258 259
l 259 260
l 260 261
l 261 262
l 262 263
l 263 264
l 264 265
l 265 266
l 266 267
l 267 268
l 268 269
l 269 270
l 270 271
l 271 272
l 273 274
l 274 275
l 275 276
l 276 277
l 277 278
l 278 279
l 279 280
l 280 281
l 281 282
l 282 283
l 283 284
l 284 285
l 285 286
l 286 287
l 287 288
l 289 290
l 290 291
l 291 292
l 292 293
l 293 294
l 294 295
l 295 296
l 296 297
l 297 298
l 298 299
l 299 300
l 300 301
l 301 302
l 302 303
l 303 304
l 305 306
l 306 307
l 307 308
l 308 309
l 309 310
l 310 311
l 311 312
l 312 313
l 313 314
l 314 315
l 315 316
l 316 317
l 317 318
l 318 319
l 319 320
l 321 322
l 322 323
l 323 324
l 324 325
l 325 326
l 326 327
l 327 328
l 328 329
l 329 330
l 330 331
l 331 332
l 332 333
l 333 334
l 334 335
l 335 336
l 337 338
l 338 339
l 339 340
l 340 341
l 341 342
l 342 343
l 343 344
l 344 345
l 345 346
l 346 347
l 347 348
l 348 349
l 349 350
l 350 351
l 351 352
l 353 354
l 354 355
l 355 356
l 356 357
l 357 358
l 358 359
l 359 360
l 360 361
l 361 362
l 362 363
l 363 364
l 364 365
l 365 366
l 366 367
l 367 368
l 369 370
l 370 371
l 371 372
l 372 373
l 373 374
l 374 375
l 375 376
l 376 377
l 377 378
l 378 379
l 379 380
l 380 381
l 381 382
l 382 383
l 383 384
l 385 386
l 386 387
l 387 388
l 388 389
l 389 390
l 390 391
l 391 392
l 392 393
l 393 394
l 394 395
l 395 396
l 396 397
l 397 398
l 398 399
l 399 400
l 401 402
l 402 403
l 403 404
l 404 405
l 405 406
l 406 407
l 407 408
l 408 409
l 409 410
l 410 411
l 411 412
l 412 413
l 413 414
l 414 415
l 415 416
l 417 418
l 418 419
l 419 420
l 420 421
l 421 422
l 422 423
l 423 424
l 424 425
l 425 426
l 426 427
l 427 428
l 428 429
l 429 430
l 430 431
l 431 432
l 433 434
l 434 435
l 435 436
l 436 437
l 437 438
l 438 439
l 439 440
l 440 441
l 441 442
l 442 443
l 443 444
l 444 445
l 445 446
l 446 447
l 447 448
