# Blender 5.0.0
# www.blender.org
mtllib Exported_Lines.mtl
o CSV_Tester
v 184.887711 9.230898 -20.594919
v 184.831711 9.056898 -20.857920
v 184.774719 8.896898 -21.128920
v 184.715714 8.745898 -21.403919
v 184.656723 8.599898 -21.682919
v 184.595718 8.472898 -21.969919
v 184.534714 8.344898 -22.256920
v 184.471725 8.237898 -22.551920
v 184.408722 8.134898 -22.847919
v 184.344711 8.042898 -23.147919
v 184.280716 7.964898 -23.450920
v 184.215714 7.887898 -23.754919
v 184.150711 7.835898 -24.063919
v 184.084717 7.783898 -24.372919
v 184.018723 7.748898 -24.683920
v 183.952713 7.722898 -24.995918
v 183.885712 7.702898 -25.307919
v 183.819717 7.702898 -25.621920
v 183.752716 7.702898 -25.934919
v 183.686722 7.726898 -26.246920
v 183.619720 7.752898 -26.558920
v 183.553711 7.791898 -26.869919
v 183.488724 7.843898 -27.178919
v 183.422714 7.898898 -27.486919
v 183.357712 7.976898 -27.790920
v 183.293716 8.054898 -28.094919
v 183.229721 8.149899 -28.392920
v 183.166718 8.252898 -28.688919
v 183.104721 8.363898 -28.982920
v 183.043716 8.491898 -29.269920
v 182.982712 8.619898 -29.557919
v 182.923721 8.768898 -29.833920
v 182.864716 8.919898 -30.109921
v 182.807724 9.082898 -30.378920
v 185.341721 9.231898 -20.621920
v 185.285721 9.057898 -20.884920
v 185.228714 8.898898 -21.155920
v 185.169724 8.747898 -21.431919
v 185.110718 8.601898 -21.710918
v 185.049713 8.474898 -21.997919
v 184.988724 8.347898 -22.284920
v 184.925720 8.240898 -22.579920
v 184.862717 8.137897 -22.875919
v 184.798721 8.045898 -23.175919
v 184.734711 7.967898 -23.478920
v 184.669724 7.890898 -23.782919
v 184.604721 7.838898 -24.091919
v 184.538712 7.786898 -24.400919
v 184.472717 7.749898 -24.711920
v 184.406723 7.723898 -25.023918
v 184.339722 7.702898 -25.335918
v 184.273712 7.702898 -25.648918
v 184.206711 7.702898 -25.962919
v 184.140717 7.724898 -26.274920
v 184.073715 7.750898 -26.586920
v 184.007721 7.787898 -26.897919
v 183.942719 7.839898 -27.206919
v 183.876724 7.891898 -27.515919
v 183.811722 7.969898 -27.819920
v 183.747711 8.047898 -28.123919
v 183.683716 8.140898 -28.422920
v 183.620712 8.242898 -28.718918
v 183.558716 8.350899 -29.012920
v 183.496719 8.478898 -29.300919
v 183.435715 8.605898 -29.588921
v 183.376724 8.751898 -29.866920
v 183.318726 8.902899 -30.142920
v 183.260712 9.062899 -30.412918
v 185.796722 9.231898 -20.648920
v 185.740723 9.059898 -20.911919
v 185.682724 8.899899 -21.183920
v 185.623718 8.749898 -21.459919
v 185.564713 8.604898 -21.738918
v 185.503723 8.477898 -22.025919
v 185.442719 8.351898 -22.313919
v 185.379715 8.243898 -22.607920
v 185.316711 8.141898 -22.904919
v 185.253723 8.047898 -23.203918
v 185.188721 7.970898 -23.507919
v 185.123718 7.893898 -23.811920
v 185.058716 7.840898 -24.119919
v 184.992722 7.788898 -24.428919
v 184.926712 7.751898 -24.739920
v 184.860718 7.725898 -25.051918
v 184.793716 7.702898 -25.363918
v 184.727722 7.702898 -25.676918
v 184.660721 7.702898 -25.990919
v 184.594711 7.722898 -26.302919
v 184.527725 7.748898 -26.614920
v 184.461716 7.782898 -26.925919
v 184.396713 7.834898 -27.234919
v 184.330719 7.886898 -27.543919
v 184.265717 7.962898 -27.848919
v 184.201721 8.039898 -28.152920
v 184.137711 8.130898 -28.452919
v 184.074722 8.232899 -28.748920
v 184.011719 8.337898 -29.043919
v 183.950714 8.464898 -29.332920
v 183.889725 8.590899 -29.620918
v 183.829712 8.734898 -29.899920
v 183.770721 8.884898 -30.176918
v 183.712723 9.041899 -30.448919
v 183.656723 9.213898 -30.712919
v 186.182724 9.227898 -20.992920
v 186.127716 9.051898 -21.253920
v 186.070724 8.889898 -21.523920
v 186.011719 8.736898 -21.798920
v 185.952713 8.590899 -22.076920
v 185.891724 8.460898 -22.362919
v 185.830719 8.330898 -22.649920
v 185.768723 8.224898 -22.944920
v 185.705719 8.120898 -23.240919
v 185.641724 8.030898 -23.540920
v 185.577713 7.951898 -23.843920
v 185.512711 7.878898 -24.148918
v 185.446716 7.825898 -24.456919
v 185.381714 7.771898 -24.765919
v 185.314713 7.742898 -25.077919
v 185.248718 7.715898 -25.388920
v 185.182724 7.702898 -25.701920
v 185.115723 7.702898 -26.014919
v 185.048721 7.707898 -26.327919
v 184.982712 7.734898 -26.639919
v 184.916718 7.761898 -26.951920
v 184.850723 7.809898 -27.261919
v 184.784714 7.862898 -27.570919
v 184.719711 7.928898 -27.876919
v 184.655716 8.007898 -28.179920
v 184.591721 8.089898 -28.482920
v 184.528717 8.194899 -28.778919
v 184.465714 8.299898 -29.073919
v 184.404724 8.423899 -29.361919
v 184.343719 8.552898 -29.647919
v 184.283722 8.691898 -29.929920
v 184.225723 8.845898 -30.203918
v 184.167725 8.999898 -30.476919
v 184.111725 9.175898 -30.737919
v 186.428711 9.060898 -22.000919
v 186.374725 8.875898 -22.255919
v 186.317719 8.710898 -22.523920
v 186.260712 8.549898 -22.793919
v 186.200714 8.405898 -23.072920
v 186.140717 8.270899 -23.356918
v 186.079712 8.148898 -23.645920
v 186.016724 8.039898 -23.939919
v 185.953720 7.940898 -24.237919
v 185.889725 7.859898 -24.540920
v 185.824722 7.783898 -24.844919
v 185.758713 7.731898 -25.153919
v 185.693726 7.678898 -25.462919
v 185.626724 7.654898 -25.774920
v 185.560715 7.631898 -26.087919
v 185.493713 7.631898 -26.399920
v 185.427719 7.637898 -26.712919
v 185.361725 7.662898 -27.024920
v 185.294724 7.696898 -27.335918
v 185.229721 7.745898 -27.644920
v 185.164719 7.807898 -27.951920
v 185.099716 7.880898 -28.255920
v 185.035721 7.971898 -28.555920
v 184.972717 8.067898 -28.853920
v 184.910721 8.185898 -29.144920
v 184.848724 8.304898 -29.434919
v 184.789719 8.448898 -29.713921
v 184.730713 8.593899 -29.992920
v 184.673721 8.759898 -30.259918
v 184.617722 8.929898 -30.524920
v 184.563721 9.115898 -30.778919
v 186.782715 8.512897 -22.500919
v 186.724716 8.334898 -22.773918
v 186.663712 8.182898 -23.060919
v 186.602722 8.030898 -23.348919
v 186.538712 7.905898 -23.647919
v 186.474716 7.781898 -23.948919
v 186.409714 7.684898 -24.257919
v 186.343719 7.589898 -24.567919
v 186.275711 7.521898 -24.884918
v 186.208725 7.456898 -25.202919
v 186.139725 7.418898 -25.523918
v 186.071716 7.382898 -25.846920
v 186.002716 7.374898 -26.169918
v 185.933716 7.370898 -26.492920
v 185.865723 7.392898 -26.816919
v 185.796722 7.418898 -27.139919
v 185.728714 7.470898 -27.458920
v 185.660721 7.526898 -27.777920
v 185.594711 7.608898 -28.091919
v 185.527725 7.694898 -28.403919
v 185.462723 7.804898 -28.709919
v 185.398712 7.920898 -29.013920
v 185.335724 8.058898 -29.306919
v 185.273712 8.201899 -29.598919
v 185.214722 8.366898 -29.878920
v 185.155716 8.536898 -30.156919
v 185.099716 8.727898 -30.420919
v 185.043716 8.922898 -30.682919
v 184.991714 9.137897 -30.928919
v 187.237717 8.508898 -22.525919
v 187.179718 8.331898 -22.799919
v 187.117722 8.179898 -23.087919
v 187.056717 8.028898 -23.375919
v 186.993713 7.903898 -23.675919
v 186.929718 7.780898 -23.975920
v 186.863724 7.683898 -24.285919
v 186.797714 7.588898 -24.595919
v 186.730713 7.520898 -24.912918
v 186.662720 7.455898 -25.229919
v 186.594711 7.416898 -25.551918
v 186.525711 7.381898 -25.873919
v 186.456711 7.372898 -26.196918
v 186.388718 7.367898 -26.520920
v 186.319717 7.388898 -26.843920
v 186.250717 7.413898 -27.166920
v 186.182724 7.463898 -27.486919
v 186.115723 7.519898 -27.805920
v 186.048721 7.598898 -28.119919
v 185.981720 7.684898 -28.431919
v 185.916718 7.791898 -28.738918
v 185.852722 7.906898 -29.042919
v 185.789719 8.041899 -29.337919
v 185.727722 8.184898 -29.629919
v 185.667725 8.345898 -29.911919
v 185.608719 8.514898 -30.189919
v 185.551712 8.701899 -30.456921
v 185.495712 8.896898 -30.718918
v 185.442719 9.106898 -30.967918
v 187.690720 8.504898 -22.560919
v 187.631714 8.327898 -22.834919
v 187.570724 8.176898 -23.121920
v 187.509720 8.026898 -23.410919
v 187.445724 7.901898 -23.710918
v 187.381714 7.779898 -24.011919
v 187.315720 7.681898 -24.320919
v 187.249725 7.588898 -24.631920
v 187.182724 7.519898 -24.947920
v 187.115723 7.454898 -25.265919
v 187.046722 7.414898 -25.586920
v 186.978714 7.380898 -25.908920
v 186.909714 7.369898 -26.232920
v 186.840714 7.365898 -26.555920
v 186.772720 7.383898 -26.878920
v 186.703720 7.409898 -27.201920
v 186.635712 7.457898 -27.521919
v 186.567719 7.513898 -27.840919
v 186.500717 7.589898 -28.155918
v 186.434723 7.675898 -28.468920
v 186.369720 7.780898 -28.775919
v 186.304718 7.894898 -29.079918
v 186.241714 8.026898 -29.375919
v 186.179718 8.168898 -29.667919
v 186.118713 8.327898 -29.951920
v 186.059723 8.496899 -30.229919
v 186.002716 8.679898 -30.498920
v 185.946716 8.873898 -30.760920
v 185.893723 9.080898 -31.013920
v 188.479721 9.191898 -21.009920
v 188.428711 8.972898 -21.252918
v 188.372711 8.775898 -21.512918
v 188.317719 8.579899 -21.773920
v 188.258713 8.407898 -22.050919
v 188.199722 8.237898 -22.327919
v 188.137726 8.092898 -22.618919
v 188.075714 7.948898 -22.910919
v 188.011719 7.831898 -23.213919
v 187.946716 7.716898 -23.516918
v 187.880722 7.627898 -23.828918
v 187.814713 7.541898 -24.141918
v 187.746719 7.482898 -24.459919
v 187.678711 7.426898 -24.778919
v 187.609711 7.397898 -25.101919
v 187.541718 7.371898 -25.424919
v 187.472717 7.372898 -25.747919
v 187.403717 7.376898 -26.071918
v 187.335724 7.408898 -26.392920
v 187.267715 7.443898 -26.714920
v 187.199722 7.504898 -27.032919
v 187.132721 7.569898 -27.349918
v 187.065720 7.660898 -27.660919
v 186.999725 7.755898 -27.971920
v 186.935715 7.875898 -28.273918
v 186.871719 7.999898 -28.573919
v 186.810715 8.146898 -28.862919
v 186.749725 8.297898 -29.149920
v 186.690720 8.470898 -29.425919
v 188.917725 9.190899 -21.115919
v 188.867722 8.977898 -21.348919
v 188.814713 8.785898 -21.598919
v 188.761719 8.595898 -21.850920
v 188.704712 8.426898 -22.116919
v 188.647720 8.260899 -22.384918
v 188.588715 8.116898 -22.663919
v 188.528717 7.976898 -22.944920
v 188.466721 7.857898 -23.235920
v 188.404724 7.745898 -23.528919
v 188.340714 7.652898 -23.827919
v 188.276718 7.568898 -24.129919
v 188.211716 7.502898 -24.435919
v 188.146713 7.447898 -24.743919
v 188.080719 7.409898 -25.054920
v 188.013718 7.383898 -25.366919
v 187.947723 7.372898 -25.678919
v 187.880722 7.377898 -25.991919
v 187.814713 7.393898 -26.302919
v 187.748718 7.427898 -26.613918
v 187.682724 7.472898 -26.923920
v 187.617722 7.535898 -27.229919
v 187.552719 7.607898 -27.534920
v 187.489716 7.699898 -27.834919
v 187.425720 7.797898 -28.132919
v 187.364716 7.918898 -28.422920
v 187.302719 8.042898 -28.709919
v 187.244720 8.189898 -28.986919
v 187.185715 8.338898 -29.263920
v 189.354721 9.190899 -21.221920
v 189.305725 8.975899 -21.454920
v 189.252716 8.783898 -21.704920
v 189.198715 8.592898 -21.955919
v 189.142715 8.423899 -22.221920
v 189.085724 8.257898 -22.488918
v 189.026718 8.113898 -22.767920
v 188.966721 7.973898 -23.049919
v 188.904724 7.854898 -23.339920
v 188.842712 7.741898 -23.632919
v 188.778717 7.649898 -23.932919
v 188.714722 7.565898 -24.234919
v 188.649719 7.501898 -24.540920
v 188.583725 7.446898 -24.848919
v 188.517715 7.409898 -25.159920
v 188.451721 7.383898 -25.471920
v 188.384720 7.375898 -25.784920
v 188.318726 7.379898 -26.096920
v 188.252716 7.398898 -26.408920
v 188.186722 7.433898 -26.718920
v 188.120712 7.480898 -27.027920
v 188.055725 7.544898 -27.334919
v 187.990723 7.619898 -27.638920
v 187.927719 7.712898 -27.937920
v 187.864716 7.814898 -28.234919
v 187.802719 7.935898 -28.523918
v 187.741714 8.063898 -28.809919
v 187.682724 8.211899 -29.086918
v 187.624725 8.364899 -29.360920
v 189.787720 9.212898 -21.348919
v 189.734711 9.021898 -21.598919
v 189.678711 8.847898 -21.861919
v 189.622711 8.679898 -22.128920
v 189.563721 8.525898 -22.401918
v 189.504715 8.381899 -22.681919
v 189.444717 8.245898 -22.964920
v 189.382721 8.127898 -23.255919
v 189.320724 8.012897 -23.547920
v 189.256714 7.920898 -23.847919
v 189.192719 7.828898 -24.147919
v 189.127716 7.760898 -24.452919
v 189.062714 7.696898 -24.759918
v 188.996719 7.649898 -25.069920
v 188.930725 7.613898 -25.380920
v 188.864716 7.588898 -25.692919
v 188.798721 7.579898 -26.004919
v 188.731720 7.576898 -26.317919
v 188.665710 7.595898 -26.630920
v 188.598724 7.614898 -26.943920
v 188.532715 7.660898 -27.253920
v 188.466721 7.708898 -27.563919
v 188.401718 7.775898 -27.869919
v 188.337723 7.850898 -28.173920
v 188.273712 7.939898 -28.473919
v 188.210724 8.040898 -28.770920
v 188.147720 8.150898 -29.064919
v 188.086716 8.278898 -29.351919
v 188.025711 8.407898 -29.637920
v 187.967712 8.560898 -29.912918
v 187.909714 8.713898 -30.186920
v 187.853714 8.886898 -30.449919
v 190.222717 9.230898 -21.469919
v 190.166718 9.056898 -21.732920
v 190.108719 8.896898 -22.003920
v 190.050720 8.745898 -22.278919
v 189.990723 8.599898 -22.557919
v 189.929718 8.471898 -22.844919
v 189.868713 8.344898 -23.131920
v 189.806717 8.237898 -23.426920
v 189.743713 8.134898 -23.722919
v 189.679718 8.042898 -24.022919
v 189.615723 7.964898 -24.325920
v 189.550720 7.887898 -24.629919
v 189.484711 7.835898 -24.938919
v 189.419724 7.783898 -25.247919
v 189.353714 7.748898 -25.558920
v 189.286713 7.721898 -25.870918
v 189.220718 7.702898 -26.182919
v 189.153717 7.702898 -26.495918
v 189.087723 7.702898 -26.809919
v 189.020721 7.726898 -27.121920
v 188.954712 7.752898 -27.433920
v 188.888718 7.791898 -27.743919
v 188.822723 7.843898 -28.052919
v 188.757721 7.899898 -28.361919
v 188.692719 7.977898 -28.665920
v 188.628723 8.055899 -28.968918
v 188.564713 8.151898 -29.267920
v 188.501724 8.254898 -29.563919
v 188.439713 8.365898 -29.856918
v 188.378723 8.493898 -30.143919
v 188.317719 8.620898 -30.431919
v 188.258713 8.770899 -30.707920
v 188.199722 8.921898 -30.982920
v 188.142715 9.085898 -31.251919
v 190.658722 9.233898 -21.581919
v 190.602722 9.061898 -21.846920
v 190.544724 8.903898 -22.117920
v 190.485718 8.754898 -22.394918
v 190.426712 8.609898 -22.673920
v 190.365723 8.483898 -22.961920
v 190.303711 8.358898 -23.249920
v 190.241714 8.250898 -23.543919
v 190.178711 8.148898 -23.840919
v 190.114716 8.054898 -24.139919
v 190.050720 7.977898 -24.443920
v 189.985718 7.901898 -24.746920
v 189.920715 7.846898 -25.055920
v 189.854721 7.795898 -25.364920
v 189.788712 7.754898 -25.674919
v 189.722717 7.728898 -25.986919
v 189.655716 7.703898 -26.298920
v 189.589722 7.702898 -26.612919
v 189.522720 7.702898 -26.925919
v 189.456711 7.717898 -27.238918
v 189.389725 7.743898 -27.550919
v 189.323715 7.772898 -27.861919
v 189.257721 7.824898 -28.170919
v 189.192719 7.875898 -28.480919
v 189.127716 7.945898 -28.785919
v 189.062714 8.021898 -29.089920
v 188.998718 8.105898 -29.391918
v 188.935715 8.206898 -29.688919
v 188.872711 8.308898 -29.984921
v 188.810715 8.430899 -30.274920
v 188.749725 8.556898 -30.562920
v 188.689713 8.691898 -30.846920
v 188.630722 8.840899 -31.123920
v 188.571716 8.989899 -31.401920
v 188.514725 9.161898 -31.666920
v 191.094711 9.233898 -21.693920
v 191.038712 9.062899 -21.958920
v 190.980713 8.904898 -22.230919
v 190.921722 8.756899 -22.507919
v 190.862717 8.610898 -22.786919
v 190.801712 8.485898 -23.074919
v 190.739716 8.360898 -23.362919
v 190.677719 8.251898 -23.656919
v 190.614716 8.150898 -23.953918
v 190.550720 8.056898 -24.252918
v 190.486725 7.979898 -24.556919
v 190.421722 7.903898 -24.860920
v 190.356720 7.847898 -25.168919
v 190.290710 7.796898 -25.477919
v 190.224716 7.755898 -25.787918
v 190.158722 7.729898 -26.099918
v 190.091721 7.703898 -26.411919
v 190.025711 7.702898 -26.724918
v 189.958725 7.702898 -27.038919
v 189.892715 7.716898 -27.350920
v 189.825714 7.742898 -27.662918
v 189.759720 7.770898 -27.974918
v 189.693726 7.821898 -28.283920
v 189.628723 7.873898 -28.592918
v 189.563721 7.941898 -28.898918
v 189.498718 8.017899 -29.202919
v 189.434723 8.099898 -29.505920
v 189.371719 8.200898 -29.801918
v 189.308716 8.301898 -30.098919
v 189.246719 8.422898 -30.388920
v 189.185715 8.547898 -30.677919
v 189.124725 8.681898 -30.961918
v 189.065720 8.830898 -31.239920
v 189.006714 8.978898 -31.516918
v 188.950714 9.148898 -31.782919
v 191.530716 9.233898 -21.807919
v 191.474716 9.063898 -22.072920
v 191.416718 8.905898 -22.344919
v 191.357712 8.757898 -22.621920
v 191.298721 8.611898 -22.900919
v 191.236725 8.486898 -23.188919
v 191.175720 8.361898 -23.476919
v 191.113724 8.253899 -23.770920
v 191.049713 8.152899 -24.067919
v 190.986725 8.057898 -24.366919
v 190.921722 7.981898 -24.670919
v 190.857712 7.905898 -24.974918
v 190.791718 7.849898 -25.282919
v 190.726715 7.797898 -25.591919
v 190.660721 7.756898 -25.901920
v 190.593719 7.730898 -26.213919
v 190.527725 7.704898 -26.526920
v 190.460724 7.702898 -26.839920
v 190.394714 7.702898 -27.152920
v 190.327713 7.715898 -27.465919
v 190.261719 7.741898 -27.777920
v 190.195724 7.768898 -28.089920
v 190.129715 7.819898 -28.398918
v 190.063721 7.870898 -28.707920
v 189.998718 7.937898 -29.013920
v 189.934723 8.013899 -29.317919
v 189.869720 8.094898 -29.620918
v 189.806717 8.195898 -29.917919
v 189.743713 8.295898 -30.213921
v 189.681717 8.414898 -30.504919
v 189.620712 8.539898 -30.793919
v 189.559723 8.671898 -31.078918
v 189.500717 8.820898 -31.356918
v 189.441711 8.968899 -31.634918
v 189.385712 9.136898 -31.900919
v 191.965714 9.234898 -21.924919
v 191.909714 9.063898 -22.189919
v 191.851715 8.906898 -22.461920
v 191.792725 8.758898 -22.739920
v 191.733719 8.612898 -23.018919
v 191.671722 8.488898 -23.306919
v 191.610718 8.363898 -23.594919
v 191.548721 8.254898 -23.888920
v 191.484711 8.154898 -24.185919
v 191.421722 8.058898 -24.484919
v 191.356720 7.982898 -24.788919
v 191.292725 7.906898 -25.092918
v 191.226715 7.850898 -25.400919
v 191.161713 7.799898 -25.709919
v 191.095718 7.756898 -26.019920
v 191.028717 7.731898 -26.331919
v 190.962723 7.705898 -26.643919
v 190.895721 7.702898 -26.956919
v 190.829712 7.702898 -27.269920
v 190.762726 7.714898 -27.582920
v 190.696716 7.740898 -27.894920
v 190.630722 7.766898 -28.207920
v 190.564713 7.817898 -28.516918
v 190.498718 7.868898 -28.825920
v 190.433716 7.933898 -29.131920
v 190.369720 8.009898 -29.435919
v 190.304718 8.089898 -29.738918
v 190.241714 8.189898 -30.035919
v 190.178711 8.290898 -30.332920
v 190.116714 8.407898 -30.623920
v 190.055725 8.532898 -30.912918
v 189.994720 8.663898 -31.198919
v 189.935715 8.811898 -31.476919
v 189.876724 8.959898 -31.753920
v 189.819717 9.125898 -32.021919
v 192.094711 9.212898 -23.484919
v 192.040710 9.021898 -23.735920
v 191.984711 8.851898 -23.999920
v 191.927719 8.684898 -24.266918
v 191.869720 8.534899 -24.543919
v 191.809723 8.393898 -24.824919
v 191.748718 8.266898 -25.110920
v 191.686722 8.151898 -25.403919
v 191.623718 8.047898 -25.698919
v 191.559723 7.960898 -26.000919
v 191.495712 7.879898 -26.302919
v 191.429718 7.821898 -26.610920
v 191.364716 7.764898 -26.918919
v 191.297714 7.735898 -27.229919
v 191.231720 7.706898 -27.541920
v 191.165710 7.703898 -27.854919
v 191.098724 7.703898 -28.166920
v 191.032715 7.724898 -28.478920
v 190.966721 7.753898 -28.790920
v 190.900711 7.799898 -29.099918
v 190.835724 7.857898 -29.407919
v 190.770721 7.927898 -29.712919
v 190.706711 8.014898 -30.013920
v 190.642715 8.107899 -30.312920
v 190.580719 8.222898 -30.604919
v 190.518723 8.338898 -30.895920
v 190.458725 8.480898 -31.177919
v 190.399719 8.622898 -31.458920
v 190.342712 8.787898 -31.726919
v 190.285721 8.954899 -31.993919
v 190.231720 9.140898 -32.248920
v 192.828720 9.234898 -22.194920
v 192.771713 9.064898 -22.459919
v 192.714722 8.906898 -22.731918
v 192.655716 8.758898 -23.009918
v 192.595718 8.613898 -23.288919
v 192.534714 8.488898 -23.576920
v 192.473724 8.364899 -23.864920
v 192.410721 8.255898 -24.158920
v 192.347717 8.154898 -24.456919
v 192.284714 8.059898 -24.754919
v 192.219711 7.983898 -25.058920
v 192.154724 7.907898 -25.362919
v 192.089722 7.850898 -25.670919
v 192.023712 7.799898 -25.979919
v 191.957718 7.757898 -26.289919
v 191.891724 7.731898 -26.601919
v 191.825714 7.705898 -26.914919
v 191.758713 7.702898 -27.227919
v 191.692719 7.702898 -27.540920
v 191.625717 7.714898 -27.852919
v 191.559723 7.739898 -28.165920
v 191.492722 7.765898 -28.477919
v 191.427719 7.816898 -28.786919
v 191.361725 7.867898 -29.095921
v 191.296722 7.932898 -29.401920
v 191.231720 8.008898 -29.705919
v 191.167725 8.087898 -30.009918
v 191.104721 8.188898 -30.306919
v 191.041718 8.288898 -30.602921
v 190.979721 8.405898 -30.894920
v 190.917725 8.530898 -31.182919
v 190.856720 8.660898 -31.469919
v 190.797714 8.808898 -31.747919
v 190.738724 8.956898 -32.025917
v 190.681717 9.121899 -32.293919
v 193.257721 9.234898 -22.340919
v 193.199722 9.058898 -22.613918
v 193.139725 8.897898 -22.893919
v 193.078720 8.745898 -23.179920
v 193.017715 8.598898 -23.467918
v 192.954712 8.469898 -23.764919
v 192.891724 8.341898 -24.061920
v 192.826721 8.234898 -24.365919
v 192.761719 8.130898 -24.671919
v 192.696716 8.038898 -24.980919
v 192.629715 7.960898 -25.293919
v 192.562714 7.884898 -25.607920
v 192.495712 7.832898 -25.925919
v 192.427719 7.779898 -26.243919
v 192.359711 7.746898 -26.563919
v 192.291718 7.719898 -26.885920
v 192.222717 7.702898 -27.207920
v 192.154724 7.702898 -27.529919
v 192.085724 7.702898 -27.851919
v 192.017715 7.728898 -28.172920
v 191.949722 7.755898 -28.494919
v 191.881714 7.797898 -28.813919
v 191.813721 7.850898 -29.131920
v 191.746719 7.908898 -29.448919
v 191.679718 7.987898 -29.761919
v 191.613724 8.065899 -30.075920
v 191.548721 8.165898 -30.381920
v 191.483719 8.269898 -30.686920
v 191.419724 8.385899 -30.988918
v 191.356720 8.513899 -31.285919
v 191.293716 8.645899 -31.581921
v 191.232712 8.797898 -31.867920
v 191.171722 8.950898 -32.153919
v 191.112717 9.119898 -32.430920
v 193.685715 9.233898 -22.488918
v 193.629715 9.063898 -22.753920
v 193.571716 8.905898 -23.025919
v 193.512726 8.757898 -23.303919
v 193.453720 8.612898 -23.582920
v 193.392715 8.487898 -23.870918
v 193.330719 8.363898 -24.158920
v 193.268723 8.254898 -24.452919
v 193.205719 8.153898 -24.749920
v 193.141724 8.058898 -25.048920
v 193.077713 7.982898 -25.352919
v 193.012726 7.906898 -25.656919
v 192.947723 7.849898 -25.964920
v 192.881714 7.798898 -26.273918
v 192.815720 7.756898 -26.583920
v 192.749725 7.730898 -26.895920
v 192.682724 7.705898 -27.207920
v 192.616714 7.702898 -27.520920
v 192.549713 7.702898 -27.833920
v 192.483719 7.714898 -28.146919
v 192.416718 7.740898 -28.458920
v 192.350723 7.766898 -28.770920
v 192.284714 7.817898 -29.079918
v 192.219711 7.868898 -29.389919
v 192.154724 7.934898 -29.695919
v 192.089722 8.010899 -29.999920
v 192.025711 8.090899 -30.302919
v 191.961716 8.191898 -30.599918
v 191.898712 8.292898 -30.895920
v 191.837723 8.409899 -31.186920
v 191.775711 8.534899 -31.475918
v 191.714722 8.665898 -31.761919
v 191.655716 8.813898 -32.039917
v 191.596725 8.962898 -32.317917
v 191.539719 9.128899 -32.584919
v 194.113724 9.233898 -22.639919
v 194.057724 9.063898 -22.904919
v 193.999725 8.905898 -23.176920
v 193.940720 8.757898 -23.454920
v 193.881714 8.612898 -23.732920
v 193.820724 8.487898 -24.020920
v 193.759720 8.362898 -24.309919
v 193.696716 8.253899 -24.603920
v 193.633713 8.152899 -24.900919
v 193.569717 8.057898 -25.199919
v 193.505722 7.981898 -25.503920
v 193.440720 7.905898 -25.806919
v 193.375717 7.849898 -26.114920
v 193.309723 7.798898 -26.423920
v 193.243713 7.756898 -26.734919
v 193.177719 7.730898 -27.046919
v 193.110718 7.704898 -27.358919
v 193.044724 7.702898 -27.671919
v 192.977722 7.702898 -27.984919
v 192.911713 7.715898 -28.296919
v 192.845718 7.740898 -28.608919
v 192.778717 7.767898 -28.920919
v 192.713715 7.818898 -29.229919
v 192.647720 7.869898 -29.538919
v 192.582718 7.936898 -29.844919
v 192.517715 8.012897 -30.149920
v 192.453720 8.092898 -30.452919
v 192.390717 8.193898 -30.748920
v 192.327713 8.294898 -31.045919
v 192.265717 8.412898 -31.336918
v 192.204712 8.537898 -31.624920
v 192.143723 8.669898 -31.910919
v 192.084717 8.817898 -32.188919
v 192.025711 8.965899 -32.466919
v 191.968719 9.132898 -32.733917
v 194.544724 9.209898 -22.776918
v 194.490723 9.009898 -23.033920
v 194.432724 8.831898 -23.306919
v 194.373718 8.655898 -23.581919
v 194.312714 8.503899 -23.868919
v 194.251724 8.354898 -24.158920
v 194.187714 8.229898 -24.457920
v 194.123718 8.108898 -24.758919
v 194.057724 8.010899 -25.067919
v 193.991714 7.918898 -25.379919
v 193.924713 7.848898 -25.695919
v 193.856720 7.787898 -26.013920
v 193.788712 7.746898 -26.334919
v 193.720718 7.715898 -26.656919
v 193.651718 7.703898 -26.979919
v 193.582718 7.703898 -27.302919
v 193.514725 7.719898 -27.625919
v 193.445724 7.750898 -27.947920
v 193.377716 7.796898 -28.267920
v 193.309723 7.857898 -28.586918
v 193.242722 7.932898 -28.901920
v 193.176712 8.023898 -29.212919
v 193.111725 8.125898 -29.519920
v 193.047714 8.246899 -29.821918
v 192.984711 8.376898 -30.119919
v 192.922714 8.525898 -30.408920
v 192.861725 8.681898 -30.693920
v 192.803711 8.857899 -30.968918
v 192.745712 9.038898 -31.239920
v 194.968719 9.234898 -22.947920
v 194.912720 9.064898 -23.212919
v 194.854721 8.906898 -23.484919
v 194.795715 8.758898 -23.762918
v 194.736725 8.613898 -24.040920
v 194.674713 8.488898 -24.329920
v 194.613724 8.364899 -24.617920
v 194.551712 8.255898 -24.911919
v 194.487717 8.154898 -25.208920
v 194.424713 8.059898 -25.507919
v 194.359711 7.983898 -25.811920
v 194.295715 7.907898 -26.115919
v 194.229721 7.850898 -26.423920
v 194.164719 7.799898 -26.732920
v 194.098724 7.757898 -27.042919
v 194.031723 7.731898 -27.354919
v 193.965714 7.705898 -27.666920
v 193.898712 7.702898 -27.979919
v 193.832718 7.702898 -28.292919
v 193.766724 7.714898 -28.604919
v 193.699722 7.739898 -28.916920
v 193.633713 7.765898 -29.229919
v 193.567719 7.816898 -29.538919
v 193.501724 7.867898 -29.847919
v 193.436722 7.932898 -30.153919
v 193.372711 8.008898 -30.457920
v 193.307724 8.087898 -30.761919
v 193.244720 8.187899 -31.058918
v 193.181717 8.288898 -31.354919
v 193.119720 8.404898 -31.646919
v 193.058716 8.529898 -31.934919
v 192.997711 8.659899 -32.221920
v 192.938721 8.807898 -32.499920
v 192.879715 8.955898 -32.777920
v 192.822723 9.120898 -33.045921
v 195.395721 9.234898 -23.103920
v 195.337723 9.060898 -23.376919
v 195.277725 8.899899 -23.657919
v 195.216721 8.747898 -23.943920
v 195.155716 8.601898 -24.232920
v 195.092712 8.473898 -24.529919
v 195.029724 8.345898 -24.826920
v 194.964722 8.237898 -25.130920
v 194.899719 8.134898 -25.436920
v 194.833725 8.042898 -25.745918
v 194.767715 7.964898 -26.058920
v 194.700714 7.887898 -26.371920
v 194.633713 7.835898 -26.689919
v 194.565720 7.783898 -27.008919
v 194.497711 7.748898 -27.328918
v 194.429718 7.721898 -27.649920
v 194.360718 7.702898 -27.971920
v 194.292725 7.702898 -28.293919
v 194.223724 7.702898 -28.615919
v 194.155716 7.726898 -28.936920
v 194.087723 7.752898 -29.257919
v 194.019714 7.792898 -29.577919
v 193.951721 7.844898 -29.895920
v 193.884720 7.900898 -30.213921
v 193.817719 7.978898 -30.526920
v 193.751724 8.056898 -30.839920
v 193.685715 8.152899 -31.147919
v 193.620712 8.255898 -31.452919
v 193.556717 8.367898 -31.755920
v 193.493713 8.495898 -32.052917
v 193.429718 8.623898 -32.350918
v 193.369720 8.774899 -32.637920
v 193.308716 8.926898 -32.923920
v 193.248718 9.091898 -33.202919
v 195.821716 9.235898 -23.261919
v 195.765717 9.066898 -23.527920
v 195.707718 8.909899 -23.799919
v 195.648712 8.763899 -24.078918
v 195.589722 8.618898 -24.357920
v 195.527725 8.494898 -24.645920
v 195.466721 8.370898 -24.934919
v 195.403717 8.261898 -25.228920
v 195.340714 8.161898 -25.525919
v 195.277725 8.065899 -25.823919
v 195.212723 7.989898 -26.128920
v 195.147720 7.914898 -26.432919
v 195.082718 7.855898 -26.739920
v 195.016724 7.805898 -27.048920
v 194.951721 7.760898 -27.358919
v 194.884720 7.734898 -27.670919
v 194.818726 7.709898 -27.983919
v 194.751724 7.702898 -28.295919
v 194.685715 7.702898 -28.608919
v 194.618713 7.710898 -28.921919
v 194.552719 7.735898 -29.233919
v 194.486725 7.760898 -29.545919
v 194.420715 7.807898 -29.855919
v 194.354721 7.857898 -30.164919
v 194.289719 7.917898 -30.471920
v 194.224716 7.992898 -30.775919
v 194.159714 8.068898 -31.080919
v 194.096710 8.165898 -31.378920
v 194.033722 8.265898 -31.675919
v 193.971710 8.375898 -31.968918
v 193.909714 8.498898 -32.257919
v 193.848724 8.622898 -32.546921
v 193.789719 8.768898 -32.825920
v 193.729721 8.915898 -33.103920
v 193.671722 9.073898 -33.376919
v 196.247711 9.235898 -23.421919
v 196.191711 9.067898 -23.687920
v 196.133713 8.911898 -23.960918
v 196.074722 8.765898 -24.238918
v 196.014725 8.620898 -24.517920
v 195.953720 8.497898 -24.806919
v 195.892715 8.373898 -25.095919
v 195.829712 8.264898 -25.389919
v 195.766724 8.164898 -25.686920
v 195.703720 8.068898 -25.985920
v 195.638718 7.992898 -26.289919
v 195.573715 7.917898 -26.593920
v 195.508713 7.858898 -26.900919
v 195.442719 7.807898 -27.209919
v 195.376724 7.761898 -27.519920
v 195.310715 7.736898 -27.831919
v 195.244720 7.710898 -28.143919
v 195.177719 7.702898 -28.456919
v 195.111725 7.702898 -28.769920
v 195.044724 7.708898 -29.082920
v 194.978714 7.733898 -29.394920
v 194.911713 7.758898 -29.707920
v 194.846710 7.802898 -30.017920
v 194.780716 7.853898 -30.326920
v 194.714722 7.910898 -30.633919
v 194.650711 7.985898 -30.938919
v 194.585724 8.060898 -31.242920
v 194.522720 8.155898 -31.541920
v 194.458725 8.254898 -31.838921
v 194.396713 8.361898 -32.132919
v 194.334717 8.484898 -32.421921
v 194.273712 8.608898 -32.711918
v 194.213715 8.750898 -32.991920
v 194.154724 8.897898 -33.270920
v 194.096710 9.051898 -33.544918
v 194.039719 9.219898 -33.810921
v 196.673721 9.236898 -23.583920
v 196.616714 9.068898 -23.850920
v 196.558716 8.912898 -24.123919
v 196.499725 8.767899 -24.402920
v 196.440720 8.622898 -24.681919
v 196.378723 8.499898 -24.970919
v 196.317719 8.376898 -25.259918
v 196.254715 8.267899 -25.553919
v 196.191711 8.167898 -25.850920
v 196.128723 8.070898 -26.148918
v 196.063721 7.995898 -26.453918
v 195.998718 7.920898 -26.757919
v 195.933716 7.860898 -27.064919
v 195.867722 7.810898 -27.373919
v 195.802719 7.762898 -27.683920
v 195.735718 7.737898 -27.995918
v 195.669724 7.712898 -28.307919
v 195.602722 7.702898 -28.620918
v 195.536713 7.702898 -28.933918
v 195.469711 7.706898 -29.247919
v 195.403717 7.731898 -29.559919
v 195.337723 7.757898 -29.871920
v 195.271713 7.798898 -30.181919
v 195.205719 7.849898 -30.490919
v 195.139725 7.903898 -30.798920
v 195.075714 7.978898 -31.102921
v 195.010712 8.053898 -31.407919
v 194.946716 8.145899 -31.706921
v 194.883713 8.244898 -32.004921
v 194.820724 8.348898 -32.299919
v 194.759720 8.471898 -32.588921
v 194.697723 8.594898 -32.878922
v 194.638718 8.733898 -33.159920
v 194.578720 8.879898 -33.438919
v 194.520721 9.031898 -33.714920
v 194.463715 9.198898 -33.980919
v 184.901718 3.009898 -20.528919
v 185.901718 3.009898 -20.528919
v 184.901718 4.009898 -20.528919
v 184.901718 3.009898 -21.528919
v 184.887711 6.499898 -20.594919
v 184.831711 6.860898 -20.857920
v 184.774719 7.231898 -21.128920
v 184.715714 7.568898 -21.403919
v 184.656723 7.721898 -21.682919
v 184.595718 7.714898 -21.969919
v 184.534714 7.555898 -22.256920
v 184.471725 7.297898 -22.551920
v 184.408722 6.917898 -22.847919
v 184.344711 6.431898 -23.147919
v 184.280716 6.087898 -23.450920
v 184.215714 6.046898 -23.754919
v 184.150711 6.149899 -24.063919
v 184.084717 6.355898 -24.372919
v 184.018723 6.601898 -24.683920
v 183.952713 6.733898 -24.995918
v 183.885712 6.807898 -25.307919
v 183.819717 6.969898 -25.621920
v 183.752716 7.201898 -25.934919
v 183.686722 7.423898 -26.246920
v 183.619720 7.595898 -26.558920
v 183.553711 7.688898 -26.869919
v 183.488724 7.720898 -27.178919
v 183.422714 7.704898 -27.486919
v 183.357712 7.635898 -27.790920
v 183.293716 7.526898 -28.094919
v 183.229721 7.375898 -28.392920
v 183.166718 7.189898 -28.688919
v 183.104721 6.975898 -28.982920
v 183.043716 6.746898 -29.269920
v 182.982712 6.521898 -29.557919
v 182.923721 6.317898 -29.833920
v 182.864716 6.130898 -30.109921
v 182.807724 5.967898 -30.378920
v 185.341721 6.484899 -20.621920
v 185.285721 6.775898 -20.884920
v 185.228714 7.067898 -21.155920
v 185.169724 7.323898 -21.431919
v 185.110718 7.449898 -21.710918
v 185.049713 7.401898 -21.997919
v 184.988724 7.184898 -22.284920
v 184.925720 6.917898 -22.579920
v 184.862717 6.570898 -22.875919
v 184.798721 6.169898 -23.175919
v 184.734711 5.899899 -23.478920
v 184.669724 5.890898 -23.782919
v 184.604721 5.998898 -24.091919
v 184.538712 6.216898 -24.400919
v 184.472717 6.487898 -24.711920
v 184.406723 6.671898 -25.023918
v 184.339722 6.755898 -25.335918
v 184.273712 6.887898 -25.648918
v 184.206711 7.124898 -25.962919
v 184.140717 7.376898 -26.274920
v 184.073715 7.572898 -26.586920
v 184.007721 7.698898 -26.897919
v 183.942719 7.750898 -27.206919
v 183.876724 7.742898 -27.515919
v 183.811722 7.686898 -27.819920
v 183.747711 7.625898 -28.123919
v 183.683716 7.499898 -28.422920
v 183.620712 7.321898 -28.718918
v 183.558716 7.109898 -29.012920
v 183.496719 6.876898 -29.300919
v 183.435715 6.638898 -29.588921
v 183.376724 6.424898 -29.866920
v 183.318726 6.236898 -30.142920
v 183.260712 6.011898 -30.412918
v 185.796722 6.552898 -20.648920
v 185.740723 6.740898 -20.911919
v 185.682724 6.951898 -21.183920
v 185.623718 7.146898 -21.459919
v 185.564713 7.206898 -21.738918
v 185.503723 7.153898 -22.025919
v 185.442719 6.952898 -22.313919
v 185.379715 6.621899 -22.607920
v 185.316711 6.280898 -22.904919
v 185.253723 5.979898 -23.203918
v 185.188721 5.790898 -23.507919
v 185.123718 5.789898 -23.811920
v 185.058716 5.902898 -24.119919
v 184.992722 6.110898 -24.428919
v 184.926712 6.372898 -24.739920
v 184.860718 6.572898 -25.051918
v 184.793716 6.678898 -25.363918
v 184.727722 6.781898 -25.676918
v 184.660721 6.965898 -25.990919
v 184.594711 7.233898 -26.302919
v 184.527725 7.464898 -26.614920
v 184.461716 7.657898 -26.925919
v 184.396713 7.787898 -27.234919
v 184.330719 7.822898 -27.543919
v 184.265717 7.810898 -27.848919
v 184.201721 7.805898 -28.152920
v 184.137711 7.723898 -28.452919
v 184.074722 7.569898 -28.748920
v 184.011719 7.387898 -29.043919
v 183.950714 7.190898 -29.332920
v 183.889725 6.982898 -29.620918
v 183.829712 6.765898 -29.899920
v 183.770721 6.522898 -30.176918
v 183.712723 6.269898 -30.448919
v 183.656723 6.130898 -30.712919
v 186.182724 6.832898 -20.992920
v 186.127716 6.973898 -21.253920
v 186.070724 7.123899 -21.523920
v 186.011719 7.075898 -21.798920
v 185.952713 6.931898 -22.076920
v 185.891724 6.714898 -22.362919
v 185.830719 6.406898 -22.649920
v 185.768723 6.113898 -22.944920
v 185.705719 5.889898 -23.240919
v 185.641724 5.763898 -23.540920
v 185.577713 5.768898 -23.843920
v 185.512711 5.886898 -24.148918
v 185.446716 6.076898 -24.456919
v 185.381714 6.278898 -24.765919
v 185.314713 6.477898 -25.077919
v 185.248718 6.651898 -25.388920
v 185.182724 6.790898 -25.701920
v 185.115723 6.892898 -26.014919
v 185.048721 7.053898 -26.327919
v 184.982712 7.233898 -26.639919
v 184.916718 7.454898 -26.951920
v 184.850723 7.659898 -27.261919
v 184.784714 7.739898 -27.570919
v 184.719711 7.724898 -27.876919
v 184.655716 7.748899 -28.179920
v 184.591721 7.700898 -28.482920
v 184.528717 7.605898 -28.778919
v 184.465714 7.497898 -29.073919
v 184.404724 7.378898 -29.361919
v 184.343719 7.267899 -29.647919
v 184.283722 7.126898 -29.929920
v 184.225723 6.966898 -30.203918
v 184.167725 6.734898 -30.476919
v 184.111725 6.538898 -30.737919
v 186.428711 7.016898 -22.000919
v 186.374725 6.750898 -22.255919
v 186.317719 6.434898 -22.523920
v 186.260712 6.139898 -22.793919
v 186.200714 5.881898 -23.072920
v 186.140717 5.767899 -23.356918
v 186.079712 5.735898 -23.645920
v 186.016724 5.776898 -23.939919
v 185.953720 5.904899 -24.237919
v 185.889725 6.149898 -24.540920
v 185.824722 6.415898 -24.844919
v 185.758713 6.664898 -25.153919
v 185.693726 6.842898 -25.462919
v 185.626724 6.946898 -25.774920
v 185.560715 6.989899 -26.087919
v 185.493713 7.044899 -26.399920
v 185.427719 7.137898 -26.712919
v 185.361725 7.290898 -27.024920
v 185.294724 7.509898 -27.335918
v 185.229721 7.481898 -27.644920
v 185.164719 7.414898 -27.951920
v 185.099716 7.332898 -28.255920
v 185.035721 7.298898 -28.555920
v 184.972717 7.307899 -28.853920
v 184.910721 7.314898 -29.144920
v 184.848724 7.289898 -29.434919
v 184.789719 7.246898 -29.713921
v 184.730713 7.189898 -29.992920
v 184.673721 7.057898 -30.259918
v 184.617722 6.897898 -30.524920
v 184.563721 6.782898 -30.778919
v 186.782715 6.569898 -22.500919
v 186.724716 6.219898 -22.773918
v 186.663712 5.947898 -23.060919
v 186.602722 5.822898 -23.348919
v 186.538712 5.766898 -23.647919
v 186.474716 5.785898 -23.948919
v 186.409714 5.885899 -24.257919
v 186.343719 6.118898 -24.567919
v 186.275711 6.422898 -24.884918
v 186.208725 6.735898 -25.202919
v 186.139725 6.981898 -25.523918
v 186.071716 7.088898 -25.846920
v 186.002716 7.093898 -26.169918
v 185.933716 7.104898 -26.492920
v 185.865723 7.162898 -26.816919
v 185.796722 7.282898 -27.139919
v 185.728714 7.385898 -27.458920
v 185.660721 7.291898 -27.777920
v 185.594711 7.157898 -28.091919
v 185.527725 7.077898 -28.403919
v 185.462723 7.007898 -28.709919
v 185.398712 7.019898 -29.013920
v 185.335724 7.044898 -29.306919
v 185.273712 7.029898 -29.598919
v 185.214722 6.986898 -29.878920
v 185.155716 6.890898 -30.156919
v 185.099716 6.723898 -30.420919
v 185.043716 6.610898 -30.682919
v 184.991714 6.538898 -30.928919
v 187.237717 6.766898 -22.525919
v 187.179718 6.394898 -22.799919
v 187.117722 6.082898 -23.087919
v 187.056717 5.924898 -23.375919
v 186.993713 5.844898 -23.675919
v 186.929718 5.845898 -23.975920
v 186.863724 5.923898 -24.285919
v 186.797714 6.129898 -24.595919
v 186.730713 6.415898 -24.912918
v 186.662720 6.730898 -25.229919
v 186.594711 7.007898 -25.551918
v 186.525711 7.163898 -25.873919
v 186.456711 7.195898 -26.196918
v 186.388718 7.179898 -26.520920
v 186.319717 7.207898 -26.843920
v 186.250717 7.277898 -27.166920
v 186.182724 7.343898 -27.486919
v 186.115723 7.282898 -27.805920
v 186.048721 7.155899 -28.119919
v 185.981720 7.008898 -28.431919
v 185.916718 6.789898 -28.738918
v 185.852722 6.641898 -29.042919
v 185.789719 6.557899 -29.337919
v 185.727722 6.610898 -29.629919
v 185.667725 6.699898 -29.911919
v 185.608719 6.697898 -30.189919
v 185.551712 6.585898 -30.456921
v 185.495712 6.436898 -30.718918
v 185.442719 6.346898 -30.967918
v 187.690720 7.153898 -22.560919
v 187.631714 6.786898 -22.834919
v 187.570724 6.433898 -23.121920
v 187.509720 6.216898 -23.410919
v 187.445724 6.072898 -23.710918
v 187.381714 6.011898 -24.011919
v 187.315720 6.049898 -24.320919
v 187.249725 6.226898 -24.631920
v 187.182724 6.497899 -24.947920
v 187.115723 6.800899 -25.265919
v 187.046722 7.078898 -25.586920
v 186.978714 7.250898 -25.908920
v 186.909714 7.285898 -26.232920
v 186.840714 7.257898 -26.555920
v 186.772720 7.256898 -26.878920
v 186.703720 7.296898 -27.201920
v 186.635712 7.364898 -27.521919
v 186.567719 7.356898 -27.840919
v 186.500717 7.254898 -28.155918
v 186.434723 7.035898 -28.468920
v 186.369720 6.710898 -28.775919
v 186.304718 6.450898 -29.079918
v 186.241714 6.295898 -29.375919
v 186.179718 6.320898 -29.667919
v 186.118713 6.474898 -29.951920
v 186.059723 6.576898 -30.229919
v 186.002716 6.612898 -30.498920
v 185.946716 6.445898 -30.760920
v 185.893723 6.324898 -31.013920
v 188.479721 8.691898 -21.009920
v 188.428711 8.507898 -21.252918
v 188.372711 8.348898 -21.512918
v 188.317719 8.203898 -21.773920
v 188.258713 8.043898 -22.050919
v 188.199722 7.848898 -22.327919
v 188.137726 7.580898 -22.618919
v 188.075714 7.259898 -22.910919
v 188.011719 6.928898 -23.213919
v 187.946716 6.671898 -23.516918
v 187.880722 6.489898 -23.828918
v 187.814713 6.396898 -24.141918
v 187.746719 6.426898 -24.459919
v 187.678711 6.579898 -24.778919
v 187.609711 6.821898 -25.101919
v 187.541718 7.090898 -25.424919
v 187.472717 7.239898 -25.747919
v 187.403717 7.304898 -26.071918
v 187.335724 7.318898 -26.392920
v 187.267715 7.330898 -26.714920
v 187.199722 7.358898 -27.032919
v 187.132721 7.446898 -27.349918
v 187.065720 7.495898 -27.660919
v 186.999725 7.466898 -27.971920
v 186.935715 7.347898 -28.273918
v 186.871719 7.127898 -28.573919
v 186.810715 6.763898 -28.862919
v 186.749725 6.519898 -29.149920
v 186.690720 6.400898 -29.425919
v 188.917725 8.889898 -21.115919
v 188.867722 8.736898 -21.348919
v 188.814713 8.574898 -21.598919
v 188.761719 8.417898 -21.850920
v 188.704712 8.262897 -22.116919
v 188.647720 8.107899 -22.384918
v 188.588715 7.923898 -22.663919
v 188.528717 7.718898 -22.944920
v 188.466721 7.485898 -23.235920
v 188.404724 7.237898 -23.528919
v 188.340714 7.036898 -23.827919
v 188.276718 6.903898 -24.129919
v 188.211716 6.883898 -24.435919
v 188.146713 6.921898 -24.743919
v 188.080719 7.107898 -25.054920
v 188.013718 7.207898 -25.366919
v 187.947723 7.249898 -25.678919
v 187.880722 7.273898 -25.991919
v 187.814713 7.285898 -26.302919
v 187.748718 7.306899 -26.613918
v 187.682724 7.384898 -26.923920
v 187.617722 7.466898 -27.229919
v 187.552719 7.565898 -27.534920
v 187.489716 7.626898 -27.834919
v 187.425720 7.610898 -28.132919
v 187.364716 7.531898 -28.422920
v 187.302719 7.391898 -28.709919
v 187.244720 7.189898 -28.986919
v 187.185715 7.000898 -29.263920
v 189.354721 9.017899 -21.221920
v 189.305725 8.872898 -21.454920
v 189.252716 8.717898 -21.704920
v 189.198715 8.551899 -21.955919
v 189.142715 8.351898 -22.221920
v 189.085724 8.218899 -22.488918
v 189.026718 8.076899 -22.767920
v 188.966721 7.934898 -23.049919
v 188.904724 7.806898 -23.339920
v 188.842712 7.647898 -23.632919
v 188.778717 7.474898 -23.932919
v 188.714722 7.344898 -24.234919
v 188.649719 7.323898 -24.540920
v 188.583725 7.299898 -24.848919
v 188.517715 7.342898 -25.159920
v 188.451721 7.348898 -25.471920
v 188.384720 7.280899 -25.784920
v 188.318726 7.215898 -26.096920
v 188.252716 7.195898 -26.408920
v 188.186722 7.235898 -26.718920
v 188.120712 7.339899 -27.027920
v 188.055725 7.474898 -27.334919
v 187.990723 7.591898 -27.638920
v 187.927719 7.699898 -27.937920
v 187.864716 7.747898 -28.234919
v 187.802719 7.730898 -28.523918
v 187.741714 7.695898 -28.809919
v 187.682724 7.622898 -29.086918
v 187.624725 7.497898 -29.360920
v 189.787720 9.001898 -21.348919
v 189.734711 8.890898 -21.598919
v 189.678711 8.751898 -21.861919
v 189.622711 8.611898 -22.128920
v 189.563721 8.454898 -22.401918
v 189.504715 8.309898 -22.681919
v 189.444717 8.171898 -22.964920
v 189.382721 8.056898 -23.255919
v 189.320724 7.977898 -23.547920
v 189.256714 7.867898 -23.847919
v 189.192719 7.744898 -24.147919
v 189.127716 7.654898 -24.452919
v 189.062714 7.561898 -24.759918
v 188.996719 7.510898 -25.069920
v 188.930725 7.438898 -25.380920
v 188.864716 7.325898 -25.692919
v 188.798721 7.224898 -26.004919
v 188.731720 7.158898 -26.317919
v 188.665710 7.149898 -26.630920
v 188.598724 7.232898 -26.943920
v 188.532715 7.338898 -27.253920
v 188.466721 7.454898 -27.563919
v 188.401718 7.577898 -27.869919
v 188.337723 7.713898 -28.173920
v 188.273712 7.846898 -28.473919
v 188.210724 7.914898 -28.770920
v 188.147720 7.904898 -29.064919
v 188.086716 7.845898 -29.351919
v 188.025711 7.706898 -29.637920
v 187.967712 7.511898 -29.912918
v 187.909714 7.310898 -30.186920
v 187.853714 7.118898 -30.449919
v 190.222717 8.841898 -21.469919
v 190.166718 8.790898 -21.732920
v 190.108719 8.704899 -22.003920
v 190.050720 8.613898 -22.278919
v 189.990723 8.523898 -22.557919
v 189.929718 8.415897 -22.844919
v 189.868713 8.300898 -23.131920
v 189.806717 8.202898 -23.426920
v 189.743713 8.089898 -23.722919
v 189.679718 7.971898 -24.022919
v 189.615723 7.861898 -24.325920
v 189.550720 7.764898 -24.629919
v 189.484711 7.677898 -24.938919
v 189.419724 7.579898 -25.247919
v 189.353714 7.468898 -25.558920
v 189.286713 7.341898 -25.870918
v 189.220718 7.238898 -26.182919
v 189.153717 7.198898 -26.495918
v 189.087723 7.212898 -26.809919
v 189.020721 7.249898 -27.121920
v 188.954712 7.320898 -27.433920
v 188.888718 7.379898 -27.743919
v 188.822723 7.511899 -28.052919
v 188.757721 7.684898 -28.361919
v 188.692719 7.872898 -28.665920
v 188.628723 8.018898 -28.968918
v 188.564713 8.049898 -29.267920
v 188.501724 7.979898 -29.563919
v 188.439713 7.834898 -29.856918
v 188.378723 7.634898 -30.143919
v 188.317719 7.406898 -30.431919
v 188.258713 7.183898 -30.707920
v 188.199722 6.910898 -30.982920
v 188.142715 6.661899 -31.251919
v 190.658722 8.518898 -21.581919
v 190.602722 8.516898 -21.846920
v 190.544724 8.531898 -22.117920
v 190.485718 8.508898 -22.394918
v 190.426712 8.475899 -22.673920
v 190.365723 8.421898 -22.961920
v 190.303711 8.340899 -23.249920
v 190.241714 8.246899 -23.543919
v 190.178711 8.127898 -23.840919
v 190.114716 7.987898 -24.139919
v 190.050720 7.892898 -24.443920
v 189.985718 7.822898 -24.746920
v 189.920715 7.746898 -25.055920
v 189.854721 7.656898 -25.364920
v 189.788712 7.553898 -25.674919
v 189.722717 7.435898 -25.986919
v 189.655716 7.335898 -26.298920
v 189.589722 7.284898 -26.612919
v 189.522720 7.248898 -26.925919
v 189.456711 7.224898 -27.238918
v 189.389725 7.239898 -27.550919
v 189.323715 7.291898 -27.861919
v 189.257721 7.417898 -28.170919
v 189.192719 7.606898 -28.480919
v 189.127716 7.827898 -28.785919
v 189.062714 7.963898 -29.089920
v 188.998718 8.036899 -29.391918
v 188.935715 7.978898 -29.688919
v 188.872711 7.828898 -29.984921
v 188.810715 7.631898 -30.274920
v 188.749725 7.393898 -30.562920
v 188.689713 7.110898 -30.846920
v 188.630722 6.839898 -31.123920
v 188.571716 6.582898 -31.401920
v 188.514725 6.366898 -31.666920
v 191.094711 8.112898 -21.693920
v 191.038712 8.129898 -21.958920
v 190.980713 8.182898 -22.230919
v 190.921722 8.242899 -22.507919
v 190.862717 8.268898 -22.786919
v 190.801712 8.286898 -23.074919
v 190.739716 8.243898 -23.362919
v 190.677719 8.171898 -23.656919
v 190.614716 8.091898 -23.953918
v 190.550720 8.004898 -24.252918
v 190.486725 7.928898 -24.556919
v 190.421722 7.864898 -24.860920
v 190.356720 7.795898 -25.168919
v 190.290710 7.722898 -25.477919
v 190.224716 7.638898 -25.787918
v 190.158722 7.532898 -26.099918
v 190.091721 7.415898 -26.411919
v 190.025711 7.298898 -26.724918
v 189.958725 7.209898 -27.038919
v 189.892715 7.145898 -27.350920
v 189.825714 7.131898 -27.662918
v 189.759720 7.190898 -27.974918
v 189.693726 7.327898 -28.283920
v 189.628723 7.526898 -28.592918
v 189.563721 7.778898 -28.898918
v 189.498718 7.966898 -29.202919
v 189.434723 7.990898 -29.505920
v 189.371719 7.948898 -29.801918
v 189.308716 7.802898 -30.098919
v 189.246719 7.584898 -30.388920
v 189.185715 7.332898 -30.677919
v 189.124725 7.057898 -30.961918
v 189.065720 6.780898 -31.239920
v 189.006714 6.549898 -31.516918
v 188.950714 6.349898 -31.782919
v 191.530716 7.684898 -21.807919
v 191.474716 7.723898 -22.072920
v 191.416718 7.791898 -22.344919
v 191.357712 7.863898 -22.621920
v 191.298721 7.934898 -22.900919
v 191.236725 8.000898 -23.188919
v 191.175720 8.042898 -23.476919
v 191.113724 8.035898 -23.770920
v 191.049713 8.003899 -24.067919
v 190.986725 7.969898 -24.366919
v 190.921722 7.925898 -24.670919
v 190.857712 7.877898 -24.974918
v 190.791718 7.830898 -25.282919
v 190.726715 7.771898 -25.591919
v 190.660721 7.705898 -25.901920
v 190.593719 7.630898 -26.213919
v 190.527725 7.513898 -26.526920
v 190.460724 7.366898 -26.839920
v 190.394714 7.236898 -27.152920
v 190.327713 7.140898 -27.465919
v 190.261719 7.081898 -27.777920
v 190.195724 7.113898 -28.089920
v 190.129715 7.236898 -28.398918
v 190.063721 7.435898 -28.707920
v 189.998718 7.670898 -29.013920
v 189.934723 7.906898 -29.317919
v 189.869720 7.980898 -29.620918
v 189.806717 7.935898 -29.917919
v 189.743713 7.822898 -30.213921
v 189.681717 7.626898 -30.504919
v 189.620712 7.375898 -30.793919
v 189.559723 7.087898 -31.078918
v 189.500717 6.816898 -31.356918
v 189.441711 6.575898 -31.634918
v 189.385712 6.367898 -31.900919
v 191.965714 7.243898 -21.924919
v 191.909714 7.284898 -22.189919
v 191.851715 7.359898 -22.461920
v 191.792725 7.454898 -22.739920
v 191.733719 7.545898 -23.018919
v 191.671722 7.662898 -23.306919
v 191.610718 7.781898 -23.594919
v 191.548721 7.874898 -23.888920
v 191.484711 7.913898 -24.185919
v 191.421722 7.911898 -24.484919
v 191.356720 7.897898 -24.788919
v 191.292725 7.869898 -25.092918
v 191.226715 7.837898 -25.400919
v 191.161713 7.797898 -25.709919
v 191.095718 7.742898 -26.019920
v 191.028717 7.678898 -26.331919
v 190.962723 7.597898 -26.643919
v 190.895721 7.495898 -26.956919
v 190.829712 7.351898 -27.269920
v 190.762726 7.217898 -27.582920
v 190.696716 7.122898 -27.894920
v 190.630722 7.109898 -28.207920
v 190.564713 7.207898 -28.516918
v 190.498718 7.396898 -28.825920
v 190.433716 7.620898 -29.131920
v 190.369720 7.826898 -29.435919
v 190.304718 7.943898 -29.738918
v 190.241714 7.905898 -30.035919
v 190.178711 7.751898 -30.332920
v 190.116714 7.527898 -30.623920
v 190.055725 7.272898 -30.912918
v 189.994720 7.010898 -31.198919
v 189.935715 6.776898 -31.476919
v 189.876724 6.557898 -31.753920
v 189.819717 6.358898 -32.021919
v 192.094711 7.466898 -23.484919
v 192.040710 7.614898 -23.735920
v 191.984711 7.754898 -23.999920
v 191.927719 7.857898 -24.266918
v 191.869720 7.880898 -24.543919
v 191.809723 7.878898 -24.824919
v 191.748718 7.852898 -25.110920
v 191.686722 7.842898 -25.403919
v 191.623718 7.806898 -25.698919
v 191.559723 7.744898 -26.000919
v 191.495712 7.671898 -26.302919
v 191.429718 7.552898 -26.610920
v 191.364716 7.386899 -26.918919
v 191.297714 7.183898 -27.229919
v 191.231720 7.011898 -27.541920
v 191.165710 6.933898 -27.854919
v 191.098724 6.966898 -28.166920
v 191.032715 7.131898 -28.478920
v 190.966721 7.320898 -28.790920
v 190.900711 7.537898 -29.099918
v 190.835724 7.719898 -29.407919
v 190.770721 7.836898 -29.712919
v 190.706711 7.804898 -30.013920
v 190.642715 7.655898 -30.312920
v 190.580719 7.436898 -30.604919
v 190.518723 7.187898 -30.895920
v 190.458725 6.945899 -31.177919
v 190.399719 6.729898 -31.458920
v 190.342712 6.538898 -31.726919
v 190.285721 6.397899 -31.993919
v 190.231720 6.265898 -32.248920
v 192.828720 6.521898 -22.194920
v 192.771713 6.678898 -22.459919
v 192.714722 6.852898 -22.731918
v 192.655716 7.031898 -23.009918
v 192.595718 7.202898 -23.288919
v 192.534714 7.391898 -23.576920
v 192.473724 7.588898 -23.864920
v 192.410721 7.762898 -24.158920
v 192.347717 7.864898 -24.456919
v 192.284714 7.891898 -24.754919
v 192.219711 7.865898 -25.058920
v 192.154724 7.865898 -25.362919
v 192.089722 7.818898 -25.670919
v 192.023712 7.717898 -25.979919
v 191.957718 7.573898 -26.289919
v 191.891724 7.377898 -26.601919
v 191.825714 7.004898 -26.914919
v 191.758713 6.705898 -27.227919
v 191.692719 6.539898 -27.540920
v 191.625717 6.493898 -27.852919
v 191.559723 6.553898 -28.165920
v 191.492722 6.817898 -28.477919
v 191.427719 7.113898 -28.786919
v 191.361725 7.390898 -29.095921
v 191.296722 7.584898 -29.401920
v 191.231720 7.689898 -29.705919
v 191.167725 7.668898 -30.009918
v 191.104721 7.538898 -30.306919
v 191.041718 7.342898 -30.602921
v 190.979721 7.133898 -30.894920
v 190.917725 6.898898 -31.182919
v 190.856720 6.700898 -31.469919
v 190.797714 6.541898 -31.747919
v 190.738724 6.415898 -32.025917
v 190.681717 6.274899 -32.293919
v 193.257721 6.416898 -22.340919
v 193.199722 6.604898 -22.613918
v 193.139725 6.801898 -22.893919
v 193.078720 7.004898 -23.179920
v 193.017715 7.219898 -23.467918
v 192.954712 7.441898 -23.764919
v 192.891724 7.649898 -24.061920
v 192.826721 7.816898 -24.365919
v 192.761719 7.917898 -24.671919
v 192.696716 7.932898 -24.980919
v 192.629715 7.912899 -25.293919
v 192.562714 7.844898 -25.607920
v 192.495712 7.694898 -25.925919
v 192.427719 7.462898 -26.243919
v 192.359711 7.120898 -26.563919
v 192.291718 6.571898 -26.885920
v 192.222717 6.225898 -27.207920
v 192.154724 6.089898 -27.529919
v 192.085724 6.094898 -27.851919
v 192.017715 6.178898 -28.172920
v 191.949722 6.388898 -28.494919
v 191.881714 6.716898 -28.813919
v 191.813721 7.024899 -29.131920
v 191.746719 7.256898 -29.448919
v 191.679718 7.348898 -29.761919
v 191.613724 7.395898 -30.075920
v 191.548721 7.311898 -30.381920
v 191.483719 7.157898 -30.686920
v 191.419724 6.968898 -30.988918
v 191.356720 6.782898 -31.285919
v 191.293716 6.625898 -31.581921
v 191.232712 6.522898 -31.867920
v 191.171722 6.414898 -32.153919
v 191.112717 6.284898 -32.430920
v 193.685715 6.420898 -22.488918
v 193.629715 6.607898 -22.753920
v 193.571716 6.789898 -23.025919
v 193.512726 6.988898 -23.303919
v 193.453720 7.202899 -23.582920
v 193.392715 7.411899 -23.870918
v 193.330719 7.589898 -24.158920
v 193.268723 7.738898 -24.452919
v 193.205719 7.853898 -24.749920
v 193.141724 7.928898 -25.048920
v 193.077713 7.902898 -25.352919
v 193.012726 7.784898 -25.656919
v 192.947723 7.567898 -25.964920
v 192.881714 7.175898 -26.273918
v 192.815720 6.567898 -26.583920
v 192.749725 6.035898 -26.895920
v 192.682724 5.700898 -27.207920
v 192.616714 5.566898 -27.520920
v 192.549713 5.580898 -27.833920
v 192.483719 5.716898 -28.146919
v 192.416718 5.935898 -28.458920
v 192.350723 6.245898 -28.770920
v 192.284714 6.570898 -29.079918
v 192.219711 6.816898 -29.389919
v 192.154724 6.862898 -29.695919
v 192.089722 6.909898 -29.999920
v 192.025711 6.919898 -30.302919
v 191.961716 6.905898 -30.599918
v 191.898712 6.820898 -30.895920
v 191.837723 6.715899 -31.186920
v 191.775711 6.621898 -31.475918
v 191.714722 6.574898 -31.761919
v 191.655716 6.538898 -32.039917
v 191.596725 6.384898 -32.317917
v 191.539719 6.214898 -32.584919
v 194.113724 6.552898 -22.639919
v 194.057724 6.730898 -22.904919
v 193.999725 6.904898 -23.176920
v 193.940720 7.100898 -23.454920
v 193.881714 7.265898 -23.732920
v 193.820724 7.426898 -24.020920
v 193.759720 7.564898 -24.309919
v 193.696716 7.678898 -24.603920
v 193.633713 7.758898 -24.900919
v 193.569717 7.786898 -25.199919
v 193.505722 7.742898 -25.503920
v 193.440720 7.558898 -25.806919
v 193.375717 7.169899 -26.114920
v 193.309723 6.576898 -26.423920
v 193.243713 6.027898 -26.734919
v 193.177719 5.498899 -27.046919
v 193.110718 4.692898 -27.358919
v 193.044724 5.275898 -27.671919
v 192.977722 5.459898 -27.984919
v 192.911713 5.639898 -28.296919
v 192.845718 5.861898 -28.608919
v 192.778717 6.125898 -28.920919
v 192.713715 6.327898 -29.229919
v 192.647720 6.394898 -29.538919
v 192.582718 6.392898 -29.844919
v 192.517715 6.402898 -30.149920
v 192.453720 6.465899 -30.452919
v 192.390717 6.525898 -30.748920
v 192.327713 6.567898 -31.045919
v 192.265717 6.574898 -31.336918
v 192.204712 6.580898 -31.624920
v 192.143723 6.594898 -31.910919
v 192.084717 6.524899 -32.188919
v 192.025711 6.374898 -32.466919
v 191.968719 6.066898 -32.733917
v 194.544724 6.803898 -22.776918
v 194.490723 6.908898 -23.033920
v 194.432724 7.042898 -23.306919
v 194.373718 7.170898 -23.581919
v 194.312714 7.301898 -23.868919
v 194.251724 7.424898 -24.158920
v 194.187714 7.529898 -24.457920
v 194.123718 7.599898 -24.758919
v 194.057724 7.629898 -25.067919
v 193.991714 7.623898 -25.379919
v 193.924713 7.508898 -25.695919
v 193.856720 7.226898 -26.013920
v 193.788712 6.753898 -26.334919
v 193.720718 6.222898 -26.656919
v 193.651718 5.827898 -26.979919
v 193.582718 5.627898 -27.302919
v 193.514725 5.525898 -27.625919
v 193.445724 5.581899 -27.947920
v 193.377716 5.703898 -28.267920
v 193.309723 5.873899 -28.586918
v 193.242722 6.077898 -28.901920
v 193.176712 6.144898 -29.212919
v 193.111725 6.096898 -29.519920
v 193.047714 6.037898 -29.821918
v 192.984711 6.014898 -30.119919
v 192.922714 6.055898 -30.408920
v 192.861725 6.142898 -30.693920
v 192.803711 6.264898 -30.968918
v 192.745712 6.423898 -31.239920
v 194.968719 7.011898 -22.947920
v 194.912720 7.070898 -23.212919
v 194.854721 7.177898 -23.484919
v 194.795715 7.278898 -23.762918
v 194.736725 7.370898 -24.040920
v 194.674713 7.456898 -24.329920
v 194.613724 7.515898 -24.617920
v 194.551712 7.531898 -24.911919
v 194.487717 7.518898 -25.208920
v 194.424713 7.471899 -25.507919
v 194.359711 7.397898 -25.811920
v 194.295715 7.232898 -26.115919
v 194.229721 6.886898 -26.423920
v 194.164719 6.505898 -26.732920
v 194.098724 6.175899 -27.042919
v 194.031723 6.002898 -27.354919
v 193.965714 5.908898 -27.666920
v 193.898712 5.897898 -27.979919
v 193.832718 5.970898 -28.292919
v 193.766724 6.084898 -28.604919
v 193.699722 6.205898 -28.916920
v 193.633713 6.169898 -29.229919
v 193.567719 6.014898 -29.538919
v 193.501724 5.885898 -29.847919
v 193.436722 5.838898 -30.153919
v 193.372711 5.854898 -30.457920
v 193.307724 5.933898 -30.761919
v 193.244720 6.100898 -31.058918
v 193.181717 6.309898 -31.354919
v 193.119720 6.482898 -31.646919
v 193.058716 6.542898 -31.934919
v 192.997711 6.604898 -32.221920
v 192.938721 6.611898 -32.499920
v 192.879715 6.508898 -32.777920
v 192.822723 6.202898 -33.045921
v 195.395721 7.106898 -23.103920
v 195.337723 7.170898 -23.376919
v 195.277725 7.272898 -23.657919
v 195.216721 7.356898 -23.943920
v 195.155716 7.441898 -24.232920
v 195.092712 7.476898 -24.529919
v 195.029724 7.486898 -24.826920
v 194.964722 7.469898 -25.130920
v 194.899719 7.429898 -25.436920
v 194.833725 7.365898 -25.745918
v 194.767715 7.295898 -26.058920
v 194.700714 7.172898 -26.371920
v 194.633713 6.922898 -26.689919
v 194.565720 6.648898 -27.008919
v 194.497711 6.463898 -27.328918
v 194.429718 6.356898 -27.649920
v 194.360718 6.317898 -27.971920
v 194.292725 6.360898 -28.293919
v 194.223724 6.450898 -28.615919
v 194.155716 6.553898 -28.936920
v 194.087723 6.346898 -29.257919
v 194.019714 6.089898 -29.577919
v 193.951721 5.880898 -29.895920
v 193.884720 5.817898 -30.213921
v 193.817719 5.825898 -30.526920
v 193.751724 5.902898 -30.839920
v 193.685715 6.093898 -31.147919
v 193.620712 6.319898 -31.452919
v 193.556717 6.512898 -31.755920
v 193.493713 6.585898 -32.052917
v 193.429718 6.606898 -32.350918
v 193.369720 6.627898 -32.637920
v 193.308716 6.595898 -32.923920
v 193.248718 6.287898 -33.202919
v 195.821716 7.156898 -23.261919
v 195.765717 7.207898 -23.527920
v 195.707718 7.297898 -23.799919
v 195.648712 7.377898 -24.078918
v 195.589722 7.449898 -24.357920
v 195.527725 7.484899 -24.645920
v 195.466721 7.474898 -24.934919
v 195.403717 7.452898 -25.228920
v 195.340714 7.409898 -25.525919
v 195.277725 7.353899 -25.823919
v 195.212723 7.292898 -26.128920
v 195.147720 7.200898 -26.432919
v 195.082718 7.072898 -26.739920
v 195.016724 6.912898 -27.048920
v 194.951721 6.797898 -27.358919
v 194.884720 6.773898 -27.670919
v 194.818726 6.797898 -27.983919
v 194.751724 6.865898 -28.295919
v 194.685715 6.962898 -28.608919
v 194.618713 7.057899 -28.921919
v 194.552719 6.912898 -29.233919
v 194.486725 6.544898 -29.545919
v 194.420715 6.167898 -29.855919
v 194.354721 5.951898 -30.164919
v 194.289719 5.909898 -30.471920
v 194.224716 5.960898 -30.775919
v 194.159714 6.102898 -31.080919
v 194.096710 6.309898 -31.378920
v 194.033722 6.560898 -31.675919
v 193.971710 6.659898 -31.968918
v 193.909714 6.677898 -32.257919
v 193.848724 6.678898 -32.546921
v 193.789719 6.675898 -32.825920
v 193.729721 6.616899 -33.103920
v 193.671722 6.272898 -33.376919
v 196.247711 7.224898 -23.421919
v 196.191711 7.308898 -23.687920
v 196.133713 7.408898 -23.960918
v 196.074722 7.528898 -24.238918
v 196.014725 7.580898 -24.517920
v 195.953720 7.607898 -24.806919
v 195.892715 7.591898 -25.095919
v 195.829712 7.551898 -25.389919
v 195.766724 7.497899 -25.686920
v 195.703720 7.431898 -25.985920
v 195.638718 7.356898 -26.289919
v 195.573715 7.255898 -26.593920
v 195.508713 7.101898 -26.900919
v 195.442719 6.976898 -27.209919
v 195.376724 6.924898 -27.519920
v 195.310715 6.949899 -27.831919
v 195.244720 7.054898 -28.143919
v 195.177719 7.190898 -28.456919
v 195.111725 7.277898 -28.769920
v 195.044724 7.312898 -29.082920
v 194.978714 7.195898 -29.394920
v 194.911713 6.908898 -29.707920
v 194.846710 6.502898 -30.017920
v 194.780716 6.304898 -30.326920
v 194.714722 6.224898 -30.633919
v 194.650711 6.265898 -30.938919
v 194.585724 6.409898 -31.242920
v 194.522720 6.637898 -31.541920
v 194.458725 6.804898 -31.838921
v 194.396713 6.885899 -32.132919
v 194.334717 6.841898 -32.421921
v 194.273712 6.774898 -32.711918
v 194.213715 6.727899 -32.991920
v 194.154724 6.629898 -33.270920
v 194.096710 6.345898 -33.544918
v 194.039719 5.968898 -33.810921
v 196.673721 7.264898 -23.583920
v 196.616714 7.428898 -23.850920
v 196.558716 7.575898 -24.123919
v 196.499725 7.694898 -24.402920
v 196.440720 7.800898 -24.681919
v 196.378723 7.834898 -24.970919
v 196.317719 7.826898 -25.259918
v 196.254715 7.784898 -25.553919
v 196.191711 7.717898 -25.850920
v 196.128723 7.644898 -26.148918
v 196.063721 7.557898 -26.453918
v 195.998718 7.458898 -26.757919
v 195.933716 7.303898 -27.064919
v 195.867722 7.139898 -27.373919
v 195.802719 7.069898 -27.683920
v 195.735718 7.152898 -27.995918
v 195.669724 7.321898 -28.307919
v 195.602722 7.479898 -28.620918
v 195.536713 7.604898 -28.933918
v 195.469711 7.545898 -29.247919
v 195.403717 7.424898 -29.559919
v 195.337723 7.179898 -29.871920
v 195.271713 6.940898 -30.181919
v 195.205719 6.701899 -30.490919
v 195.139725 6.678898 -30.798920
v 195.075714 6.743898 -31.102921
v 195.010712 6.899899 -31.407919
v 194.946716 7.080898 -31.706921
v 194.883713 7.206898 -32.004921
v 194.820724 7.181898 -32.299919
v 194.759720 7.080898 -32.588921
v 194.697723 6.925898 -32.878922
v 194.638718 6.808898 -33.159920
v 194.578720 6.658898 -33.438919
v 194.520721 6.386898 -33.714920
v 194.463715 5.930899 -33.980919
v 184.901718 3.009898 -20.528919
v 185.901718 3.009898 -20.528919
v 184.901718 4.009898 -20.528919
v 184.901718 3.009898 -21.528919
l 1 928
l 2 929
l 3 930
l 4 931
l 5 932
l 6 933
l 7 934
l 8 935
l 9 936
l 10 937
l 11 938
l 12 939
l 13 940
l 14 941
l 15 942
l 16 943
l 17 944
l 18 945
l 19 946
l 20 947
l 21 948
l 22 949
l 23 950
l 24 951
l 25 952
l 26 953
l 27 954
l 28 955
l 29 956
l 30 957
l 31 958
l 32 959
l 33 960
l 34 961
l 35 962
l 36 963
l 37 964
l 38 965
l 39 966
l 40 967
l 41 968
l 42 969
l 43 970
l 44 971
l 45 972
l 46 973
l 47 974
l 48 975
l 49 976
l 50 977
l 51 978
l 52 979
l 53 980
l 54 981
l 55 982
l 56 983
l 57 984
l 58 985
l 59 986
l 60 987
l 61 988
l 62 989
l 63 990
l 64 991
l 65 992
l 66 993
l 67 994
l 68 995
l 69 996
l 70 997
l 71 998
l 72 999
l 73 1000
l 74 1001
l 75 1002
l 76 1003
l 77 1004
l 78 1005
l 79 1006
l 80 1007
l 81 1008
l 82 1009
l 83 1010
l 84 1011
l 85 1012
l 86 1013
l 87 1014
l 88 1015
l 89 1016
l 90 1017
l 91 1018
l 92 1019
l 93 1020
l 94 1021
l 95 1022
l 96 1023
l 97 1024
l 98 1025
l 99 1026
l 100 1027
l 101 1028
l 102 1029
l 103 1030
l 104 1031
l 105 1032
l 106 1033
l 107 1034
l 108 1035
l 109 1036
l 110 1037
l 111 1038
l 112 1039
l 113 1040
l 114 1041
l 115 1042
l 116 1043
l 117 1044
l 118 1045
l 119 1046
l 120 1047
l 121 1048
l 122 1049
l 123 1050
l 124 1051
l 125 1052
l 126 1053
l 127 1054
l 128 1055
l 129 1056
l 130 1057
l 131 1058
l 132 1059
l 133 1060
l 134 1061
l 135 1062
l 136 1063
l 137 1064
l 138 1065
l 139 1066
l 140 1067
l 141 1068
l 142 1069
l 143 1070
l 144 1071
l 145 1072
l 146 1073
l 147 1074
l 148 1075
l 149 1076
l 150 1077
l 151 1078
l 152 1079
l 153 1080
l 154 1081
l 155 1082
l 156 1083
l 157 1084
l 158 1085
l 159 1086
l 160 1087
l 161 1088
l 162 1089
l 163 1090
l 164 1091
l 165 1092
l 166 1093
l 167 1094
l 168 1095
l 169 1096
l 170 1097
l 171 1098
l 172 1099
l 173 1100
l 174 1101
l 175 1102
l 176 1103
l 177 1104
l 178 1105
l 179 1106
l 180 1107
l 181 1108
l 182 1109
l 183 1110
l 184 1111
l 185 1112
l 186 1113
l 187 1114
l 188 1115
l 189 1116
l 190 1117
l 191 1118
l 192 1119
l 193 1120
l 194 1121
l 195 1122
l 196 1123
l 197 1124
l 198 1125
l 199 1126
l 200 1127
l 201 1128
l 202 1129
l 203 1130
l 204 1131
l 205 1132
l 206 1133
l 207 1134
l 208 1135
l 209 1136
l 210 1137
l 211 1138
l 212 1139
l 213 1140
l 214 1141
l 215 1142
l 216 1143
l 217 1144
l 218 1145
l 219 1146
l 220 1147
l 221 1148
l 222 1149
l 223 1150
l 224 1151
l 225 1152
l 226 1153
l 227 1154
l 228 1155
l 229 1156
l 230 1157
l 231 1158
l 232 1159
l 233 1160
l 234 1161
l 235 1162
l 236 1163
l 237 1164
l 238 1165
l 239 1166
l 240 1167
l 241 1168
l 242 1169
l 243 1170
l 244 1171
l 245 1172
l 246 1173
l 247 1174
l 248 1175
l 249 1176
l 250 1177
l 251 1178
l 252 1179
l 253 1180
l 254 1181
l 255 1182
l 256 1183
l 257 1184
l 258 1185
l 259 1186
l 260 1187
l 261 1188
l 262 1189
l 263 1190
l 264 1191
l 265 1192
l 266 1193
l 267 1194
l 268 1195
l 269 1196
l 270 1197
l 271 1198
l 272 1199
l 273 1200
l 274 1201
l 275 1202
l 276 1203
l 277 1204
l 278 1205
l 279 1206
l 280 1207
l 281 1208
l 282 1209
l 283 1210
l 284 1211
l 285 1212
l 286 1213
l 287 1214
l 288 1215
l 289 1216
l 290 1217
l 291 1218
l 292 1219
l 293 1220
l 294 1221
l 295 1222
l 296 1223
l 297 1224
l 298 1225
l 299 1226
l 300 1227
l 301 1228
l 302 1229
l 303 1230
l 304 1231
l 305 1232
l 306 1233
l 307 1234
l 308 1235
l 309 1236
l 310 1237
l 311 1238
l 312 1239
l 313 1240
l 314 1241
l 315 1242
l 316 1243
l 317 1244
l 318 1245
l 319 1246
l 320 1247
l 321 1248
l 322 1249
l 323 1250
l 324 1251
l 325 1252
l 326 1253
l 327 1254
l 328 1255
l 329 1256
l 330 1257
l 331 1258
l 332 1259
l 333 1260
l 334 1261
l 335 1262
l 336 1263
l 337 1264
l 338 1265
l 339 1266
l 340 1267
l 341 1268
l 342 1269
l 343 1270
l 344 1271
l 345 1272
l 346 1273
l 347 1274
l 348 1275
l 349 1276
l 350 1277
l 351 1278
l 352 1279
l 353 1280
l 354 1281
l 355 1282
l 356 1283
l 357 1284
l 358 1285
l 359 1286
l 360 1287
l 361 1288
l 362 1289
l 363 1290
l 364 1291
l 365 1292
l 366 1293
l 367 1294
l 368 1295
l 369 1296
l 370 1297
l 371 1298
l 372 1299
l 373 1300
l 374 1301
l 375 1302
l 376 1303
l 377 1304
l 378 1305
l 379 1306
l 380 1307
l 381 1308
l 382 1309
l 383 1310
l 384 1311
l 385 1312
l 386 1313
l 387 1314
l 388 1315
l 389 1316
l 390 1317
l 391 1318
l 392 1319
l 393 1320
l 394 1321
l 395 1322
l 396 1323
l 397 1324
l 398 1325
l 399 1326
l 400 1327
l 401 1328
l 402 1329
l 403 1330
l 404 1331
l 405 1332
l 406 1333
l 407 1334
l 408 1335
l 409 1336
l 410 1337
l 411 1338
l 412 1339
l 413 1340
l 414 1341
l 415 1342
l 416 1343
l 417 1344
l 418 1345
l 419 1346
l 420 1347
l 421 1348
l 422 1349
l 423 1350
l 424 1351
l 425 1352
l 426 1353
l 427 1354
l 428 1355
l 429 1356
l 430 1357
l 431 1358
l 432 1359
l 433 1360
l 434 1361
l 435 1362
l 436 1363
l 437 1364
l 438 1365
l 439 1366
l 440 1367
l 441 1368
l 442 1369
l 443 1370
l 444 1371
l 445 1372
l 446 1373
l 447 1374
l 448 1375
l 449 1376
l 450 1377
l 451 1378
l 452 1379
l 453 1380
l 454 1381
l 455 1382
l 456 1383
l 457 1384
l 458 1385
l 459 1386
l 460 1387
l 461 1388
l 462 1389
l 463 1390
l 464 1391
l 465 1392
l 466 1393
l 467 1394
l 468 1395
l 469 1396
l 470 1397
l 471 1398
l 472 1399
l 473 1400
l 474 1401
l 475 1402
l 476 1403
l 477 1404
l 478 1405
l 479 1406
l 480 1407
l 481 1408
l 482 1409
l 483 1410
l 484 1411
l 485 1412
l 486 1413
l 487 1414
l 488 1415
l 489 1416
l 490 1417
l 491 1418
l 492 1419
l 493 1420
l 494 1421
l 495 1422
l 496 1423
l 497 1424
l 498 1425
l 499 1426
l 500 1427
l 501 1428
l 502 1429
l 503 1430
l 504 1431
l 505 1432
l 506 1433
l 507 1434
l 508 1435
l 509 1436
l 510 1437
l 511 1438
l 512 1439
l 513 1440
l 514 1441
l 515 1442
l 516 1443
l 517 1444
l 518 1445
l 519 1446
l 520 1447
l 521 1448
l 522 1449
l 523 1450
l 524 1451
l 525 1452
l 526 1453
l 527 1454
l 528 1455
l 529 1456
l 530 1457
l 531 1458
l 532 1459
l 533 1460
l 534 1461
l 535 1462
l 536 1463
l 537 1464
l 538 1465
l 539 1466
l 540 1467
l 541 1468
l 542 1469
l 543 1470
l 544 1471
l 545 1472
l 546 1473
l 547 1474
l 548 1475
l 549 1476
l 550 1477
l 551 1478
l 552 1479
l 553 1480
l 554 1481
l 555 1482
l 556 1483
l 557 1484
l 558 1485
l 559 1486
l 560 1487
l 561 1488
l 562 1489
l 563 1490
l 564 1491
l 565 1492
l 566 1493
l 567 1494
l 568 1495
l 569 1496
l 570 1497
l 571 1498
l 572 1499
l 573 1500
l 574 1501
l 575 1502
l 576 1503
l 577 1504
l 578 1505
l 579 1506
l 580 1507
l 581 1508
l 582 1509
l 583 1510
l 584 1511
l 585 1512
l 586 1513
l 587 1514
l 588 1515
l 589 1516
l 590 1517
l 591 1518
l 592 1519
l 593 1520
l 594 1521
l 595 1522
l 596 1523
l 597 1524
l 598 1525
l 599 1526
l 600 1527
l 601 1528
l 602 1529
l 603 1530
l 604 1531
l 605 1532
l 606 1533
l 607 1534
l 608 1535
l 609 1536
l 610 1537
l 611 1538
l 612 1539
l 613 1540
l 614 1541
l 615 1542
l 616 1543
l 617 1544
l 618 1545
l 619 1546
l 620 1547
l 621 1548
l 622 1549
l 623 1550
l 624 1551
l 625 1552
l 626 1553
l 627 1554
l 628 1555
l 629 1556
l 630 1557
l 631 1558
l 632 1559
l 633 1560
l 634 1561
l 635 1562
l 636 1563
l 637 1564
l 638 1565
l 639 1566
l 640 1567
l 641 1568
l 642 1569
l 643 1570
l 644 1571
l 645 1572
l 646 1573
l 647 1574
l 648 1575
l 649 1576
l 650 1577
l 651 1578
l 652 1579
l 653 1580
l 654 1581
l 655 1582
l 656 1583
l 657 1584
l 658 1585
l 659 1586
l 660 1587
l 661 1588
l 662 1589
l 663 1590
l 664 1591
l 665 1592
l 666 1593
l 667 1594
l 668 1595
l 669 1596
l 670 1597
l 671 1598
l 672 1599
l 673 1600
l 674 1601
l 675 1602
l 676 1603
l 677 1604
l 678 1605
l 679 1606
l 680 1607
l 681 1608
l 682 1609
l 683 1610
l 684 1611
l 685 1612
l 686 1613
l 687 1614
l 688 1615
l 689 1616
l 690 1617
l 691 1618
l 692 1619
l 693 1620
l 694 1621
l 695 1622
l 696 1623
l 697 1624
l 698 1625
l 699 1626
l 700 1627
l 701 1628
l 702 1629
l 703 1630
l 704 1631
l 705 1632
l 706 1633
l 707 1634
l 708 1635
l 709 1636
l 710 1637
l 711 1638
l 712 1639
l 713 1640
l 714 1641
l 715 1642
l 716 1643
l 717 1644
l 718 1645
l 719 1646
l 720 1647
l 721 1648
l 722 1649
l 723 1650
l 724 1651
l 725 1652
l 726 1653
l 727 1654
l 728 1655
l 729 1656
l 730 1657
l 731 1658
l 732 1659
l 733 1660
l 734 1661
l 735 1662
l 736 1663
l 737 1664
l 738 1665
l 739 1666
l 740 1667
l 741 1668
l 742 1669
l 743 1670
l 744 1671
l 745 1672
l 746 1673
l 747 1674
l 748 1675
l 749 1676
l 750 1677
l 751 1678
l 752 1679
l 753 1680
l 754 1681
l 755 1682
l 756 1683
l 757 1684
l 758 1685
l 759 1686
l 760 1687
l 761 1688
l 762 1689
l 763 1690
l 764 1691
l 765 1692
l 766 1693
l 767 1694
l 768 1695
l 769 1696
l 770 1697
l 771 1698
l 772 1699
l 773 1700
l 774 1701
l 775 1702
l 776 1703
l 777 1704
l 778 1705
l 779 1706
l 780 1707
l 781 1708
l 782 1709
l 783 1710
l 784 1711
l 785 1712
l 786 1713
l 787 1714
l 788 1715
l 789 1716
l 790 1717
l 791 1718
l 792 1719
l 793 1720
l 794 1721
l 795 1722
l 796 1723
l 797 1724
l 798 1725
l 799 1726
l 800 1727
l 801 1728
l 802 1729
l 803 1730
l 804 1731
l 805 1732
l 806 1733
l 807 1734
l 808 1735
l 809 1736
l 810 1737
l 811 1738
l 812 1739
l 813 1740
l 814 1741
l 815 1742
l 816 1743
l 817 1744
l 818 1745
l 819 1746
l 820 1747
l 821 1748
l 822 1749
l 823 1750
l 824 1751
l 825 1752
l 826 1753
l 827 1754
l 828 1755
l 829 1756
l 830 1757
l 831 1758
l 832 1759
l 833 1760
l 834 1761
l 835 1762
l 836 1763
l 837 1764
l 838 1765
l 839 1766
l 840 1767
l 841 1768
l 842 1769
l 843 1770
l 844 1771
l 845 1772
l 846 1773
l 847 1774
l 848 1775
l 849 1776
l 850 1777
l 851 1778
l 852 1779
l 853 1780
l 854 1781
l 855 1782
l 856 1783
l 857 1784
l 858 1785
l 859 1786
l 860 1787
l 861 1788
l 862 1789
l 863 1790
l 864 1791
l 865 1792
l 866 1793
l 867 1794
l 868 1795
l 869 1796
l 870 1797
l 871 1798
l 872 1799
l 873 1800
l 874 1801
l 875 1802
l 876 1803
l 877 1804
l 878 1805
l 879 1806
l 880 1807
l 881 1808
l 882 1809
l 883 1810
l 884 1811
l 885 1812
l 886 1813
l 887 1814
l 888 1815
l 889 1816
l 890 1817
l 891 1818
l 892 1819
l 893 1820
l 894 1821
l 895 1822
l 896 1823
l 897 1824
l 898 1825
l 899 1826
l 900 1827
l 901 1828
l 902 1829
l 903 1830
l 904 1831
l 905 1832
l 906 1833
l 907 1834
l 908 1835
l 909 1836
l 910 1837
l 911 1838
l 912 1839
l 913 1840
l 914 1841
l 915 1842
l 916 1843
l 917 1844
l 918 1845
l 919 1846
l 920 1847
l 921 1848
l 922 1849
l 923 1850
l 924 1851
l 925 1852
l 926 1853
l 927 1854
