# Blender 5.0.0
# www.blender.org
mtllib GridBased_BulbCables_GlobalPos.mtl
o GridBased_BulbCables_GlobalPos
v 0.000000 0.000000 0.000000
v 1.000000 0.000000 0.000000
v 0.000000 0.000000 0.000000
v 0.000000 -0.000000 -1.000000
v 0.000000 0.000000 0.000000
v 0.000000 1.000000 -0.000000
v 184.901718 3.009896 -20.528919
v 185.901718 3.009896 -20.528919
v 184.901718 3.009896 -20.528919
v 184.901718 3.009896 -21.528919
v 184.901718 3.009896 -20.528919
v 184.901718 4.009897 -20.528919
v 184.881226 9.210669 -20.625332
v 184.881226 6.538959 -20.625332
v 184.814697 9.003876 -20.938339
v 184.814697 6.977344 -20.938339
v 184.748169 8.829981 -21.251347
v 184.748169 7.384197 -21.251347
v 184.681625 8.658573 -21.564354
v 184.681625 7.718038 -21.564354
v 184.615097 8.513815 -21.877361
v 184.615097 7.736786 -21.877361
v 184.548569 8.374808 -22.190369
v 184.548569 7.596571 -22.190369
v 184.482040 8.254806 -22.503376
v 184.482040 7.346563 -22.503376
v 184.415497 8.145970 -22.816383
v 184.415497 6.972456 -22.816383
v 184.348969 8.047594 -23.129389
v 184.348969 6.449735 -23.129389
v 184.282440 7.967288 -23.442396
v 184.282440 6.098933 -23.442396
v 184.215912 7.888295 -23.755404
v 184.215912 6.047645 -23.755404
v 184.149368 7.835366 -24.068411
v 184.149368 6.152346 -24.068411
v 184.082840 7.782436 -24.381418
v 184.082840 6.363776 -24.381418
v 184.016312 7.747878 -24.694426
v 184.016312 6.607752 -24.694426
v 183.949783 7.721592 -25.007433
v 183.949783 6.736389 -25.007433
v 183.883255 7.703375 -25.320440
v 183.883255 6.811848 -25.320440
v 183.816711 7.703375 -25.633448
v 183.816711 6.979229 -25.633448
v 183.750183 7.703375 -25.946455
v 183.750183 7.211756 -25.946455
v 183.683655 7.727465 -26.259462
v 183.683655 7.429989 -26.259462
v 183.617126 7.753750 -26.572470
v 183.617126 7.602772 -26.572470
v 183.550583 7.794262 -26.885475
v 183.550583 7.691460 -26.885475
v 183.484055 7.847191 -27.198483
v 183.484055 7.721495 -27.198483
v 183.417526 7.904923 -27.511492
v 183.417526 7.698565 -27.511492
v 183.350998 7.985230 -27.824497
v 183.350998 7.623994 -27.824497
v 183.284470 8.065536 -28.137505
v 183.284470 7.508338 -28.137505
v 183.217926 8.170286 -28.450512
v 183.217926 7.342083 -28.450512
v 183.151398 8.279122 -28.763519
v 183.151398 7.137030 -28.763519
v 183.084869 8.405867 -29.076527
v 183.084869 6.903297 -29.076527
v 183.018341 8.544872 -29.389534
v 183.018341 6.651583 -29.389534
v 182.951797 8.696871 -29.702541
v 182.951797 6.409974 -29.702541
v 182.885269 8.868279 -30.015549
v 182.885269 6.194530 -30.015549
v 182.818741 9.050079 -30.328556
v 182.818741 5.996335 -30.328556
v 185.302399 9.108660 -20.808231
v 185.302399 6.693279 -20.808231
v 185.235870 8.917601 -21.121239
v 185.235870 7.031392 -21.121239
v 185.169342 8.746944 -21.434246
v 185.169342 7.326290 -21.434246
v 185.102814 8.586061 -21.747253
v 185.102814 7.450047 -21.747253
v 185.036270 8.447634 -22.060261
v 185.036270 7.355945 -22.060261
v 184.969742 8.312256 -22.373268
v 184.969742 7.104648 -22.373268
v 184.903214 8.203855 -22.686275
v 184.903214 6.822191 -22.686275
v 184.836685 8.095451 -22.999283
v 184.836685 6.394658 -22.999283
v 184.770142 8.010612 -23.312290
v 184.770142 6.068745 -23.312290
v 184.703613 7.930616 -23.625298
v 184.703613 5.894109 -23.625298
v 184.637085 7.864313 -23.938305
v 184.637085 5.920318 -23.938305
v 184.570557 7.811584 -24.251312
v 184.570557 6.079999 -24.251312
v 184.504028 7.762444 -24.564320
v 184.504028 6.373011 -24.564320
v 184.437485 7.736257 -24.877327
v 184.437485 6.592427 -24.877327
v 184.370956 7.710069 -25.190334
v 184.370956 6.721480 -25.190334
v 184.304428 7.703374 -25.503340
v 184.304428 6.805455 -25.503340
v 184.237900 7.703374 -25.816347
v 184.237900 6.998111 -25.816347
v 184.171356 7.712422 -26.129354
v 184.171356 7.268240 -26.129354
v 184.104828 7.738610 -26.442362
v 184.104828 7.485433 -26.442362
v 184.038300 7.764798 -26.755369
v 184.038300 7.647544 -26.755369
v 183.971771 7.816321 -27.068377
v 183.971771 7.735843 -27.068377
v 183.905228 7.869050 -27.381384
v 183.905228 7.754505 -27.381384
v 183.838699 7.937802 -27.694391
v 183.838699 7.708577 -27.694391
v 183.772171 8.017798 -28.007399
v 183.772171 7.647297 -28.007399
v 183.705643 8.105190 -28.320406
v 183.705643 7.542754 -28.320406
v 183.639114 8.213593 -28.633413
v 183.639114 7.374496 -28.633413
v 183.572571 8.321994 -28.946419
v 183.572571 7.156320 -28.946419
v 183.506042 8.460070 -29.259426
v 183.506042 6.911683 -29.259426
v 183.439514 8.598497 -29.572433
v 183.439514 6.653143 -29.572433
v 183.372986 8.762276 -29.885441
v 183.372986 6.412769 -29.885441
v 183.306442 8.932933 -30.198448
v 183.306442 6.198985 -30.198448
v 183.239914 9.127151 -30.511456
v 183.239914 5.934508 -30.511456
v 185.790009 9.212513 -20.678576
v 185.790009 6.576038 -20.678576
v 185.723480 9.007689 -20.991581
v 185.723480 6.799613 -20.991581
v 185.656952 8.834658 -21.304588
v 185.656952 7.034917 -21.304588
v 185.590424 8.664783 -21.617596
v 185.590424 7.213633 -21.617596
v 185.523880 8.520006 -21.930603
v 185.523880 7.212520 -21.930603
v 185.457352 8.382183 -22.243610
v 185.457352 7.002561 -22.243610
v 185.390823 8.261440 -22.556618
v 185.390823 6.680787 -22.556618
v 185.324295 8.153492 -22.869625
v 185.324295 6.320112 -22.869625
v 185.257767 8.053755 -23.182632
v 185.257767 5.992540 -23.182632
v 185.191223 7.974083 -23.495640
v 185.191223 5.790416 -23.495640
v 185.124695 7.894411 -23.808647
v 185.124695 5.789765 -23.808647
v 185.058167 7.840643 -24.121655
v 185.058167 5.903278 -24.121655
v 184.991638 7.788123 -24.434662
v 184.991638 6.115924 -24.434662
v 184.925095 7.750887 -24.747669
v 184.925095 6.377933 -24.747669
v 184.858566 7.724801 -25.060677
v 184.858566 6.575748 -25.060677
v 184.792038 7.703371 -25.373684
v 184.792038 6.681450 -25.373684
v 184.725510 7.703371 -25.686691
v 184.725510 6.785577 -25.686691
v 184.658981 7.703371 -25.999699
v 184.658981 6.974538 -25.999699
v 184.592438 7.723478 -26.312704
v 184.592438 7.241482 -26.312704
v 184.525909 7.749564 -26.625713
v 184.525909 7.471424 -26.625713
v 184.459381 7.785459 -26.938719
v 184.459381 7.664329 -26.938719
v 184.392853 7.837979 -27.251726
v 184.392853 7.790717 -27.251726
v 184.326309 7.890499 -27.564734
v 184.326309 7.822579 -27.564734
v 184.259781 7.970042 -27.877741
v 184.259781 7.809799 -27.877741
v 184.193253 8.049714 -28.190748
v 184.193253 7.796932 -28.190748
v 184.126724 8.148018 -28.503756
v 184.126724 7.705743 -28.503756
v 184.060196 8.255966 -28.816761
v 184.060196 7.531402 -28.816761
v 183.993652 8.375193 -29.129768
v 183.993652 7.335247 -29.129768
v 183.927124 8.513018 -29.442778
v 183.927124 7.110588 -29.442778
v 183.860596 8.656170 -29.755785
v 183.860596 6.890777 -29.755785
v 183.794067 8.826044 -30.068790
v 183.794067 6.620035 -30.068790
v 183.727524 8.997303 -30.381798
v 183.727524 6.332078 -30.381798
v 183.660995 9.202126 -30.694805
v 183.660995 6.140680 -30.694805
v 186.144409 9.105068 -21.175653
v 186.144409 6.932718 -21.175653
v 186.077881 8.910315 -21.488661
v 186.077881 7.104095 -21.488661
v 186.011353 8.735431 -21.801668
v 186.011353 7.075383 -21.801668
v 185.944809 8.573471 -22.114676
v 185.944809 6.898530 -22.114676
v 185.878281 8.431793 -22.427683
v 185.878281 6.643115 -22.427683
v 185.811752 8.297447 -22.740690
v 185.811752 6.317938 -22.740690
v 185.745224 8.186607 -23.053698
v 185.745224 6.002085 -23.053698
v 185.678680 8.076186 -23.366705
v 185.678680 5.829556 -23.366705
v 185.612152 7.994449 -23.679712
v 185.612152 5.768323 -23.679712
v 185.545624 7.912712 -23.992720
v 185.545624 5.818875 -23.992720
v 185.479095 7.851462 -24.305727
v 185.479095 5.968518 -24.305727
v 185.412567 7.797612 -24.618732
v 185.412567 6.180445 -24.618732
v 185.346024 7.754997 -24.931740
v 185.346024 6.378502 -24.931740
v 185.279495 7.728259 -25.244747
v 185.279495 6.578275 -25.244747
v 185.212967 7.703384 -25.557755
v 185.212967 6.728489 -25.557755
v 185.146439 7.703385 -25.870762
v 185.146439 6.837751 -25.870762
v 185.079895 7.703385 -26.183769
v 185.079895 7.000559 -26.183769
v 185.013367 7.722548 -26.496777
v 185.013367 7.151570 -26.496777
v 184.946838 7.749286 -26.809784
v 184.946838 7.352657 -26.809784
v 184.880310 7.786108 -27.122791
v 184.880310 7.568179 -27.122791
v 184.813782 7.839959 -27.435799
v 184.813782 7.724954 -27.435799
v 184.747238 7.895251 -27.748806
v 184.747238 7.771595 -27.748806
v 184.680710 7.976988 -28.061813
v 184.680710 7.733992 -28.061813
v 184.614182 8.058725 -28.374821
v 184.614182 7.720451 -28.374821
v 184.547653 8.162928 -28.687828
v 184.547653 7.640973 -28.687828
v 184.481110 8.273768 -29.000835
v 184.481110 7.521428 -29.000835
v 184.414581 8.401527 -29.313843
v 184.414581 7.400208 -29.313843
v 184.348053 8.543205 -29.626850
v 184.348053 7.274601 -29.626850
v 184.281525 8.698072 -29.939857
v 184.281525 7.121283 -29.939857
v 184.214996 8.872955 -30.252865
v 184.214996 6.926300 -30.252865
v 184.148453 9.059937 -30.565872
v 184.148453 6.669539 -30.565872
v 186.365448 8.843651 -22.300140
v 186.365448 6.709052 -22.300140
v 186.298920 8.657305 -22.613148
v 186.298920 6.327533 -22.613148
v 186.232376 8.475977 -22.926155
v 186.232376 6.018627 -22.926155
v 186.165848 8.326615 -23.239162
v 186.165848 5.810018 -23.239162
v 186.099319 8.183145 -23.552170
v 186.099319 5.727770 -23.552170
v 186.032791 8.067759 -23.865177
v 186.032791 5.749972 -23.865177
v 185.966263 7.956705 -24.178185
v 185.966263 5.877185 -24.178185
v 185.899719 7.873138 -24.491192
v 185.899719 6.109971 -24.491192
v 185.833191 7.790813 -24.804199
v 185.833191 6.381262 -24.804199
v 185.766663 7.737589 -25.117207
v 185.766663 6.640790 -25.117207
v 185.700134 7.684366 -25.430212
v 185.700134 6.832189 -25.430212
v 185.633591 7.657777 -25.743221
v 185.633591 6.933415 -25.743221
v 185.567062 7.633993 -26.056229
v 185.567062 6.978829 -26.056229
v 185.500534 7.631851 -26.369234
v 185.500534 7.037648 -26.369234
v 185.434006 7.637113 -26.682241
v 185.434006 7.123142 -26.682241
v 185.367477 7.659266 -26.995249
v 185.367477 7.272849 -26.995249
v 185.300934 7.693660 -27.308256
v 185.300934 7.490455 -27.308256
v 185.234406 7.740730 -27.621264
v 185.234406 7.486022 -27.621264
v 185.167877 7.804830 -27.934271
v 185.167877 7.423801 -27.934271
v 185.101349 7.878275 -28.247278
v 185.101349 7.332984 -28.247278
v 185.034805 7.973183 -28.560286
v 185.034805 7.299367 -28.560286
v 184.968277 8.075479 -28.873293
v 184.968277 7.307482 -28.873293
v 184.901749 8.202901 -29.186298
v 184.901749 7.316585 -29.186298
v 184.835220 8.337850 -29.499308
v 184.835220 7.283216 -29.499308
v 184.768692 8.500229 -29.812313
v 184.768692 7.229991 -29.812313
v 184.702148 8.673501 -30.125320
v 184.702148 7.141289 -30.125320
v 184.635620 8.874218 -30.438328
v 184.635620 6.946923 -30.438328
v 184.569092 9.094252 -30.751335
v 184.569092 6.800001 -30.751335
v 186.718063 8.316662 -22.805614
v 186.718063 6.190674 -22.805614
v 186.651520 8.151873 -23.118622
v 186.651520 5.904271 -23.118622
v 186.584991 7.994678 -23.431629
v 186.584991 5.792527 -23.431629
v 186.518463 7.865651 -23.744637
v 186.518463 5.764376 -23.744637
v 186.451935 7.745973 -24.057644
v 186.451935 5.817767 -24.057644
v 186.385406 7.650134 -24.370651
v 186.385406 5.964853 -24.370651
v 186.318863 7.563323 -24.683659
v 186.318863 6.223239 -24.683659
v 186.252335 7.498885 -24.996666
v 186.252335 6.531317 -24.996666
v 186.185806 7.441910 -25.309673
v 186.185806 6.831531 -25.309673
v 186.119278 7.407720 -25.622681
v 186.119278 7.017481 -25.622681
v 186.052734 7.378776 -25.935688
v 186.052734 7.088857 -25.935688
v 185.986206 7.374245 -26.248695
v 185.986206 7.098701 -26.248695
v 185.919678 7.372535 -26.561703
v 185.919678 7.106878 -26.561703
v 185.853149 7.397582 -26.874710
v 185.853149 7.182063 -26.874710
v 185.786621 7.423232 -27.187716
v 185.786621 7.308309 -27.187716
v 185.720078 7.478292 -27.500723
v 185.720078 7.373008 -27.500723
v 185.653549 7.533353 -27.813730
v 185.653549 7.278789 -27.813730
v 185.587021 7.618419 -28.126738
v 185.587021 7.137512 -28.126738
v 185.520493 7.704462 -28.439745
v 185.520493 7.075542 -28.439745
v 185.453949 7.821708 -28.752752
v 185.453949 7.012850 -28.752752
v 185.387421 7.940534 -29.065758
v 185.387421 7.025628 -29.065758
v 185.320892 8.094018 -29.378765
v 185.320892 7.042241 -29.378765
v 185.254364 8.252432 -29.691774
v 185.254364 7.025111 -29.691774
v 185.187820 8.444033 -30.004780
v 185.187820 6.955604 -30.004780
v 185.121292 8.650255 -30.317787
v 185.121292 6.786925 -30.317787
v 185.054764 8.884445 -30.630795
v 185.054764 6.630665 -30.630795
v 187.191727 8.369689 -22.741571
v 187.191727 6.461161 -22.741571
v 187.125198 8.196924 -23.054579
v 187.125198 6.116273 -23.054579
v 187.058655 8.033318 -23.367586
v 187.058655 5.928734 -23.367586
v 186.992126 7.901759 -23.680593
v 186.992126 5.844326 -23.680593
v 186.925598 7.773644 -23.993601
v 186.925598 5.849146 -23.993601
v 186.859070 7.677222 -24.306608
v 186.859070 5.938604 -24.306608
v 186.792526 7.582077 -24.619616
v 186.792526 6.145783 -24.619616
v 186.725998 7.516787 -24.932623
v 186.725998 6.434314 -24.932623
v 186.659470 7.452855 -25.245628
v 186.659470 6.747341 -25.245628
v 186.592941 7.416165 -25.558636
v 186.592941 7.011420 -25.558636
v 186.526413 7.382317 -25.871643
v 186.526413 7.163910 -25.871643
v 186.459869 7.372828 -26.184652
v 186.459869 7.195882 -26.184652
v 186.393341 7.368486 -26.497658
v 186.393341 7.180085 -26.497658
v 186.326813 7.385754 -26.810665
v 186.326813 7.199876 -26.810665
v 186.260284 7.410842 -27.123672
v 186.260284 7.264966 -27.123672
v 186.193741 7.455313 -27.436680
v 186.193741 7.350077 -27.436680
v 186.127213 7.510260 -27.749687
v 186.127213 7.300796 -27.749687
v 186.060684 7.583322 -28.062695
v 186.060684 7.181375 -28.062695
v 185.994156 7.669089 -28.375702
v 185.994156 7.029056 -28.375702
v 185.927628 7.773230 -28.688709
v 185.927628 6.836235 -28.688709
v 185.861084 7.891374 -29.001717
v 185.861084 6.663996 -29.001717
v 185.794556 8.030501 -29.314724
v 185.794556 6.558887 -29.314724
v 185.728027 8.183302 -29.627731
v 185.728027 6.609807 -29.627731
v 185.661499 8.363277 -29.940739
v 185.661499 6.711051 -29.940739
v 185.594955 8.553921 -30.253746
v 185.594955 6.686891 -30.253746
v 185.528427 8.783477 -30.566753
v 185.528427 6.519922 -30.566753
v 185.461899 9.027475 -30.879761
v 185.461899 6.340684 -30.879761
v 187.663422 8.423405 -22.686787
v 187.663422 6.984109 -22.686787
v 187.596893 8.240411 -22.999794
v 187.596893 6.574581 -22.999794
v 187.530365 8.077839 -23.312801
v 187.530365 6.284740 -23.312801
v 187.463821 7.936433 -23.625809
v 187.463821 6.102475 -23.625809
v 187.397293 7.809125 -23.938816
v 187.397293 6.013620 -23.938816
v 187.330765 7.703093 -24.251823
v 187.330765 6.024342 -24.251823
v 187.264236 7.608566 -24.564831
v 187.264236 6.186824 -24.564831
v 187.197693 7.533762 -24.877838
v 187.197693 6.435386 -24.877838
v 187.131165 7.470288 -25.190845
v 187.131165 6.727217 -25.190845
v 187.064636 7.424042 -25.503853
v 187.064636 7.021008 -25.503853
v 186.998108 7.390512 -25.816860
v 186.998108 7.241610 -25.816860
v 186.931580 7.371283 -26.129868
v 186.931580 7.277561 -26.129868
v 186.865036 7.367127 -26.442875
v 186.865036 7.267650 -26.442875
v 186.798508 7.374315 -26.755882
v 186.798508 7.260564 -26.755882
v 186.731979 7.399465 -27.068890
v 186.731979 7.269805 -27.068890
v 186.665451 7.433342 -27.381897
v 186.665451 7.358346 -27.381897
v 186.598907 7.488220 -27.694904
v 186.598907 7.373020 -27.694904
v 186.532379 7.549968 -28.007912
v 186.532379 7.302903 -28.007912
v 186.465851 7.635525 -28.320919
v 186.465851 7.139327 -28.320919
v 186.399323 7.727373 -28.633926
v 186.399323 6.888633 -28.633926
v 186.332794 7.845150 -28.946934
v 186.332794 6.532502 -28.946934
v 186.266251 7.970670 -29.259939
v 186.266251 6.334819 -29.259939
v 186.199722 8.122919 -29.572947
v 186.199722 6.313323 -29.572947
v 186.133194 8.287519 -29.885954
v 186.133194 6.431426 -29.885954
v 186.066666 8.477383 -30.198961
v 186.066666 6.571574 -30.198961
v 186.000122 8.689154 -30.511967
v 186.000122 6.604452 -30.511967
v 185.933594 8.920961 -30.824976
v 185.933594 6.406589 -30.824976
v 188.467224 9.138514 -21.069607
v 188.467224 8.640730 -21.069607
v 188.400681 8.873466 -21.382614
v 188.400681 8.428971 -21.382614
v 188.334152 8.638655 -21.695621
v 188.334152 8.246881 -21.695621
v 188.267624 8.434020 -22.008629
v 188.267624 8.069490 -22.008629
v 188.201096 8.241924 -22.321636
v 188.201096 7.854053 -22.321636
v 188.134552 8.085150 -22.634644
v 188.134552 7.565144 -22.634644
v 188.068024 7.933052 -22.947651
v 188.068024 7.216652 -22.947651
v 188.001495 7.814123 -23.260658
v 188.001495 6.887221 -23.260658
v 187.934967 7.698544 -23.573666
v 187.934967 6.636041 -23.573666
v 187.868439 7.612241 -23.886673
v 187.868439 6.462868 -23.886673
v 187.801895 7.528910 -24.199680
v 187.801895 6.386790 -24.199680
v 187.735367 7.473641 -24.512688
v 187.735367 6.445131 -24.512688
v 187.668839 7.419801 -24.825695
v 187.668839 6.614019 -24.825695
v 187.602310 7.394589 -25.138700
v 187.602310 6.850572 -25.138700
v 187.535767 7.369377 -25.451710
v 187.535767 7.103605 -25.451710
v 187.469238 7.373057 -25.764715
v 187.469238 7.252007 -25.764715
v 187.402710 7.377466 -26.077723
v 187.402710 7.306183 -26.077723
v 187.336182 7.408512 -26.390732
v 187.336182 7.318415 -26.390732
v 187.269653 7.442617 -26.703737
v 187.269653 7.329981 -26.703737
v 187.203110 7.501867 -27.016745
v 187.203110 7.355026 -27.016745
v 187.136581 7.566262 -27.329752
v 187.136581 7.440956 -27.329752
v 187.070053 7.655569 -27.642759
v 187.070053 7.494763 -27.642759
v 187.003525 7.751405 -27.955767
v 187.003525 7.471725 -27.955767
v 186.936981 7.873867 -28.268774
v 186.936981 7.351241 -28.268774
v 186.870453 8.002938 -28.581779
v 186.870453 7.116179 -28.581779
v 186.803925 8.163293 -28.894787
v 186.803925 6.723321 -28.894787
v 186.737396 8.329194 -29.207794
v 186.737396 6.482889 -29.207794
v 188.871475 8.993017 -21.332111
v 188.871475 8.747726 -21.332111
v 188.804947 8.751272 -21.645119
v 188.804947 8.546074 -21.645119
v 188.738403 8.524826 -21.958126
v 188.738403 8.359844 -21.958126
v 188.671875 8.331341 -22.271133
v 188.671875 8.173521 -22.271133
v 188.605347 8.155954 -22.584141
v 188.605347 7.979696 -22.584141
v 188.538818 8.001051 -22.897148
v 188.538818 7.759227 -22.897148
v 188.472290 7.867638 -23.210155
v 188.472290 7.506372 -23.210155
v 188.405746 7.747983 -23.523163
v 188.405746 7.241853 -23.523163
v 188.339218 7.650506 -23.836170
v 188.339218 7.031259 -23.836170
v 188.272690 7.563725 -24.149178
v 188.272690 6.897633 -24.149178
v 188.206161 7.498220 -24.462185
v 188.206161 6.887798 -24.462185
v 188.139618 7.442690 -24.775192
v 188.139618 6.941564 -24.775192
v 188.073090 7.406686 -25.088200
v 188.073090 7.121293 -25.088200
v 188.006561 7.381411 -25.401207
v 188.006561 7.234045 -25.401207
v 187.940033 7.373606 -25.714214
v 187.940033 7.257991 -25.714214
v 187.873505 7.378144 -26.027222
v 187.873505 7.271355 -26.027222
v 187.806961 7.398235 -26.340229
v 187.806961 7.287121 -26.340229
v 187.740433 7.432666 -26.653236
v 187.740433 7.320674 -26.653236
v 187.673904 7.481317 -26.966242
v 187.673904 7.393612 -26.966242
v 187.607376 7.546246 -27.279249
v 187.607376 7.480733 -27.279249
v 187.540833 7.625164 -27.592257
v 187.540833 7.585359 -27.592257
v 187.474304 7.721768 -27.905264
v 187.474304 7.632980 -27.905264
v 187.407776 7.833920 -28.218271
v 187.407776 7.599710 -28.218271
v 187.341248 7.964034 -28.531279
v 187.341248 7.489172 -28.531279
v 187.274719 8.114041 -28.844286
v 187.274719 7.307993 -28.844286
v 187.208176 8.280307 -29.157293
v 187.208176 7.077812 -29.157293
v 187.141647 8.475138 -29.470299
v 187.141647 6.874264 -29.470299
v 189.342010 9.134469 -21.282822
v 189.342010 8.979616 -21.282822
v 189.275467 8.866871 -21.595829
v 189.275467 8.786644 -21.595829
v 189.208939 8.628864 -21.908836
v 189.208939 8.585444 -21.908836
v 189.142410 8.423893 -22.221844
v 189.142410 8.351486 -22.221844
v 189.075882 8.229471 -22.534851
v 189.075882 8.198018 -22.534851
v 189.009338 8.073859 -22.847858
v 189.009338 8.040640 -22.847858
v 188.942810 7.923619 -23.160866
v 188.942810 7.894361 -23.160866
v 188.876282 7.803471 -23.473873
v 188.876282 7.736750 -23.473873
v 188.809753 7.690793 -23.786880
v 188.809753 7.553721 -23.786880
v 188.743225 7.603698 -24.099886
v 188.743225 7.403425 -24.099886
v 188.676682 7.524189 -24.412893
v 188.676682 7.334741 -24.412893
v 188.610153 7.468502 -24.725903
v 188.610153 7.293791 -24.725903
v 188.543625 7.419361 -25.038908
v 188.543625 7.353995 -25.038908
v 188.477097 7.394074 -25.351915
v 188.477097 7.354196 -25.351915
v 188.410553 7.373732 -25.664925
v 188.410553 7.300857 -25.664925
v 188.344025 7.378399 -25.977930
v 188.344025 7.242787 -25.977930
v 188.277496 7.386328 -26.290937
v 188.277496 7.199173 -26.290937
v 188.210968 7.421031 -26.603945
v 188.210968 7.200685 -26.603945
v 188.144440 7.457691 -26.916952
v 188.144440 7.300262 -26.916952
v 188.077896 7.523048 -27.229959
v 188.077896 7.429762 -27.229959
v 188.011368 7.589957 -27.542967
v 188.011368 7.554829 -27.542967
v 187.944839 7.687162 -27.855974
v 187.944839 7.671049 -27.855974
v 187.878311 7.787094 -28.168982
v 187.878311 7.737748 -28.168982
v 187.811768 7.918014 -28.481989
v 187.811768 7.736905 -28.481989
v 187.745239 8.055390 -28.794996
v 187.745239 7.698401 -28.794996
v 187.678711 8.222715 -29.108004
v 187.678711 7.614322 -29.108004
v 187.612183 8.404284 -29.421009
v 187.612183 7.458875 -29.421009
v 189.745773 9.061290 -21.547636
v 189.745773 8.911980 -21.547636
v 189.679230 8.849363 -21.860643
v 189.679230 8.753286 -21.860643
v 189.612701 8.651669 -22.173651
v 189.612701 8.587108 -22.173651
v 189.546173 8.481985 -22.486658
v 189.546173 8.410688 -22.486658
v 189.479645 8.321142 -22.799665
v 189.479645 8.252296 -22.799665
v 189.413116 8.186325 -23.112673
v 189.413116 8.101833 -23.112673
v 189.346573 8.059217 -23.425680
v 189.346573 8.016613 -23.425680
v 189.280045 7.954224 -23.738688
v 189.280045 7.907434 -23.738688
v 189.213516 7.858576 -24.051695
v 189.213516 7.785981 -24.051695
v 189.146988 7.779956 -24.364702
v 189.146988 7.682276 -24.364702
v 189.080444 7.714156 -24.677708
v 189.080444 7.587582 -24.677708
v 189.013916 7.659594 -24.990715
v 189.013916 7.521906 -24.990715
v 188.947388 7.622585 -25.303722
v 188.947388 7.458892 -25.303722
v 188.880859 7.590636 -25.616730
v 188.880859 7.353100 -25.616730
v 188.814331 7.581837 -25.929737
v 188.814331 7.247430 -25.929737
v 188.747787 7.573037 -26.242744
v 188.747787 7.163346 -26.242744
v 188.681259 7.591034 -26.555752
v 188.681259 7.144269 -26.555752
v 188.614731 7.610309 -26.868759
v 188.614731 7.211572 -26.868759
v 188.548203 7.650375 -27.181767
v 188.548203 7.310409 -27.181767
v 188.481659 7.698024 -27.494774
v 188.481659 7.428040 -27.494774
v 188.415131 7.761147 -27.807781
v 188.415131 7.549707 -27.807781
v 188.348602 7.837921 -28.120789
v 188.348602 7.690711 -28.120789
v 188.282074 7.925844 -28.433796
v 188.282074 7.840765 -28.433796
v 188.215546 8.032997 -28.746803
v 188.215546 7.915410 -28.746803
v 188.149002 8.148416 -29.059811
v 188.149002 7.906188 -29.059811
v 188.082474 8.287790 -29.372818
v 188.082474 7.835936 -29.372818
v 188.015945 8.434677 -29.685825
v 188.015945 7.681706 -29.685825
v 187.949417 8.608839 -29.998833
v 187.949417 7.447226 -29.998833
v 187.882874 8.792992 -30.311840
v 187.882874 7.216523 -30.311840
v 190.215851 9.210543 -21.500439
v 190.215851 8.834983 -21.500439
v 190.149323 9.003614 -21.813446
v 190.149323 8.761299 -21.813446
v 190.082794 8.829660 -22.126453
v 190.082794 8.665400 -22.126453
v 190.016266 8.658148 -22.439461
v 190.016266 8.565429 -22.439461
v 189.949722 8.513391 -22.752468
v 189.949722 8.449538 -22.752468
v 189.883194 8.374304 -23.065475
v 189.883194 8.328850 -23.065475
v 189.816666 8.254352 -23.378483
v 189.816666 8.215773 -23.378483
v 189.750137 8.145454 -23.691490
v 189.750137 8.100274 -23.691490
v 189.683594 8.047173 -24.004498
v 189.683594 7.978052 -24.004498
v 189.617065 7.966823 -24.317505
v 189.617065 7.864246 -24.317505
v 189.550537 7.887962 -24.630512
v 189.550537 7.764853 -24.630512
v 189.484009 7.835004 -24.943520
v 189.484009 7.676297 -24.943520
v 189.417480 7.782047 -25.256527
v 189.417480 7.576950 -25.256527
v 189.350937 7.747672 -25.569534
v 189.350937 7.464138 -25.569534
v 189.284409 7.721372 -25.882542
v 189.284409 7.338414 -25.882542
v 189.217880 7.703376 -26.195547
v 189.217880 7.234901 -26.195547
v 189.151352 7.703376 -26.508554
v 189.151352 7.198267 -26.508554
v 189.084808 7.703377 -26.821562
v 189.084808 7.214797 -26.821562
v 189.018280 7.727739 -27.134569
v 189.018280 7.249817 -27.134569
v 188.951752 7.754039 -27.447577
v 188.951752 7.321866 -27.447577
v 188.885223 7.794866 -27.760584
v 188.885223 7.383492 -27.760584
v 188.818695 7.847824 -28.073591
v 188.818695 7.521255 -28.073591
v 188.752151 7.905923 -28.386599
v 188.752151 7.699679 -28.386599
v 188.685623 7.986273 -28.699606
v 188.685623 7.894824 -28.699606
v 188.619095 8.066624 -29.012613
v 188.619095 8.029577 -29.012613
v 188.552567 8.171816 -29.325621
v 188.552567 8.050604 -29.325621
v 188.486023 8.280713 -29.638626
v 188.486023 7.955160 -29.638626
v 188.419495 8.407973 -29.951633
v 188.419495 7.769559 -29.951633
v 188.352966 8.547060 -30.264643
v 188.352966 7.541471 -30.264643
v 188.286438 8.699666 -30.577648
v 188.286438 7.290448 -30.577648
v 188.219910 8.871179 -30.890656
v 188.219910 6.996033 -30.890656
v 188.153366 9.053707 -31.203663
v 188.153366 6.709333 -31.203663
v 190.619171 9.113518 -21.767376
v 190.619171 8.514198 -21.767376
v 190.552643 8.924320 -22.080383
v 190.552643 8.536849 -22.080383
v 190.486099 8.756298 -22.393391
v 190.486099 8.509443 -22.393391
v 190.419571 8.595693 -22.706398
v 190.419571 8.471790 -22.706398
v 190.353043 8.459298 -23.019405
v 190.353043 8.410122 -23.019405
v 190.286514 8.322908 -23.332413
v 190.286514 8.316273 -23.332413
v 190.219971 8.216035 -23.645420
v 190.219971 8.205175 -23.645420
v 190.153442 8.109161 -23.958427
v 190.153442 8.075033 -23.958427
v 190.086914 8.021768 -24.271435
v 190.086914 7.933145 -24.271435
v 190.020386 7.942864 -24.584440
v 190.020386 7.861475 -24.584440
v 189.953857 7.873053 -24.897448
v 189.953857 7.785979 -24.897448
v 189.887314 7.821029 -25.210455
v 189.887314 7.699211 -25.210455
v 189.820786 7.769004 -25.523462
v 189.820786 7.608706 -25.523462
v 189.754257 7.741615 -25.836470
v 189.754257 7.488639 -25.836470
v 189.687729 7.715772 -26.149477
v 189.687729 7.379227 -26.149477
v 189.621185 7.703367 -26.462484
v 189.621185 7.310097 -26.462484
v 189.554657 7.703367 -26.775492
v 189.554657 7.260750 -26.775492
v 189.488129 7.705724 -27.088499
v 189.488129 7.244107 -27.088499
v 189.421600 7.731566 -27.401506
v 189.421600 7.235570 -27.401506
v 189.355072 7.757409 -27.714514
v 189.355072 7.256188 -27.714514
v 189.288528 7.800800 -28.027521
v 189.288528 7.357917 -28.027521
v 189.222000 7.852825 -28.340528
v 189.222000 7.521603 -28.340528
v 189.155472 7.912184 -28.653536
v 189.155472 7.727665 -28.653536
v 189.088943 7.991086 -28.966541
v 189.088943 7.932092 -28.966541
v 189.022400 8.069991 -29.279549
v 189.022400 8.032909 -29.279549
v 188.955872 8.174479 -29.592556
v 188.955872 7.995362 -29.592556
v 188.889343 8.281353 -29.905563
v 188.889343 7.871665 -29.905563
v 188.822815 8.406263 -30.218571
v 188.822815 7.675189 -30.218571
v 188.756287 8.542659 -30.531578
v 188.756287 7.424892 -30.531578
v 188.689743 8.690966 -30.844585
v 188.689743 7.113313 -30.844585
v 188.623215 8.858988 -31.157593
v 188.623215 6.806290 -31.157593
v 188.556686 9.034799 -31.470600
v 188.556686 6.525667 -31.470600
v 191.088730 9.215279 -21.722670
v 191.088730 8.114005 -21.722670
v 191.022186 9.013400 -22.035677
v 191.022186 8.143484 -22.035677
v 190.955658 8.841671 -22.348684
v 190.955658 8.210722 -22.348684
v 190.889130 8.674095 -22.661692
v 190.889130 8.259125 -22.661692
v 190.822601 8.529304 -22.974699
v 190.822601 8.280642 -22.974699
v 190.756073 8.393251 -23.287706
v 190.756073 8.255514 -23.287706
v 190.689529 8.271410 -23.600714
v 190.689529 8.185520 -23.600714
v 190.623001 8.164795 -23.913721
v 190.623001 8.105398 -23.913721
v 190.556473 8.063022 -24.226728
v 190.556473 8.010832 -24.226728
v 190.489944 7.984304 -24.539736
v 190.489944 7.932855 -24.539736
v 190.423401 7.905587 -24.852741
v 190.423401 7.866339 -24.852741
v 190.356873 7.848587 -25.165749
v 190.356873 7.796693 -25.165749
v 190.290344 7.796682 -25.478756
v 190.290344 7.722531 -25.478756
v 190.223816 7.755418 -25.791763
v 190.223816 7.638095 -25.791763
v 190.157272 7.729634 -26.104771
v 190.157272 7.531798 -26.104771
v 190.090744 7.703850 -26.417778
v 190.090744 7.414356 -26.417778
v 190.024216 7.703367 -26.730785
v 190.024216 7.297552 -26.730785
v 189.957687 7.703367 -27.043793
v 189.957687 7.208711 -27.043793
v 189.891159 7.717478 -27.356800
v 189.891159 7.144859 -27.356800
v 189.824615 7.743261 -27.669807
v 189.824615 7.132127 -27.669807
v 189.758087 7.772209 -27.982815
v 189.758087 7.193404 -27.982815
v 189.691559 7.824114 -28.295822
v 189.691559 7.334791 -28.295822
v 189.625031 7.876018 -28.608829
v 189.625031 7.539088 -28.608829
v 189.558487 7.947187 -28.921837
v 189.558487 7.795206 -28.921837
v 189.491959 8.025907 -29.234844
v 189.491959 7.978886 -29.234844
v 189.425430 8.114527 -29.547852
v 189.425430 7.988532 -29.547852
v 189.358902 8.221142 -29.860859
v 189.358902 7.919007 -29.860859
v 189.292374 8.329103 -30.173866
v 189.292374 7.748542 -30.173866
v 189.225830 8.465155 -30.486874
v 189.225830 7.512801 -30.486874
v 189.159302 8.601206 -30.799881
v 189.159302 7.218313 -30.799881
v 189.092773 8.762659 -31.112888
v 189.092773 6.906229 -31.112888
v 189.026245 8.930236 -31.425896
v 189.026245 6.624255 -31.425896
v 188.959702 9.120092 -31.738903
v 188.959702 6.380991 -31.738903
v 191.491364 9.115108 -21.992800
v 191.491364 7.702651 -21.992800
v 191.424835 8.926525 -22.305807
v 191.424835 7.782158 -22.305807
v 191.358292 8.759369 -22.618814
v 191.358292 7.862916 -22.618814
v 191.291763 8.598860 -22.931822
v 191.291763 7.943331 -22.931822
v 191.225235 8.463133 -23.244829
v 191.225235 8.010274 -23.244829
v 191.158707 8.327405 -23.557837
v 191.158707 8.039621 -23.557837
v 191.092163 8.220043 -23.870844
v 191.092163 8.033960 -23.870844
v 191.025635 8.113672 -24.183851
v 191.025635 7.994929 -24.183851
v 190.959106 8.025441 -24.496859
v 190.959106 7.946784 -24.496859
v 190.892578 7.946897 -24.809866
v 190.892578 7.903701 -24.809866
v 190.826050 7.875933 -25.122873
v 190.826050 7.855992 -25.122873
v 190.759506 7.824140 -25.435881
v 190.759506 7.803695 -25.435881
v 190.692978 7.772349 -25.748886
v 190.692978 7.742324 -25.748886
v 190.626450 7.743381 -26.061893
v 190.626450 7.665312 -26.061893
v 190.559921 7.717652 -26.374901
v 190.559921 7.585549 -26.374901
v 190.493378 7.703364 -26.687908
v 190.493378 7.438406 -26.687908
v 190.426849 7.703364 -27.000916
v 190.426849 7.292823 -27.000916
v 190.360321 7.703514 -27.313923
v 190.360321 7.182962 -27.313923
v 190.293793 7.729243 -27.626930
v 190.293793 7.098063 -27.626930
v 190.227264 7.754972 -27.939938
v 190.227264 7.084371 -27.939938
v 190.160721 7.795682 -28.252945
v 190.160721 7.166666 -28.252945
v 190.094193 7.847474 -28.565952
v 190.094193 7.327357 -28.565952
v 190.027664 7.903738 -28.878960
v 190.027664 7.566911 -28.878960
v 189.961136 7.982282 -29.191967
v 189.961136 7.809193 -29.191967
v 189.894592 8.060825 -29.504974
v 189.894592 7.946167 -29.504974
v 189.828064 8.161593 -29.817982
v 189.828064 7.971476 -29.817982
v 189.761536 8.267965 -30.130989
v 189.761536 7.877725 -30.130989
v 189.695007 8.388553 -30.443996
v 189.695007 7.670917 -30.443996
v 189.628464 8.524281 -30.757004
v 189.628464 7.409504 -30.757004
v 189.561935 8.667520 -31.070011
v 189.561935 7.097848 -31.070011
v 189.495407 8.834676 -31.383018
v 189.495407 6.794698 -31.383018
v 189.428879 9.004474 -31.696026
v 189.428879 6.525933 -31.696026
v 189.362350 9.205815 -32.009033
v 189.362350 6.282242 -32.009033
v 191.959808 9.216217 -21.953281
v 191.959808 7.247007 -21.953281
v 191.893280 9.015343 -22.266289
v 191.893280 7.299641 -22.266289
v 191.826752 8.844062 -22.579296
v 191.826752 7.400552 -22.579296
v 191.760223 8.677271 -22.892303
v 191.760223 7.497682 -22.892303
v 191.693680 8.532476 -23.205311
v 191.693680 7.622565 -23.205311
v 191.627151 8.397031 -23.518318
v 191.627151 7.753896 -23.518318
v 191.560623 8.274817 -23.831324
v 191.560623 7.862383 -23.831324
v 191.494095 8.168659 -24.144331
v 191.494095 7.907501 -24.144331
v 191.427551 8.066191 -24.457338
v 191.427551 7.912543 -24.457338
v 191.361023 7.987800 -24.770346
v 191.361023 7.899663 -24.770346
v 191.294495 7.909409 -25.083353
v 191.294495 7.871034 -25.083353
v 191.227966 7.851304 -25.396360
v 191.227966 7.838086 -25.396360
v 191.161438 7.799610 -25.709368
v 191.161438 7.797251 -25.709368
v 191.094894 7.756968 -26.022375
v 191.094894 7.742333 -26.022375
v 191.028366 7.731287 -26.335382
v 191.028366 7.677309 -26.335382
v 190.961838 7.705607 -26.648388
v 190.961838 7.596903 -26.648388
v 190.895309 7.703363 -26.961395
v 190.895309 7.494665 -26.961395
v 190.828766 7.703363 -27.274405
v 190.828766 7.350925 -27.274405
v 190.762238 7.715420 -27.587410
v 190.762238 7.216002 -27.587410
v 190.695709 7.741100 -27.900417
v 190.695709 7.121841 -27.900417
v 190.629181 7.767669 -28.213425
v 190.629181 7.111491 -28.213425
v 190.562653 7.819363 -28.526432
v 190.562653 7.210227 -28.526432
v 190.496109 7.871056 -28.839439
v 190.496109 7.405392 -28.839439
v 190.429581 7.939362 -29.152447
v 190.429581 7.637780 -29.152447
v 190.363052 8.017755 -29.465454
v 190.363052 7.840043 -29.465454
v 190.296524 8.103065 -29.778461
v 190.296524 7.938455 -29.778461
v 190.229980 8.209223 -30.091469
v 190.229980 7.900109 -30.091469
v 190.163452 8.315380 -30.404476
v 190.163452 7.703075 -30.404476
v 190.096924 8.448785 -30.717484
v 190.096924 7.445699 -30.717484
v 190.030396 8.584229 -31.030491
v 190.030396 7.167659 -31.030491
v 189.963867 8.741002 -31.343498
v 189.963867 6.882420 -31.343498
v 189.897324 8.907792 -31.656506
v 189.897324 6.633626 -31.656506
v 189.830795 9.092097 -31.969513
v 189.830795 6.397485 -31.969513
v 192.026596 8.974388 -23.803497
v 192.026596 7.655631 -23.803497
v 191.960052 8.778712 -24.116505
v 191.960052 7.800673 -24.116505
v 191.893524 8.592497 -24.429512
v 191.893524 7.869227 -24.429512
v 191.826996 8.435007 -24.742519
v 191.826996 7.885425 -24.742519
v 191.760468 8.288367 -25.055527
v 191.760468 7.855852 -25.055527
v 191.693939 8.165764 -25.368534
v 191.693939 7.842777 -25.368534
v 191.627396 8.052765 -25.681541
v 191.627396 7.809529 -25.681541
v 191.560867 7.962681 -25.994549
v 191.560867 7.746608 -25.994549
v 191.494339 7.879314 -26.307556
v 191.494339 7.670201 -26.307556
v 191.427811 7.820111 -26.620564
v 191.427811 7.549702 -26.620564
v 191.361267 7.763743 -26.933571
v 191.361267 7.375293 -26.933571
v 191.294739 7.734391 -27.246578
v 191.294739 7.174316 -27.246578
v 191.228210 7.705038 -27.559586
v 191.228210 7.004827 -27.559586
v 191.161682 7.703436 -27.872591
v 191.161682 6.935196 -27.872591
v 191.095154 7.703436 -28.185598
v 191.095154 6.973505 -28.185598
v 191.028610 7.726532 -28.498606
v 191.028610 7.143868 -28.498606
v 190.962082 7.755885 -28.811613
v 190.962082 7.335515 -28.811613
v 190.895554 7.804262 -29.124620
v 190.895554 7.554812 -29.124620
v 190.829025 7.863465 -29.437628
v 190.829025 7.730548 -29.437628
v 190.762482 7.938565 -29.750635
v 190.762482 7.833817 -29.750635
v 190.695953 8.028650 -30.063643
v 190.695953 7.798674 -30.063643
v 190.629425 8.132944 -30.376648
v 190.629425 7.613666 -30.376648
v 190.562897 8.255546 -30.689655
v 190.562897 7.362018 -30.689655
v 190.496353 8.392847 -31.002665
v 190.496353 7.096826 -31.002665
v 190.429825 8.550337 -31.315670
v 190.429825 6.834671 -31.315670
v 190.363297 8.726329 -31.628677
v 190.363297 6.606203 -31.628677
v 190.296768 8.922007 -31.941685
v 190.296768 6.425180 -31.941685
v 190.230240 9.145152 -32.254692
v 190.230240 6.262476 -32.254692
v 192.822510 9.216383 -22.223377
v 192.822510 6.536098 -22.223377
v 192.755981 9.015682 -22.536385
v 192.755981 6.728256 -22.536385
v 192.689438 8.844480 -22.849392
v 192.689438 6.927361 -22.849392
v 192.622910 8.677823 -23.162399
v 192.622910 7.125824 -23.162399
v 192.556381 8.533028 -23.475407
v 192.556381 7.325627 -23.475407
v 192.489853 8.397688 -23.788412
v 192.489853 7.533844 -23.788412
v 192.423325 8.275410 -24.101419
v 192.423325 7.728985 -24.101419
v 192.356781 8.169330 -24.414427
v 192.356781 7.857458 -24.414427
v 192.290253 8.066740 -24.727434
v 192.290253 7.894208 -24.727434
v 192.223724 7.988407 -25.040442
v 192.223724 7.866325 -25.040442
v 192.157196 7.910073 -25.353449
v 192.157196 7.865302 -25.353449
v 192.090652 7.851777 -25.666456
v 192.090652 7.819868 -25.666456
v 192.024124 7.800120 -25.979464
v 192.024124 7.718459 -25.979464
v 191.957596 7.757239 -26.292471
v 191.957596 7.572475 -26.292471
v 191.891068 7.731576 -26.605478
v 191.891068 7.375041 -26.605478
v 191.824539 7.705913 -26.918486
v 191.824539 6.999967 -26.918486
v 191.757996 7.703364 -27.231493
v 191.757996 6.703087 -27.231493
v 191.691467 7.703365 -27.544500
v 191.691467 6.538651 -27.544500
v 191.624939 7.715065 -27.857506
v 191.624939 6.494870 -27.857506
v 191.558411 7.740727 -28.170513
v 191.558411 6.557892 -28.170513
v 191.491867 7.766882 -28.483521
v 191.491867 6.822932 -28.483521
v 191.425339 7.818540 -28.796528
v 191.425339 7.124798 -28.796528
v 191.358810 7.870198 -29.109535
v 191.358810 7.400624 -29.109535
v 191.292282 7.938006 -29.422543
v 191.292282 7.591813 -29.422543
v 191.225754 8.016341 -29.735550
v 191.225754 7.691576 -29.735550
v 191.159210 8.101079 -30.048557
v 191.159210 7.663960 -30.048557
v 191.092682 8.207159 -30.361565
v 191.092682 7.507432 -30.361565
v 191.026154 8.313238 -30.674572
v 191.026154 7.287458 -30.674572
v 190.959625 8.445951 -30.987579
v 190.959625 7.057800 -30.987579
v 190.893082 8.581291 -31.300587
v 190.893082 6.808531 -31.300587
v 190.826553 8.737252 -31.613594
v 190.826553 6.609068 -31.613594
v 190.760025 8.903909 -31.926601
v 190.760025 6.460418 -31.926601
v 190.693497 9.087252 -32.239609
v 190.693497 6.303448 -32.239609
v 193.218307 9.115837 -22.525660
v 193.218307 6.544271 -22.525660
v 193.151779 8.927536 -22.838667
v 193.151779 6.763637 -22.838667
v 193.085251 8.760776 -23.151674
v 193.085251 6.983493 -23.151674
v 193.018707 8.600309 -23.464682
v 193.018707 7.217020 -23.464682
v 192.952179 8.464888 -23.777689
v 192.952179 7.452421 -23.777689
v 192.885651 8.329466 -24.090696
v 192.885651 7.669378 -24.090696
v 192.819122 8.221878 -24.403704
v 192.819122 7.828911 -24.403704
v 192.752594 8.115737 -24.716709
v 192.752594 7.922651 -24.716709
v 192.686050 8.027123 -25.029716
v 192.686050 7.935222 -25.029716
v 192.619522 7.948746 -25.342724
v 192.619522 7.906948 -25.342724
v 192.552994 7.877252 -25.655731
v 192.552994 7.826308 -25.655731
v 192.486465 7.825566 -25.968739
v 192.486465 7.669144 -25.968739
v 192.419922 7.773880 -26.281746
v 192.419922 7.422948 -26.281746
v 192.353394 7.744190 -26.594753
v 192.353394 7.089543 -26.594753
v 192.286865 7.718514 -26.907761
v 192.286865 6.532144 -26.907761
v 192.220337 7.703365 -27.220768
v 192.220337 6.216679 -27.220768
v 192.153809 7.703366 -27.533775
v 192.153809 6.089709 -27.533775
v 192.087265 7.703366 -27.846783
v 192.087265 6.093961 -27.846783
v 192.020737 7.728182 -28.159790
v 192.020737 6.169917 -28.159790
v 191.954208 7.753858 -28.472797
v 191.954208 6.374630 -28.472797
v 191.887680 7.793340 -28.785805
v 191.887680 6.686376 -28.785805
v 191.821136 7.845026 -29.098812
v 191.821136 6.991026 -29.098812
v 191.754608 7.899877 -29.411819
v 191.754608 7.244811 -29.411819
v 191.688080 7.978255 -29.724827
v 191.688080 7.343329 -29.724827
v 191.621552 8.056634 -30.037834
v 191.621552 7.390532 -30.037834
v 191.555023 8.155701 -30.350842
v 191.555023 7.324284 -30.350842
v 191.488480 8.261842 -30.663849
v 191.488480 7.170759 -30.663849
v 191.421951 8.380453 -30.976856
v 191.421951 6.977348 -30.976856
v 191.355423 8.515876 -31.289864
v 191.355423 6.781472 -31.289864
v 191.288895 8.656800 -31.602871
v 191.288895 6.617426 -31.602871
v 191.222351 8.823560 -31.915876
v 191.222351 6.507069 -31.915876
v 191.155823 8.990617 -32.228886
v 191.155823 6.381210 -32.228886
v 191.089294 9.191453 -32.541893
v 191.089294 6.205703 -32.541893
v 193.680038 9.216084 -22.517754
v 193.680038 6.441656 -22.517754
v 193.613510 9.015067 -22.830761
v 193.613510 6.664648 -22.830761
v 193.546982 8.843721 -23.143768
v 193.546982 6.869316 -23.143768
v 193.480453 8.676819 -23.456776
v 193.480453 7.108497 -23.456776
v 193.413910 8.532024 -23.769783
v 193.413910 7.338994 -23.769783
v 193.347382 8.396494 -24.082790
v 193.347382 7.544489 -24.082790
v 193.280853 8.274332 -24.395798
v 193.280853 7.712239 -24.395798
v 193.214325 8.168109 -24.708805
v 193.214325 7.843362 -24.708805
v 193.147797 8.065739 -25.021812
v 193.147797 7.923683 -25.021812
v 193.081253 7.987302 -25.334820
v 193.081253 7.904144 -25.334820
v 193.014725 7.908864 -25.647827
v 193.014725 7.789882 -25.647827
v 192.948196 7.850917 -25.960835
v 192.948196 7.571679 -25.960835
v 192.881668 7.799193 -26.273842
v 192.881668 7.176744 -26.273842
v 192.815125 7.756747 -26.586849
v 192.815125 6.561426 -26.586849
v 192.748596 7.731052 -26.899857
v 192.748596 6.030276 -26.899857
v 192.682068 7.705357 -27.212864
v 192.682068 5.696823 -27.212864
v 192.615540 7.703363 -27.525871
v 192.615540 5.566757 -27.525871
v 192.549011 7.703363 -27.838879
v 192.549011 5.583093 -27.838879
v 192.482468 7.715712 -28.151884
v 192.482468 5.719846 -28.151884
v 192.415939 7.741406 -28.464891
v 192.415939 5.940372 -28.464891
v 192.349411 7.768312 -28.777899
v 192.349411 6.253265 -28.777899
v 192.282883 7.820038 -29.090906
v 192.282883 6.580921 -29.090906
v 192.216339 7.871762 -29.403913
v 192.216339 6.821065 -29.403913
v 192.149811 7.940474 -29.716921
v 192.149811 6.865157 -29.716921
v 192.083282 8.018911 -30.029928
v 192.083282 6.912403 -30.029928
v 192.016754 8.104692 -30.342936
v 192.016754 6.921005 -30.342936
v 191.950226 8.210916 -30.655941
v 191.950226 6.890289 -30.655941
v 191.883682 8.317139 -30.968948
v 191.883682 6.782359 -30.968948
v 191.817154 8.451112 -31.281958
v 191.817154 6.686567 -31.281958
v 191.750626 8.586642 -31.594965
v 191.750626 6.603508 -31.594965
v 191.684097 8.744078 -31.907970
v 191.684097 6.548759 -31.907970
v 191.617554 8.910981 -32.220978
v 191.617554 6.438353 -32.220978
v 191.551025 9.096073 -32.533985
v 191.551025 6.251243 -32.533985
v 194.074783 9.115274 -22.825056
v 194.074783 6.674877 -22.825056
v 194.008240 8.926756 -23.138063
v 194.008240 6.877165 -23.138063
v 193.941711 8.759690 -23.451071
v 193.941711 7.098668 -23.451071
v 193.875183 8.599192 -23.764078
v 193.875183 7.283891 -23.764078
v 193.808655 8.463533 -24.077085
v 193.808655 7.454028 -24.077085
v 193.742126 8.327877 -24.390093
v 193.742126 7.598891 -24.390093
v 193.675583 8.220463 -24.703100
v 193.675583 7.709394 -24.703100
v 193.609055 8.114144 -25.016108
v 193.609055 7.783339 -25.016108
v 193.542526 8.025826 -25.329115
v 193.542526 7.786277 -25.329115
v 193.475998 7.947321 -25.642122
v 193.475998 7.659237 -25.642122
v 193.409454 7.876235 -25.955128
v 193.409454 7.387262 -25.955128
v 193.342926 7.824467 -26.268135
v 193.342926 6.916107 -26.268135
v 193.276398 7.772699 -26.581142
v 193.276398 6.275983 -26.581142
v 193.209869 7.743566 -26.894150
v 193.209869 5.776831 -26.894150
v 193.143341 7.717849 -27.207157
v 193.143341 5.070425 -27.207157
v 193.076797 7.703364 -27.520164
v 193.076797 4.875445 -27.520164
v 193.010269 7.703365 -27.833172
v 193.010269 5.391100 -27.833172
v 192.943741 7.703365 -28.146179
v 192.943741 5.539302 -28.146179
v 192.877213 7.729001 -28.459187
v 192.877213 5.750365 -28.459187
v 192.810669 7.754718 -28.772194
v 192.810669 6.000716 -28.772194
v 192.744141 7.795146 -29.085201
v 192.744141 6.223567 -29.085201
v 192.677612 7.846915 -29.398209
v 192.677612 6.399496 -29.398209
v 192.611084 7.902857 -29.711216
v 192.611084 6.389740 -29.711216
v 192.544556 7.981361 -30.024223
v 192.544556 6.393569 -30.024223
v 192.478012 8.059868 -30.337231
v 192.478012 6.441571 -30.337231
v 192.411484 8.160247 -30.650238
v 192.411484 6.505976 -30.650238
v 192.344955 8.266565 -30.963245
v 192.344955 6.562366 -30.963245
v 192.278427 8.386701 -31.276253
v 192.278427 6.581539 -31.276253
v 192.211884 8.522358 -31.589260
v 192.211884 6.579281 -31.589260
v 192.145355 8.665068 -31.902267
v 192.145355 6.593524 -31.902267
v 192.078827 8.832133 -32.215275
v 192.078827 6.508477 -32.215275
v 192.012299 9.001306 -32.528282
v 192.012299 6.303958 -32.528282
v 191.945755 9.202531 -32.841290
v 191.945755 5.960018 -32.841290
v 194.535599 9.175554 -22.821461
v 194.535599 6.827059 -22.821461
v 194.469070 8.942339 -23.134468
v 194.469070 6.949392 -23.134468
v 194.402527 8.742245 -23.447475
v 194.402527 7.110748 -23.447475
v 194.335999 8.559819 -23.760483
v 194.335999 7.253001 -23.760483
v 194.269470 8.399008 -24.073490
v 194.269470 7.388967 -24.073490
v 194.202942 8.257963 -24.386497
v 194.202942 7.509745 -24.386497
v 194.136398 8.132912 -24.699505
v 194.136398 7.590973 -24.699505
v 194.069870 8.026985 -25.012512
v 194.069870 7.627311 -25.012512
v 194.003342 7.935173 -25.325520
v 194.003342 7.626508 -25.325520
v 193.936813 7.860206 -25.638527
v 193.936813 7.533357 -25.638527
v 193.870285 7.799900 -25.951534
v 193.870285 7.298149 -25.951534
v 193.803741 7.753230 -26.264542
v 193.803741 6.894059 -26.264542
v 193.737213 7.723341 -26.577549
v 193.737213 6.335164 -26.577549
v 193.670685 7.703448 -26.890556
v 193.670685 5.929152 -26.890556
v 193.604156 7.703448 -27.203564
v 193.604156 5.687029 -27.203564
v 193.537613 7.709767 -27.516569
v 193.537613 5.560766 -27.516569
v 193.471085 7.739656 -27.829578
v 193.471085 5.548958 -27.829578
v 193.404556 7.772513 -28.142586
v 193.404556 5.637642 -28.142586
v 193.338028 7.832819 -28.455591
v 193.338028 5.801165 -28.455591
v 193.271484 7.893477 -28.768599
v 193.271484 5.998456 -28.768599
v 193.204956 7.985289 -29.081606
v 193.204956 6.121881 -29.081606
v 193.138428 8.077101 -29.394613
v 193.138428 6.132658 -29.394613
v 193.071899 8.201172 -29.707621
v 193.071899 6.047568 -29.707621
v 193.005371 8.326224 -30.020628
v 193.005371 6.019620 -30.020628
v 192.938828 8.486789 -30.333635
v 192.938828 6.044915 -30.333635
v 192.872299 8.651375 -30.646641
v 192.872299 6.124813 -30.646641
v 192.805771 8.851469 -30.959650
v 192.805771 6.258488 -30.959650
v 192.739243 9.064632 -31.272655
v 192.739243 6.441320 -31.272655
v 194.929565 9.116061 -23.132383
v 194.929565 7.043332 -23.132383
v 194.863022 8.927847 -23.445389
v 194.863022 7.160961 -23.445389
v 194.796494 8.761207 -23.758396
v 194.796494 7.277536 -23.758396
v 194.729965 8.600756 -24.071404
v 194.729965 7.380417 -24.071404
v 194.663437 8.465429 -24.384411
v 194.663437 7.468495 -24.384411
v 194.596893 8.330103 -24.697418
v 194.596893 7.524854 -24.697418
v 194.530365 8.222445 -25.010426
v 194.530365 7.534249 -25.010426
v 194.463837 8.116375 -25.323433
v 194.463837 7.504956 -25.323433
v 194.397308 8.027643 -25.636440
v 194.397308 7.439149 -25.636440
v 194.330780 7.949316 -25.949448
v 194.330780 7.326968 -25.949448
v 194.264236 7.877659 -26.262455
v 194.264236 7.091170 -26.262455
v 194.197708 7.826006 -26.575462
v 194.197708 6.694463 -26.575462
v 194.131180 7.774354 -26.888470
v 194.131180 6.323039 -26.888470
v 194.064651 7.744440 -27.201477
v 194.064651 6.089859 -27.201477
v 193.998108 7.718779 -27.514484
v 193.998108 5.951611 -27.514484
v 193.931580 7.703363 -27.827492
v 193.931580 5.883716 -27.827492
v 193.865051 7.703363 -28.140499
v 193.865051 5.917421 -28.140499
v 193.798523 7.703362 -28.453506
v 193.798523 6.025614 -28.453506
v 193.731995 7.727850 -28.766514
v 193.731995 6.155754 -28.766514
v 193.665451 7.753511 -29.079521
v 193.665451 6.193251 -29.079521
v 193.598923 7.792614 -29.392527
v 193.598923 6.098509 -29.392527
v 193.532394 7.844265 -29.705534
v 193.532394 5.918943 -29.705534
v 193.465866 7.898678 -30.018543
v 193.465866 5.852566 -30.018543
v 193.399323 7.977005 -30.331549
v 193.399323 5.847787 -30.331549
v 193.332794 8.055333 -30.644556
v 193.332794 5.899266 -30.644556
v 193.266266 8.153873 -30.957563
v 193.266266 6.025070 -30.957563
v 193.199738 8.259942 -31.270571
v 193.199738 6.258832 -31.270571
v 193.133209 8.377941 -31.583578
v 193.133209 6.447364 -31.583578
v 193.066666 8.513268 -31.896585
v 193.066666 6.536041 -31.896585
v 193.000137 8.653478 -32.209595
v 193.000137 6.602927 -32.209595
v 192.933609 8.820117 -32.522598
v 192.933609 6.599075 -32.522598
v 192.867081 8.986756 -32.835609
v 192.867081 6.497176 -32.835609
v 192.800537 9.187004 -33.148613
v 192.800537 6.058609 -33.148613
v 195.389740 9.217384 -23.131802
v 195.389740 7.113133 -23.131802
v 195.323212 9.017756 -23.444809
v 195.323212 7.196597 -23.444809
v 195.256668 8.847031 -23.757816
v 195.256668 7.303102 -23.757816
v 195.190140 8.681215 -24.070822
v 195.190140 7.394611 -24.070822
v 195.123611 8.536419 -24.383829
v 195.123611 7.462914 -24.383829
v 195.057083 8.401728 -24.696836
v 195.057083 7.489109 -24.696836
v 194.990540 8.279053 -25.009844
v 194.990540 7.483835 -25.009844
v 194.924011 8.173461 -25.322851
v 194.924011 7.444970 -25.322851
v 194.857483 8.070130 -25.635859
v 194.857483 7.387991 -25.635859
v 194.790955 7.992146 -25.948866
v 194.790955 7.321372 -25.948866
v 194.724426 7.914162 -26.261873
v 194.724426 7.240903 -26.261873
v 194.657883 7.854685 -26.574881
v 194.657883 7.031548 -26.574881
v 194.591354 7.803253 -26.887888
v 194.591354 6.748706 -26.887888
v 194.524826 7.758898 -27.200895
v 194.524826 6.535597 -27.200895
v 194.458298 7.733346 -27.513903
v 194.458298 6.405995 -27.513903
v 194.391754 7.707794 -27.826908
v 194.391754 6.314115 -27.826908
v 194.325226 7.703362 -28.139917
v 194.325226 6.323821 -28.139917
v 194.258698 7.703362 -28.452925
v 194.258698 6.409298 -28.452925
v 194.192169 7.712863 -28.765930
v 194.192169 6.498832 -28.765930
v 194.125641 7.738415 -29.078938
v 194.125641 6.474261 -29.078938
v 194.059097 7.763967 -29.391945
v 194.059097 6.241705 -29.391945
v 193.992569 7.813457 -29.704952
v 193.992569 5.950533 -29.704952
v 193.926041 7.864889 -30.017960
v 193.926041 5.842442 -30.017960
v 193.859512 7.929634 -30.330967
v 193.859512 5.817060 -30.330967
v 193.792969 8.007618 -30.643974
v 193.792969 5.854050 -30.643974
v 193.726440 8.088819 -30.956982
v 193.726440 5.963828 -30.956982
v 193.659912 8.194409 -31.269989
v 193.659912 6.177318 -31.269989
v 193.593384 8.300000 -31.582996
v 193.593384 6.421763 -31.582996
v 193.526855 8.428449 -31.896004
v 193.526855 6.547235 -31.896004
v 193.460312 8.563140 -32.209011
v 193.460312 6.598429 -32.209011
v 193.393784 8.714110 -32.522018
v 193.393784 6.616474 -32.522018
v 193.327255 8.879927 -32.835026
v 193.327255 6.653273 -32.835026
v 193.260727 9.057360 -33.148033
v 193.260727 6.356455 -33.148033
v 195.783035 9.119034 -23.445858
v 195.783035 7.185851 -23.445858
v 195.716507 8.931969 -23.758865
v 195.716507 7.283679 -23.758865
v 195.649979 8.766948 -24.071873
v 195.649979 7.375910 -24.071873
v 195.583435 8.606681 -24.384880
v 195.583435 7.452718 -24.384880
v 195.516907 8.472605 -24.697887
v 195.516907 7.484209 -24.697887
v 195.450378 8.338529 -25.010895
v 195.450378 7.475588 -25.010895
v 195.383850 8.229954 -25.323902
v 195.383850 7.442335 -25.323902
v 195.317307 8.124826 -25.636909
v 195.317307 7.388073 -25.636909
v 195.250778 8.034531 -25.949917
v 195.250778 7.328382 -25.949917
v 195.184250 7.956879 -26.262924
v 195.184250 7.260301 -26.262924
v 195.117722 7.883062 -26.575932
v 195.117722 7.150908 -26.575932
v 195.051193 7.831845 -26.888939
v 195.051193 6.995412 -26.888939
v 194.984650 7.780628 -27.201946
v 194.984650 6.861895 -27.201946
v 194.918121 7.747755 -27.514954
v 194.918121 6.785693 -27.514954
v 194.851593 7.722308 -27.827961
v 194.851593 6.771777 -27.827961
v 194.785065 7.703360 -28.140968
v 194.785065 6.822323 -28.140968
v 194.718521 7.703360 -28.453976
v 194.718521 6.913120 -28.453976
v 194.651993 7.703360 -28.766983
v 194.651993 7.010905 -28.766983
v 194.585464 7.723493 -29.079990
v 194.585464 6.967452 -29.079990
v 194.518936 7.748940 -29.392998
v 194.518936 6.779748 -29.392998
v 194.452393 7.783014 -29.706003
v 194.452393 6.273884 -29.706003
v 194.385864 7.834230 -30.019011
v 194.385864 6.062442 -30.019011
v 194.319336 7.885448 -30.332020
v 194.319336 5.925410 -30.332020
v 194.252808 7.960495 -30.645025
v 194.252808 5.936522 -30.645025
v 194.186279 8.038148 -30.958033
v 194.186279 6.026939 -30.958033
v 194.119736 8.129725 -31.271038
v 194.119736 6.217732 -31.271038
v 194.053207 8.234851 -31.584045
v 194.053207 6.487473 -31.584045
v 193.986679 8.344774 -31.897053
v 193.986679 6.635184 -31.897053
v 193.920151 8.478850 -32.210060
v 193.920151 6.681167 -32.210060
v 193.853607 8.612926 -32.523067
v 193.853607 6.679903 -32.523067
v 193.787079 8.774634 -32.836075
v 193.787079 6.675539 -32.836075
v 193.720551 8.939656 -33.149082
v 193.720551 6.583917 -33.149082
v 193.654022 9.128284 -33.462090
v 193.654022 6.132319 -33.462090
v 196.242447 9.219248 -23.448881
v 196.242447 7.229696 -23.448881
v 196.175919 9.021606 -23.761889
v 196.175919 7.337472 -23.761889
v 196.109375 8.851776 -24.074896
v 196.109375 7.454804 -24.074896
v 196.042847 8.687517 -24.387901
v 196.042847 7.558802 -24.387901
v 195.976318 8.542727 -24.700909
v 195.976318 7.612144 -24.700909
v 195.909790 8.409239 -25.013916
v 195.909790 7.600464 -25.013916
v 195.843262 8.285831 -25.326923
v 195.843262 7.558968 -25.326923
v 195.776718 8.181149 -25.639931
v 195.776718 7.507479 -25.639931
v 195.710190 8.076467 -25.952938
v 195.710190 7.438317 -25.952938
v 195.643661 7.999109 -26.265945
v 195.643661 7.363356 -26.265945
v 195.577133 7.921775 -26.578953
v 195.577133 7.261721 -26.578953
v 195.510590 7.860102 -26.891960
v 195.510590 7.106648 -26.891960
v 195.444061 7.809091 -27.204967
v 195.444061 6.978573 -27.204967
v 195.377533 7.761990 -27.517975
v 195.377533 6.925317 -27.517975
v 195.311005 7.736645 -27.830982
v 195.311005 6.949693 -27.830982
v 195.244476 7.711299 -28.143990
v 195.244476 7.055181 -28.143990
v 195.177933 7.703359 -28.456997
v 195.177933 7.190938 -28.456997
v 195.111404 7.703359 -28.770004
v 195.111404 7.277865 -28.770004
v 195.044876 7.708765 -29.083012
v 195.044876 7.312748 -29.083012
v 194.978348 7.734109 -29.396019
v 194.978348 7.195413 -29.396019
v 194.911804 7.759455 -29.709026
v 194.911804 6.908336 -29.709026
v 194.845276 7.803988 -30.022034
v 194.845276 6.496983 -30.022034
v 194.778748 7.855000 -30.335041
v 194.778748 6.301691 -30.335041
v 194.712219 7.914042 -30.648048
v 194.712219 6.224607 -30.648048
v 194.645691 7.991374 -30.961054
v 194.645691 6.276200 -30.961054
v 194.579147 8.068709 -31.274061
v 194.579147 6.424907 -31.274061
v 194.512619 8.170680 -31.587069
v 194.512619 6.673286 -31.587069
v 194.446091 8.275362 -31.900076
v 194.446091 6.830332 -31.900076
v 194.379562 8.395889 -32.213081
v 194.379562 6.873719 -32.213081
v 194.313019 8.529376 -32.526093
v 194.313019 6.815040 -32.526093
v 194.246490 8.671090 -32.839096
v 194.246490 6.749553 -32.839096
v 194.179962 8.835349 -33.152107
v 194.179962 6.703783 -33.152107
v 194.113434 9.001842 -33.465111
v 194.113434 6.414572 -33.465111
v 194.046906 9.199483 -33.778118
v 194.046906 6.020596 -33.778118
v 196.634735 9.121735 -23.767687
v 196.634735 7.382166 -23.767687
v 196.568207 8.935722 -24.080694
v 196.568207 7.552672 -24.080694
v 196.501678 8.772175 -24.393702
v 196.501678 7.691583 -24.393702
v 196.435135 8.612082 -24.706709
v 196.435135 7.806209 -24.706709
v 196.368607 8.479147 -25.019716
v 196.368607 7.836882 -25.019716
v 196.302078 8.346211 -25.332722
v 196.302078 7.819184 -25.332722
v 196.235550 8.236805 -25.645729
v 196.235550 7.763450 -25.645729
v 196.169006 8.132538 -25.958736
v 196.169006 7.692320 -25.958736
v 196.102478 8.040818 -26.271744
v 196.102478 7.609852 -26.271744
v 196.035950 7.963783 -26.584751
v 196.035950 7.516354 -26.584751
v 195.969421 7.887996 -26.897758
v 195.969421 7.385444 -26.897758
v 195.902893 7.837177 -27.210766
v 195.902893 7.226725 -27.210766
v 195.836349 7.786359 -27.523773
v 195.836349 7.103671 -27.523773
v 195.769821 7.750784 -27.836781
v 195.769821 7.090208 -27.836781
v 195.703293 7.725532 -28.149788
v 195.703293 7.212877 -28.149788
v 195.636765 7.703357 -28.462795
v 195.636765 7.410340 -28.462795
v 195.570221 7.703357 -28.775803
v 195.570221 7.532382 -28.775803
v 195.503693 7.703358 -29.088810
v 195.503693 7.577306 -29.088810
v 195.437164 7.719510 -29.401817
v 195.437164 7.497190 -29.401817
v 195.370636 7.744761 -29.714825
v 195.370636 7.355347 -29.714825
v 195.304108 7.774238 -30.027832
v 195.304108 7.058679 -30.027832
v 195.237564 7.825057 -30.340839
v 195.237564 6.820441 -30.340839
v 195.171036 7.875875 -30.653847
v 195.171036 6.688768 -30.653847
v 195.104507 7.945411 -30.966854
v 195.104507 6.695389 -30.966854
v 195.037979 8.022446 -31.279861
v 195.037979 6.814569 -31.279861
v 194.971436 8.107669 -31.592869
v 194.971436 7.018279 -31.592869
v 194.904907 8.211936 -31.905874
v 194.904907 7.164229 -31.905874
v 194.838379 8.316203 -32.218880
v 194.838379 7.196840 -32.218880
v 194.771851 8.447440 -32.531891
v 194.771851 7.111654 -32.531891
v 194.705322 8.580375 -32.844894
v 194.705322 6.942998 -32.844894
v 194.638779 8.733167 -33.157906
v 194.638779 6.810647 -33.157906
v 194.572250 8.896714 -33.470909
v 194.572250 6.644486 -33.470909
v 194.505722 9.074812 -33.783920
v 194.505722 6.260363 -33.783920
l 1 2
l 3 4
l 5 6
l 7 8
l 9 10
l 11 12
l 13 14
l 15 16
l 17 18
l 19 20
l 21 22
l 23 24
l 25 26
l 27 28
l 29 30
l 31 32
l 33 34
l 35 36
l 37 38
l 39 40
l 41 42
l 43 44
l 45 46
l 47 48
l 49 50
l 51 52
l 53 54
l 55 56
l 57 58
l 59 60
l 61 62
l 63 64
l 65 66
l 67 68
l 69 70
l 71 72
l 73 74
l 75 76
l 77 78
l 79 80
l 81 82
l 83 84
l 85 86
l 87 88
l 89 90
l 91 92
l 93 94
l 95 96
l 97 98
l 99 100
l 101 102
l 103 104
l 105 106
l 107 108
l 109 110
l 111 112
l 113 114
l 115 116
l 117 118
l 119 120
l 121 122
l 123 124
l 125 126
l 127 128
l 129 130
l 131 132
l 133 134
l 135 136
l 137 138
l 139 140
l 141 142
l 143 144
l 145 146
l 147 148
l 149 150
l 151 152
l 153 154
l 155 156
l 157 158
l 159 160
l 161 162
l 163 164
l 165 166
l 167 168
l 169 170
l 171 172
l 173 174
l 175 176
l 177 178
l 179 180
l 181 182
l 183 184
l 185 186
l 187 188
l 189 190
l 191 192
l 193 194
l 195 196
l 197 198
l 199 200
l 201 202
l 203 204
l 205 206
l 207 208
l 209 210
l 211 212
l 213 214
l 215 216
l 217 218
l 219 220
l 221 222
l 223 224
l 225 226
l 227 228
l 229 230
l 231 232
l 233 234
l 235 236
l 237 238
l 239 240
l 241 242
l 243 244
l 245 246
l 247 248
l 249 250
l 251 252
l 253 254
l 255 256
l 257 258
l 259 260
l 261 262
l 263 264
l 265 266
l 267 268
l 269 270
l 271 272
l 273 274
l 275 276
l 277 278
l 279 280
l 281 282
l 283 284
l 285 286
l 287 288
l 289 290
l 291 292
l 293 294
l 295 296
l 297 298
l 299 300
l 301 302
l 303 304
l 305 306
l 307 308
l 309 310
l 311 312
l 313 314
l 315 316
l 317 318
l 319 320
l 321 322
l 323 324
l 325 326
l 327 328
l 329 330
l 331 332
l 333 334
l 335 336
l 337 338
l 339 340
l 341 342
l 343 344
l 345 346
l 347 348
l 349 350
l 351 352
l 353 354
l 355 356
l 357 358
l 359 360
l 361 362
l 363 364
l 365 366
l 367 368
l 369 370
l 371 372
l 373 374
l 375 376
l 377 378
l 379 380
l 381 382
l 383 384
l 385 386
l 387 388
l 389 390
l 391 392
l 393 394
l 395 396
l 397 398
l 399 400
l 401 402
l 403 404
l 405 406
l 407 408
l 409 410
l 411 412
l 413 414
l 415 416
l 417 418
l 419 420
l 421 422
l 423 424
l 425 426
l 427 428
l 429 430
l 431 432
l 433 434
l 435 436
l 437 438
l 439 440
l 441 442
l 443 444
l 445 446
l 447 448
l 449 450
l 451 452
l 453 454
l 455 456
l 457 458
l 459 460
l 461 462
l 463 464
l 465 466
l 467 468
l 469 470
l 471 472
l 473 474
l 475 476
l 477 478
l 479 480
l 481 482
l 483 484
l 485 486
l 487 488
l 489 490
l 491 492
l 493 494
l 495 496
l 497 498
l 499 500
l 501 502
l 503 504
l 505 506
l 507 508
l 509 510
l 511 512
l 513 514
l 515 516
l 517 518
l 519 520
l 521 522
l 523 524
l 525 526
l 527 528
l 529 530
l 531 532
l 533 534
l 535 536
l 537 538
l 539 540
l 541 542
l 543 544
l 545 546
l 547 548
l 549 550
l 551 552
l 553 554
l 555 556
l 557 558
l 559 560
l 561 562
l 563 564
l 565 566
l 567 568
l 569 570
l 571 572
l 573 574
l 575 576
l 577 578
l 579 580
l 581 582
l 583 584
l 585 586
l 587 588
l 589 590
l 591 592
l 593 594
l 595 596
l 597 598
l 599 600
l 601 602
l 603 604
l 605 606
l 607 608
l 609 610
l 611 612
l 613 614
l 615 616
l 617 618
l 619 620
l 621 622
l 623 624
l 625 626
l 627 628
l 629 630
l 631 632
l 633 634
l 635 636
l 637 638
l 639 640
l 641 642
l 643 644
l 645 646
l 647 648
l 649 650
l 651 652
l 653 654
l 655 656
l 657 658
l 659 660
l 661 662
l 663 664
l 665 666
l 667 668
l 669 670
l 671 672
l 673 674
l 675 676
l 677 678
l 679 680
l 681 682
l 683 684
l 685 686
l 687 688
l 689 690
l 691 692
l 693 694
l 695 696
l 697 698
l 699 700
l 701 702
l 703 704
l 705 706
l 707 708
l 709 710
l 711 712
l 713 714
l 715 716
l 717 718
l 719 720
l 721 722
l 723 724
l 725 726
l 727 728
l 729 730
l 731 732
l 733 734
l 735 736
l 737 738
l 739 740
l 741 742
l 743 744
l 745 746
l 747 748
l 749 750
l 751 752
l 753 754
l 755 756
l 757 758
l 759 760
l 761 762
l 763 764
l 765 766
l 767 768
l 769 770
l 771 772
l 773 774
l 775 776
l 777 778
l 779 780
l 781 782
l 783 784
l 785 786
l 787 788
l 789 790
l 791 792
l 793 794
l 795 796
l 797 798
l 799 800
l 801 802
l 803 804
l 805 806
l 807 808
l 809 810
l 811 812
l 813 814
l 815 816
l 817 818
l 819 820
l 821 822
l 823 824
l 825 826
l 827 828
l 829 830
l 831 832
l 833 834
l 835 836
l 837 838
l 839 840
l 841 842
l 843 844
l 845 846
l 847 848
l 849 850
l 851 852
l 853 854
l 855 856
l 857 858
l 859 860
l 861 862
l 863 864
l 865 866
l 867 868
l 869 870
l 871 872
l 873 874
l 875 876
l 877 878
l 879 880
l 881 882
l 883 884
l 885 886
l 887 888
l 889 890
l 891 892
l 893 894
l 895 896
l 897 898
l 899 900
l 901 902
l 903 904
l 905 906
l 907 908
l 909 910
l 911 912
l 913 914
l 915 916
l 917 918
l 919 920
l 921 922
l 923 924
l 925 926
l 927 928
l 929 930
l 931 932
l 933 934
l 935 936
l 937 938
l 939 940
l 941 942
l 943 944
l 945 946
l 947 948
l 949 950
l 951 952
l 953 954
l 955 956
l 957 958
l 959 960
l 961 962
l 963 964
l 965 966
l 967 968
l 969 970
l 971 972
l 973 974
l 975 976
l 977 978
l 979 980
l 981 982
l 983 984
l 985 986
l 987 988
l 989 990
l 991 992
l 993 994
l 995 996
l 997 998
l 999 1000
l 1001 1002
l 1003 1004
l 1005 1006
l 1007 1008
l 1009 1010
l 1011 1012
l 1013 1014
l 1015 1016
l 1017 1018
l 1019 1020
l 1021 1022
l 1023 1024
l 1025 1026
l 1027 1028
l 1029 1030
l 1031 1032
l 1033 1034
l 1035 1036
l 1037 1038
l 1039 1040
l 1041 1042
l 1043 1044
l 1045 1046
l 1047 1048
l 1049 1050
l 1051 1052
l 1053 1054
l 1055 1056
l 1057 1058
l 1059 1060
l 1061 1062
l 1063 1064
l 1065 1066
l 1067 1068
l 1069 1070
l 1071 1072
l 1073 1074
l 1075 1076
l 1077 1078
l 1079 1080
l 1081 1082
l 1083 1084
l 1085 1086
l 1087 1088
l 1089 1090
l 1091 1092
l 1093 1094
l 1095 1096
l 1097 1098
l 1099 1100
l 1101 1102
l 1103 1104
l 1105 1106
l 1107 1108
l 1109 1110
l 1111 1112
l 1113 1114
l 1115 1116
l 1117 1118
l 1119 1120
l 1121 1122
l 1123 1124
l 1125 1126
l 1127 1128
l 1129 1130
l 1131 1132
l 1133 1134
l 1135 1136
l 1137 1138
l 1139 1140
l 1141 1142
l 1143 1144
l 1145 1146
l 1147 1148
l 1149 1150
l 1151 1152
l 1153 1154
l 1155 1156
l 1157 1158
l 1159 1160
l 1161 1162
l 1163 1164
l 1165 1166
l 1167 1168
l 1169 1170
l 1171 1172
l 1173 1174
l 1175 1176
l 1177 1178
l 1179 1180
l 1181 1182
l 1183 1184
l 1185 1186
l 1187 1188
l 1189 1190
l 1191 1192
l 1193 1194
l 1195 1196
l 1197 1198
l 1199 1200
l 1201 1202
l 1203 1204
l 1205 1206
l 1207 1208
l 1209 1210
l 1211 1212
l 1213 1214
l 1215 1216
l 1217 1218
l 1219 1220
l 1221 1222
l 1223 1224
l 1225 1226
l 1227 1228
l 1229 1230
l 1231 1232
l 1233 1234
l 1235 1236
l 1237 1238
l 1239 1240
l 1241 1242
l 1243 1244
l 1245 1246
l 1247 1248
l 1249 1250
l 1251 1252
l 1253 1254
l 1255 1256
l 1257 1258
l 1259 1260
l 1261 1262
l 1263 1264
l 1265 1266
l 1267 1268
l 1269 1270
l 1271 1272
l 1273 1274
l 1275 1276
l 1277 1278
l 1279 1280
l 1281 1282
l 1283 1284
l 1285 1286
l 1287 1288
l 1289 1290
l 1291 1292
l 1293 1294
l 1295 1296
l 1297 1298
l 1299 1300
l 1301 1302
l 1303 1304
l 1305 1306
l 1307 1308
l 1309 1310
l 1311 1312
l 1313 1314
l 1315 1316
l 1317 1318
l 1319 1320
l 1321 1322
l 1323 1324
l 1325 1326
l 1327 1328
l 1329 1330
l 1331 1332
l 1333 1334
l 1335 1336
l 1337 1338
l 1339 1340
l 1341 1342
l 1343 1344
l 1345 1346
l 1347 1348
l 1349 1350
l 1351 1352
l 1353 1354
l 1355 1356
l 1357 1358
l 1359 1360
l 1361 1362
l 1363 1364
l 1365 1366
l 1367 1368
l 1369 1370
l 1371 1372
l 1373 1374
l 1375 1376
l 1377 1378
l 1379 1380
l 1381 1382
l 1383 1384
l 1385 1386
l 1387 1388
l 1389 1390
l 1391 1392
l 1393 1394
l 1395 1396
l 1397 1398
l 1399 1400
l 1401 1402
l 1403 1404
l 1405 1406
l 1407 1408
l 1409 1410
l 1411 1412
l 1413 1414
l 1415 1416
l 1417 1418
l 1419 1420
l 1421 1422
l 1423 1424
l 1425 1426
l 1427 1428
l 1429 1430
l 1431 1432
l 1433 1434
l 1435 1436
l 1437 1438
l 1439 1440
l 1441 1442
l 1443 1444
l 1445 1446
l 1447 1448
l 1449 1450
l 1451 1452
l 1453 1454
l 1455 1456
l 1457 1458
l 1459 1460
l 1461 1462
l 1463 1464
l 1465 1466
l 1467 1468
l 1469 1470
l 1471 1472
l 1473 1474
l 1475 1476
l 1477 1478
l 1479 1480
l 1481 1482
l 1483 1484
l 1485 1486
l 1487 1488
l 1489 1490
l 1491 1492
l 1493 1494
l 1495 1496
l 1497 1498
l 1499 1500
l 1501 1502
l 1503 1504
l 1505 1506
l 1507 1508
l 1509 1510
l 1511 1512
l 1513 1514
l 1515 1516
l 1517 1518
l 1519 1520
l 1521 1522
l 1523 1524
l 1525 1526
l 1527 1528
l 1529 1530
l 1531 1532
l 1533 1534
l 1535 1536
l 1537 1538
l 1539 1540
l 1541 1542
l 1543 1544
l 1545 1546
l 1547 1548
l 1549 1550
l 1551 1552
l 1553 1554
l 1555 1556
l 1557 1558
l 1559 1560
l 1561 1562
l 1563 1564
l 1565 1566
l 1567 1568
l 1569 1570
l 1571 1572
l 1573 1574
l 1575 1576
l 1577 1578
l 1579 1580
l 1581 1582
l 1583 1584
l 1585 1586
l 1587 1588
l 1589 1590
l 1591 1592
l 1593 1594
l 1595 1596
l 1597 1598
l 1599 1600
l 1601 1602
l 1603 1604
l 1605 1606
l 1607 1608
l 1609 1610
l 1611 1612
l 1613 1614
l 1615 1616
l 1617 1618
l 1619 1620
l 1621 1622
l 1623 1624
l 1625 1626
l 1627 1628
l 1629 1630
l 1631 1632
l 1633 1634
l 1635 1636
l 1637 1638
l 1639 1640
l 1641 1642
l 1643 1644
l 1645 1646
l 1647 1648
l 1649 1650
l 1651 1652
l 1653 1654
l 1655 1656
l 1657 1658
l 1659 1660
l 1661 1662
l 1663 1664
l 1665 1666
l 1667 1668
l 1669 1670
l 1671 1672
l 1673 1674
l 1675 1676
l 1677 1678
l 1679 1680
l 1681 1682
l 1683 1684
l 1685 1686
l 1687 1688
l 1689 1690
l 1691 1692
l 1693 1694
l 1695 1696
l 1697 1698
l 1699 1700
l 1701 1702
l 1703 1704
l 1705 1706
l 1707 1708
l 1709 1710
l 1711 1712
l 1713 1714
l 1715 1716
l 1717 1718
l 1719 1720
l 1721 1722
l 1723 1724
l 1725 1726
l 1727 1728
l 1729 1730
l 1731 1732
l 1733 1734
l 1735 1736
l 1737 1738
