# Blender 5.0.0
# www.blender.org
mtllib LineBased_BulbCables_GlobalPos.mtl
o LineBased_BulbCables_GlobalPos
v 0.000000 0.000000 0.000000
v 1.000000 0.000000 0.000000
v 0.000000 0.000000 0.000000
v 0.000000 -0.000000 -1.000000
v 0.000000 0.000000 0.000000
v 0.000000 1.000000 -0.000000
v 184.901718 3.009896 -20.528919
v 185.901718 3.009896 -20.528919
v 184.901718 3.009896 -20.528919
v 184.901718 3.009896 -21.528919
v 184.901718 3.009896 -20.528919
v 184.901718 4.009897 -20.528919
v 184.887726 9.230854 -20.594778
v 184.887726 6.499896 -20.594778
v 184.831833 9.057172 -20.857668
v 184.831833 6.861040 -20.857668
v 184.774277 8.897261 -21.128487
v 184.774277 7.231822 -21.128487
v 184.715637 8.746174 -21.404387
v 184.715637 7.569195 -21.404387
v 184.656464 8.600250 -21.682730
v 184.656464 7.722461 -21.682730
v 184.595444 8.472752 -21.969822
v 184.595444 7.714990 -21.969822
v 184.534424 8.345256 -22.256912
v 184.534424 7.556044 -22.256912
v 184.471756 8.238001 -22.551704
v 184.471756 7.298333 -22.551704
v 184.408768 8.134940 -22.848104
v 184.408768 6.917910 -22.848104
v 184.345093 8.042908 -23.147655
v 184.345093 6.432232 -23.147655
v 184.280563 7.965025 -23.451216
v 184.280563 6.088253 -23.451216
v 184.215988 7.888362 -23.755007
v 184.215988 6.047639 -23.755007
v 184.150345 7.836131 -24.063883
v 184.150345 6.149919 -24.063883
v 184.084686 7.783902 -24.372753
v 184.084686 6.356022 -24.372753
v 184.018631 7.748794 -24.683516
v 184.018631 6.601780 -24.683516
v 183.952377 7.722617 -24.995222
v 183.952377 6.732941 -24.995222
v 183.886047 7.703375 -25.307274
v 183.886047 6.808494 -25.307274
v 183.819519 7.703375 -25.620281
v 183.819519 6.969604 -25.620281
v 183.752991 7.703375 -25.933289
v 183.752991 7.201694 -25.933289
v 183.686691 7.726263 -26.245159
v 183.686691 7.421996 -26.245159
v 183.620438 7.752440 -26.556868
v 183.620438 7.594331 -26.556868
v 183.554443 7.791191 -26.867317
v 183.554443 7.687744 -26.867317
v 183.488754 7.843460 -27.176418
v 183.488754 7.720956 -27.176418
v 183.423157 7.898132 -27.485020
v 183.423157 7.704771 -27.485020
v 183.358582 7.976082 -27.788839
v 183.358582 7.636422 -27.788839
v 183.293991 8.054032 -28.092665
v 183.293991 7.527610 -28.092665
v 183.230515 8.149704 -28.391315
v 183.230515 7.377543 -28.391315
v 183.167374 8.252993 -28.688370
v 183.167374 7.191333 -28.688370
v 183.104904 8.363997 -28.982246
v 183.104904 6.976670 -28.982246
v 183.043900 8.491454 -29.269249
v 183.043900 6.747600 -29.269249
v 182.982895 8.618910 -29.556250
v 182.982895 6.523041 -29.556250
v 182.923981 8.768541 -29.833420
v 182.923981 6.318969 -29.833420
v 182.865234 8.919912 -30.109837
v 182.865234 6.131154 -30.109837
v 182.807999 9.083484 -30.379120
v 182.807999 5.968285 -30.379120
v 185.314102 9.144874 -20.753160
v 185.314102 6.624797 -20.753160
v 185.257874 8.974043 -21.017719
v 185.257874 6.919626 -21.017719
v 185.199173 8.823465 -21.293896
v 185.199173 7.190010 -21.293896
v 185.140472 8.672901 -21.570051
v 185.140472 7.443121 -21.570051
v 185.080109 8.538848 -21.854010
v 185.080109 7.449537 -21.854010
v 185.019058 8.411827 -22.141226
v 185.019058 7.294354 -22.141226
v 184.957413 8.292177 -22.431242
v 184.957413 7.050519 -22.431242
v 184.894409 8.189507 -22.727701
v 184.894409 6.775311 -22.727701
v 184.831390 8.086832 -23.024172
v 184.831390 6.351666 -23.024172
v 184.766998 8.006832 -23.327080
v 184.766998 6.053801 -23.327080
v 184.702469 7.929241 -23.630678
v 184.702469 5.893978 -23.630678
v 184.637375 7.864543 -23.936941
v 184.637375 5.919610 -23.936941
v 184.571716 7.812507 -24.245832
v 184.571716 6.077178 -24.245832
v 184.505997 7.763222 -24.555037
v 184.505997 6.364144 -24.555037
v 184.439743 7.737142 -24.866749
v 184.439743 6.585790 -24.866749
v 184.373474 7.711061 -25.178459
v 184.373474 6.718365 -25.178459
v 184.307037 7.703374 -25.491085
v 184.307037 6.800873 -25.491085
v 184.240494 7.703375 -25.804092
v 184.240494 6.990090 -25.804092
v 184.174057 7.711364 -26.116703
v 184.174057 7.257683 -26.116703
v 184.107788 7.737443 -26.428415
v 184.107788 7.476348 -26.428415
v 184.041534 7.763523 -26.740128
v 184.041534 7.640905 -26.740128
v 183.975784 7.813139 -27.049486
v 183.975784 7.732658 -27.049486
v 183.910080 7.865212 -27.358601
v 183.910080 7.754150 -27.358601
v 183.844940 7.930303 -27.665049
v 183.844940 7.714180 -27.665049
v 183.780350 8.007961 -27.968906
v 183.780350 7.653948 -27.968906
v 183.715942 8.088396 -28.271914
v 183.715942 7.563045 -28.271914
v 183.652817 8.191254 -28.568911
v 183.652817 7.413669 -28.568911
v 183.589615 8.294231 -28.866255
v 183.589615 7.216489 -28.866255
v 183.527985 8.414435 -29.156240
v 183.527985 6.999496 -29.156240
v 183.466949 8.541405 -29.443340
v 183.466949 6.764611 -29.443340
v 183.406631 8.675956 -29.727119
v 183.406631 6.520511 -29.727119
v 183.347824 8.826792 -30.003773
v 183.347824 6.333739 -30.003773
v 183.289032 8.977627 -30.280424
v 183.289032 6.127860 -30.280424
v 183.232773 9.149248 -30.545059
v 183.232773 5.922123 -30.545059
v 185.796356 9.232025 -20.648758
v 185.796356 6.553082 -20.648758
v 185.740311 9.059515 -20.912384
v 185.740311 6.740883 -20.912384
v 185.682663 8.900314 -21.183613
v 185.682663 6.952333 -21.183613
v 185.623901 8.750286 -21.460051
v 185.623901 7.146745 -21.460051
v 185.564713 8.604570 -21.738554
v 185.564713 7.206975 -21.738554
v 185.503601 8.477980 -22.026051
v 185.503601 7.153562 -22.026051
v 185.442490 8.351381 -22.313562
v 185.442490 6.952507 -22.313562
v 185.379883 8.243688 -22.608093
v 185.379883 6.621230 -22.608093
v 185.316849 8.141417 -22.904638
v 185.316849 6.280498 -22.904638
v 185.253265 8.048367 -23.203802
v 185.253265 5.980540 -23.203802
v 185.188721 7.971081 -23.507433
v 185.188721 5.790634 -23.507433
v 185.124191 7.893800 -23.811043
v 185.124191 5.789690 -23.811043
v 185.058563 7.840961 -24.119761
v 185.058563 5.902357 -24.119761
v 184.992920 7.789139 -24.428606
v 184.992920 6.110389 -24.428606
v 184.926926 7.751602 -24.739090
v 184.926926 6.372313 -24.739090
v 184.860672 7.725624 -25.050806
v 184.860672 6.572097 -25.050806
v 184.794373 7.703371 -25.362709
v 184.794373 6.678628 -25.362709
v 184.727844 7.703371 -25.675716
v 184.727844 6.781388 -25.675716
v 184.661301 7.703371 -25.988724
v 184.661301 6.964446 -25.988724
v 184.594971 7.722484 -26.300781
v 184.594971 7.232242 -26.300781
v 184.528717 7.748463 -26.612497
v 184.528717 7.462875 -26.612497
v 184.462646 7.782884 -26.923370
v 184.462646 7.657375 -26.923370
v 184.396942 7.834753 -27.232500
v 184.396942 7.787464 -27.232500
v 184.331223 7.886622 -27.541630
v 184.331223 7.823317 -27.541630
v 184.266541 7.961950 -27.845949
v 184.266541 7.810580 -27.845949
v 184.201950 8.039309 -28.149864
v 184.201950 7.806361 -28.149864
v 184.138168 8.129449 -28.449917
v 184.138168 7.723816 -28.449917
v 184.074982 8.231966 -28.747173
v 184.074982 7.571107 -28.747173
v 184.012009 8.337188 -29.043457
v 184.012009 7.388128 -29.043457
v 183.950958 8.463651 -29.330662
v 183.950958 7.191305 -29.330662
v 183.889908 8.590114 -29.617867
v 183.889908 6.984575 -29.617867
v 183.830414 8.733221 -29.897758
v 183.830414 6.767975 -29.897758
v 183.771591 8.883436 -30.174543
v 183.771591 6.524209 -30.174543
v 183.713562 9.040294 -30.447498
v 183.713562 6.271174 -30.447498
v 183.657486 9.212961 -30.711365
v 183.657486 6.132339 -30.711365
v 186.155441 9.140074 -21.123791
v 186.155441 6.905834 -21.123791
v 186.099487 8.967127 -21.386980
v 186.099487 7.047452 -21.386980
v 186.041107 8.813675 -21.661627
v 186.041107 7.106263 -21.661627
v 185.982742 8.660231 -21.936260
v 185.982742 7.055464 -21.936260
v 185.922409 8.525750 -22.220104
v 185.922409 6.826936 -22.220104
v 185.861557 8.396176 -22.506371
v 185.861557 6.558484 -22.506371
v 185.799820 8.277576 -22.796801
v 185.799820 6.267015 -22.796801
v 185.736954 8.172825 -23.092617
v 185.736954 5.962072 -23.092617
v 185.673920 8.070337 -23.389103
v 185.673920 5.818988 -23.389103
v 185.609451 7.991119 -23.692463
v 185.609451 5.768769 -23.692463
v 185.544968 7.911899 -23.995834
v 185.544968 5.820225 -23.995834
v 185.479630 7.851898 -24.303196
v 185.479630 5.966511 -24.303196
v 185.414001 7.798772 -24.611990
v 185.414001 6.176120 -24.611990
v 185.348114 7.755834 -24.921936
v 185.348114 6.371436 -24.921936
v 185.281860 7.729209 -25.233624
v 185.281860 6.571590 -25.233624
v 185.215607 7.703384 -25.545351
v 185.215607 6.722195 -25.545351
v 185.149078 7.703384 -25.858356
v 185.149078 6.833774 -25.858356
v 185.082535 7.703385 -26.171364
v 185.082535 6.992691 -26.171364
v 185.016205 7.721413 -26.483479
v 185.016205 7.143914 -26.483479
v 184.949951 7.748037 -26.795164
v 184.949951 7.342229 -26.795164
v 184.883881 7.783219 -27.105997
v 184.883881 7.557077 -27.105997
v 184.818192 7.836387 -27.415035
v 184.818192 7.722621 -27.415035
v 184.752502 7.889555 -27.724073
v 184.752502 7.767031 -27.724073
v 184.687927 7.968120 -28.027853
v 184.687927 7.728207 -28.027853
v 184.623398 8.047394 -28.331427
v 184.623398 7.728230 -28.331427
v 184.559906 8.142517 -28.630184
v 184.559906 7.663158 -28.630184
v 184.497055 8.247226 -28.925880
v 184.497055 7.546721 -28.925880
v 184.434708 8.358665 -29.219151
v 184.434708 7.447133 -29.219151
v 184.373810 8.488356 -29.505672
v 184.373810 7.315940 -29.505672
v 184.312912 8.618052 -29.792208
v 184.312912 7.203453 -29.792208
v 184.254288 8.769646 -30.067959
v 184.254288 7.059629 -30.067959
v 184.195892 8.923152 -30.342705
v 184.195892 6.853242 -30.342705
v 184.139114 9.089584 -30.609795
v 184.139114 6.636343 -30.609795
v 186.429123 9.061056 -22.000576
v 186.429123 7.016860 -22.000576
v 186.374893 8.875658 -22.255697
v 186.374893 6.750584 -22.255697
v 186.317947 8.710594 -22.523638
v 186.317947 6.434592 -22.523638
v 186.260452 8.549557 -22.794132
v 186.260452 6.139093 -22.794132
v 186.201096 8.405723 -23.073381
v 186.201096 5.881679 -23.073381
v 186.140808 8.270406 -23.356956
v 186.140808 5.767064 -23.356956
v 186.079376 8.148559 -23.645990
v 186.079376 5.735118 -23.645990
v 186.016800 8.040033 -23.940386
v 186.016800 5.776735 -23.940386
v 185.953629 7.940842 -24.237600
v 185.953629 5.904599 -24.237600
v 185.889267 7.860006 -24.540379
v 185.889267 6.149906 -24.540379
v 185.824692 7.784008 -24.844219
v 185.824692 6.415219 -24.844219
v 185.759064 7.731515 -25.152927
v 185.759064 6.663670 -25.152927
v 185.693451 7.679171 -25.461649
v 185.693451 6.842482 -25.461649
v 185.627151 7.655470 -25.773581
v 185.627151 6.946335 -25.773581
v 185.560913 7.631795 -26.085155
v 185.560913 6.988570 -26.085155
v 185.494431 7.632334 -26.397928
v 185.494431 7.044698 -26.397928
v 185.427902 7.637595 -26.710936
v 185.427902 7.136518 -26.710936
v 185.361572 7.662313 -27.022978
v 185.361572 7.289876 -27.022978
v 185.295349 7.696549 -27.334547
v 185.295349 7.508536 -27.334547
v 185.229584 7.745370 -27.643925
v 185.229584 7.481265 -27.643925
v 185.164276 7.808292 -27.951176
v 185.164276 7.415847 -27.951176
v 185.099503 7.880906 -28.255955
v 185.099503 7.333291 -28.255955
v 185.035706 7.971897 -28.556044
v 185.035706 7.299056 -28.556044
v 184.972275 8.067821 -28.854481
v 184.972275 7.307168 -28.854481
v 184.910446 8.186249 -29.145393
v 184.910446 7.315298 -29.145393
v 184.848663 8.305040 -29.436064
v 184.848663 7.289578 -29.436064
v 184.789429 8.449606 -29.714731
v 184.789429 7.247008 -29.714731
v 184.730209 8.594147 -29.993351
v 184.730209 7.189608 -29.993351
v 184.673416 8.760174 -30.260483
v 184.673416 7.057528 -30.260483
v 184.617126 8.930008 -30.525333
v 184.617126 6.897381 -30.525333
v 184.563095 9.116197 -30.779522
v 184.563095 6.781756 -30.779522
v 186.754883 8.427153 -22.632385
v 186.754883 6.386468 -22.632385
v 186.697510 8.265764 -22.902290
v 186.697510 6.101069 -22.902290
v 186.638367 8.119266 -23.180561
v 186.638367 5.882316 -23.180561
v 186.578354 7.981794 -23.462883
v 186.578354 5.779888 -23.462883
v 186.516632 7.862116 -23.753212
v 186.516632 5.764215 -23.753212
v 186.454407 7.749543 -24.045980
v 186.454407 5.814327 -24.045980
v 186.390671 7.657722 -24.345871
v 186.390671 5.946883 -24.345871
v 186.326691 7.570907 -24.646824
v 186.326691 6.187444 -24.646824
v 186.261459 7.507719 -24.953753
v 186.261459 6.489535 -24.953753
v 186.196152 7.447224 -25.261024
v 186.196152 6.787680 -25.261024
v 186.129974 7.413220 -25.572330
v 186.129974 6.999457 -25.572330
v 186.063797 7.379530 -25.883652
v 186.063797 7.088884 -25.883652
v 185.997269 7.374998 -26.196659
v 185.997269 7.096692 -26.196659
v 185.930740 7.370467 -26.509665
v 185.930740 7.105148 -26.509665
v 185.864502 7.393308 -26.821287
v 185.864502 7.164120 -26.821287
v 185.798279 7.418237 -27.132803
v 185.798279 7.279014 -27.132803
v 185.732605 7.467926 -27.441795
v 185.732605 7.390998 -27.441795
v 185.667023 7.522199 -27.750320
v 185.667023 7.300373 -27.750320
v 185.602417 7.598499 -28.054272
v 185.602417 7.180044 -28.054272
v 185.538116 7.681660 -28.356796
v 185.538116 7.081304 -28.356796
v 185.475113 7.783985 -28.653200
v 185.475113 7.012267 -28.653200
v 185.412735 7.895203 -28.946709
v 185.412735 7.030352 -28.946709
v 185.351776 8.022764 -29.233456
v 185.351776 7.044084 -29.233456
v 185.291779 8.161194 -29.515760
v 185.291779 7.034636 -29.515760
v 185.233292 8.313097 -29.790878
v 185.233292 7.007174 -29.790878
v 185.176208 8.477473 -30.059410
v 185.176208 6.938949 -30.059410
v 185.120621 8.652618 -30.320946
v 185.120621 6.784878 -30.320946
v 185.066879 8.841814 -30.573816
v 185.066879 6.651576 -30.573816
v 185.014511 9.039235 -30.820177
v 185.014511 6.561162 -30.820177
v 187.237457 8.508965 -22.526403
v 187.237457 6.766848 -22.526403
v 187.179306 8.331881 -22.799982
v 187.179306 6.394711 -22.799982
v 187.118195 8.179728 -23.087481
v 187.118195 6.082345 -23.087481
v 187.056915 8.029037 -23.375776
v 187.056915 5.925015 -23.375776
v 186.993225 7.903866 -23.675446
v 186.993225 5.844755 -23.675446
v 186.929321 7.780822 -23.976063
v 186.929321 5.845655 -23.976063
v 186.863556 7.683654 -24.285448
v 186.863556 5.923704 -24.285448
v 186.797546 7.589243 -24.596039
v 186.797546 6.130204 -24.596039
v 186.730209 7.520829 -24.912836
v 186.730209 6.415632 -24.912836
v 186.662689 7.455949 -25.230482
v 186.662689 6.731725 -25.230482
v 186.594360 7.416888 -25.551945
v 186.594360 7.007772 -25.551945
v 186.525894 7.382056 -25.874060
v 186.525894 7.164153 -25.874060
v 186.457123 7.372649 -26.197578
v 186.457123 7.195827 -26.197578
v 186.388306 7.368157 -26.521379
v 186.388306 7.180442 -26.521379
v 186.319748 7.388419 -26.843927
v 186.319748 7.207432 -26.843927
v 186.251236 7.414250 -27.166191
v 186.251236 7.278173 -27.166191
v 186.183258 7.463975 -27.486023
v 186.183258 7.343862 -27.486023
v 186.115417 7.520007 -27.805206
v 186.115417 7.283467 -27.805206
v 186.048584 7.598923 -28.119629
v 186.048584 7.155721 -28.119629
v 185.982056 7.684688 -28.432631
v 185.982056 7.008167 -28.432631
v 185.916992 7.792109 -28.738726
v 185.916992 6.790178 -28.738726
v 185.852417 7.906769 -29.042501
v 185.852417 6.642154 -29.042501
v 185.789642 8.041780 -29.337826
v 185.789642 6.557511 -29.337826
v 185.727539 8.184433 -29.630047
v 185.727539 6.610370 -29.630047
v 185.667511 8.346013 -29.912392
v 185.667511 6.700313 -29.912392
v 185.608459 8.515254 -30.190260
v 185.608459 6.698384 -30.190260
v 185.551697 8.702014 -30.457260
v 185.551697 6.585674 -30.457260
v 185.496002 8.896963 -30.719284
v 185.496002 6.435894 -30.719284
v 185.442963 9.107515 -30.968857
v 185.442963 6.346854 -30.968857
v 187.662109 8.419430 -22.692968
v 187.662109 6.974291 -22.692968
v 187.602478 8.254053 -22.973528
v 187.602478 6.608404 -22.973528
v 187.541046 8.103935 -23.262556
v 187.541046 6.324099 -23.262556
v 187.478577 7.964671 -23.556383
v 187.478577 6.134362 -23.556383
v 187.414566 7.842182 -23.857540
v 187.414566 6.027104 -23.857540
v 187.349808 7.730149 -24.162231
v 187.349808 6.019664 -24.162231
v 187.283737 7.636284 -24.473045
v 187.283737 6.132818 -24.473045
v 187.217117 7.552288 -24.786484
v 187.217117 6.355809 -24.786484
v 187.149521 7.487791 -25.104534
v 187.149521 6.642868 -25.104534
v 187.081619 7.432599 -25.423979
v 187.081619 6.962366 -25.423979
v 187.013046 7.398042 -25.746572
v 187.013046 7.191902 -25.746572
v 186.944382 7.372083 -26.069616
v 186.944382 7.270299 -26.069616
v 186.875473 7.367779 -26.393803
v 186.875473 7.271960 -26.393803
v 186.806641 7.371240 -26.717596
v 186.806641 7.261519 -26.717596
v 186.738068 7.397163 -27.040251
v 186.738068 7.264308 -27.040251
v 186.669632 7.429891 -27.362213
v 186.669632 7.352260 -27.362213
v 186.601700 7.485923 -27.681797
v 186.601700 7.371938 -27.681797
v 186.534027 7.547846 -28.000149
v 186.534027 7.305407 -28.000149
v 186.467422 7.633510 -28.313545
v 186.467422 7.144526 -28.313545
v 186.401138 7.724151 -28.625362
v 186.401138 6.899410 -28.625362
v 186.336472 7.838633 -28.929611
v 186.336472 6.546235 -28.929611
v 186.272156 7.957172 -29.232193
v 186.272156 6.352809 -29.232193
v 186.209915 8.099612 -29.525030
v 186.209915 6.309253 -29.525030
v 186.148010 8.245228 -29.816233
v 186.148010 6.388133 -29.816233
v 186.088760 8.414326 -30.095007
v 186.088760 6.569944 -30.095007
v 186.029877 8.585488 -30.371986
v 186.029877 6.597840 -30.371986
v 185.974045 8.780010 -30.634651
v 185.974045 6.524485 -30.634651
v 185.918472 8.976030 -30.896156
v 185.918472 6.366227 -30.896156
v 188.479813 9.192226 -21.010357
v 188.479813 8.692284 -21.010357
v 188.428314 8.972594 -21.252626
v 188.428314 8.508068 -21.252626
v 188.373001 8.775741 -21.512882
v 188.373001 8.348920 -21.512882
v 188.317505 8.579899 -21.773943
v 188.317505 8.204058 -21.773943
v 188.258682 8.408222 -22.050667
v 188.258682 8.043741 -22.050667
v 188.199677 8.237864 -22.328255
v 188.199677 7.849105 -22.328255
v 188.137833 8.092735 -22.619215
v 188.137833 7.580699 -22.619215
v 188.075821 7.949284 -22.911003
v 188.075821 7.260255 -22.911003
v 188.011475 7.831970 -23.213686
v 188.011475 6.929420 -23.213686
v 187.946945 7.716623 -23.517267
v 187.946945 6.671471 -23.517267
v 187.880661 7.628100 -23.829151
v 187.880661 6.490190 -23.829151
v 187.814209 7.541907 -24.141758
v 187.814209 6.396553 -24.141758
v 187.746506 7.482889 -24.460316
v 187.746506 6.426663 -24.460316
v 187.678680 7.426545 -24.779408
v 187.678680 6.580297 -24.779408
v 187.610168 7.397571 -25.101681
v 187.610168 6.821818 -25.101681
v 187.541656 7.371607 -25.424025
v 187.541656 7.089478 -25.424025
v 187.472870 7.372816 -25.747656
v 187.472870 7.239757 -25.747656
v 187.404037 7.377377 -26.071457
v 187.404037 7.305660 -26.071457
v 187.335510 7.408856 -26.393892
v 187.335510 7.318419 -26.393892
v 187.267014 7.443970 -26.716145
v 187.267014 7.331416 -26.716145
v 187.199371 7.505486 -27.034340
v 187.199371 7.359413 -27.034340
v 187.131866 7.570827 -27.351948
v 187.131866 7.448430 -27.351948
v 187.065765 7.661737 -27.662905
v 187.065765 7.496513 -27.662905
v 186.999893 7.756626 -27.972818
v 186.999893 7.466877 -27.972818
v 186.935730 7.876307 -28.274693
v 186.935730 7.347034 -28.274693
v 186.871933 8.000082 -28.574856
v 186.871933 7.125375 -28.574856
v 186.810379 8.147300 -28.864428
v 186.810379 6.761412 -28.864428
v 186.749252 8.298771 -29.151966
v 186.749252 6.518628 -29.151966
v 186.690720 8.472528 -29.427402
v 186.690720 6.401522 -29.427402
v 188.892731 9.084501 -21.232086
v 188.892731 8.811649 -21.232086
v 188.841461 8.881160 -21.473343
v 188.841461 8.656401 -21.473343
v 188.787964 8.690872 -21.724998
v 188.787964 8.495633 -21.724998
v 188.733200 8.509687 -21.982616
v 188.733200 8.344898 -21.982616
v 188.676270 8.344131 -22.250443
v 188.676270 8.185261 -22.250443
v 188.618454 8.186487 -22.522446
v 188.618454 8.023231 -22.522446
v 188.558578 8.047077 -22.804144
v 188.558578 7.836996 -22.804144
v 188.498123 7.914108 -23.088591
v 188.498123 7.599147 -23.088591
v 188.435791 7.802003 -23.381851
v 188.435791 7.358847 -23.381851
v 188.373108 7.694718 -23.676704
v 188.373108 7.135663 -23.676704
v 188.308899 7.610950 -23.978842
v 188.308899 6.963218 -23.978842
v 188.244537 7.530248 -24.281651
v 188.244537 6.863533 -24.281651
v 188.178970 7.475523 -24.590118
v 188.178970 6.899531 -24.590118
v 188.113373 7.421985 -24.898727
v 188.113373 7.017162 -24.898727
v 188.047089 7.396807 -25.210548
v 188.047089 7.159580 -25.210548
v 187.980850 7.371647 -25.522137
v 187.980850 7.256576 -25.522137
v 187.914337 7.375358 -25.835102
v 187.914337 7.297873 -25.835102
v 187.847809 7.379897 -26.148109
v 187.847809 7.279937 -26.148109
v 187.781555 7.411383 -26.459751
v 187.781555 7.294600 -26.459751
v 187.715347 7.445647 -26.771252
v 187.715347 7.349010 -26.771252
v 187.649948 7.504695 -27.078945
v 187.649948 7.423072 -27.078945
v 187.584702 7.568375 -27.385927
v 187.584702 7.513221 -27.385927
v 187.520691 7.654426 -27.687065
v 187.520691 7.606593 -27.687065
v 187.457031 7.746851 -27.986536
v 187.457031 7.630038 -27.986536
v 187.394806 7.859276 -28.279270
v 187.394806 7.586886 -28.279270
v 187.333160 7.979831 -28.569283
v 187.333160 7.478424 -28.569283
v 187.273254 8.117702 -28.851177
v 187.273254 7.303786 -28.851177
v 187.214233 8.265165 -29.128788
v 187.214233 7.096643 -29.128788
v 187.157043 8.427456 -29.397886
v 187.157043 6.911625 -29.397886
v 189.354935 9.190442 -21.222004
v 189.354935 9.017295 -21.222004
v 189.305481 8.976345 -21.454632
v 189.305481 8.873173 -21.454632
v 189.252319 8.784053 -21.704744
v 189.252319 8.718013 -21.704744
v 189.198929 8.593072 -21.955908
v 189.198929 8.551975 -21.955908
v 189.142471 8.424070 -22.221560
v 189.142471 8.351645 -22.221560
v 189.085602 8.257871 -22.489073
v 189.085602 8.219124 -22.489073
v 189.026276 8.113447 -22.768229
v 189.026276 8.076448 -22.768229
v 188.966446 7.973524 -23.049677
v 188.966446 7.934125 -23.049677
v 188.904724 7.854837 -23.340055
v 188.904724 7.806960 -23.340055
v 188.842468 7.742408 -23.632950
v 188.842468 7.648072 -23.632950
v 188.778809 7.650290 -23.932442
v 188.778809 7.475255 -23.932442
v 188.714584 7.566218 -24.234583
v 188.714584 7.344903 -24.234583
v 188.649475 7.501417 -24.540890
v 188.649475 7.322962 -24.540890
v 188.583908 7.446538 -24.849356
v 188.583908 7.299570 -24.849356
v 188.517899 7.409586 -25.159908
v 188.517899 7.342895 -25.159908
v 188.451645 7.384405 -25.471621
v 188.451645 7.349152 -25.471621
v 188.385254 7.375506 -25.783941
v 188.385254 7.280679 -25.783941
v 188.318726 7.380175 -26.096951
v 188.318726 7.215773 -26.096951
v 188.252350 7.399442 -26.409216
v 188.252350 7.196381 -26.409216
v 188.186142 7.433977 -26.720711
v 188.186142 7.236577 -26.720711
v 188.120361 7.481344 -27.030228
v 188.120361 7.340682 -27.030228
v 188.055115 7.545436 -27.337183
v 188.055115 7.476231 -27.337183
v 187.990479 7.620486 -27.641273
v 187.990479 7.592755 -27.641273
v 187.926834 7.713468 -27.940678
v 187.926834 7.700655 -27.940678
v 187.863861 7.815515 -28.236933
v 187.863861 7.747537 -28.236933
v 187.802261 7.936732 -28.526739
v 187.802261 7.730706 -28.526739
v 187.741394 8.065076 -28.813114
v 187.741394 7.694679 -28.813114
v 187.682449 8.213326 -29.090439
v 187.682449 7.621109 -29.090439
v 187.624161 8.366922 -29.364643
v 187.624161 7.495641 -29.364643
v 189.761429 9.117478 -21.473982
v 189.761429 8.944019 -21.473982
v 189.707199 8.932464 -21.729074
v 189.707199 8.825045 -21.729074
v 189.650604 8.764277 -21.995359
v 189.650604 8.684663 -21.995359
v 189.593857 8.597280 -22.262293
v 189.593857 8.537505 -22.262293
v 189.534424 8.453565 -22.541965
v 189.534424 8.382259 -22.541965
v 189.474960 8.309820 -22.821697
v 189.474960 8.241697 -22.821697
v 189.413559 8.187168 -23.110596
v 189.413559 8.102492 -23.110596
v 189.351715 8.069036 -23.401499
v 189.351715 8.022442 -23.401499
v 189.288757 7.966750 -23.697699
v 189.288757 7.922273 -23.697699
v 189.225052 7.875154 -23.997442
v 189.225052 7.808917 -23.997442
v 189.160797 7.793613 -24.299732
v 189.160797 7.691336 -24.299732
v 189.095627 7.729168 -24.606297
v 189.095627 7.609345 -24.606297
v 189.030334 7.668723 -24.913515
v 189.030334 7.528991 -24.913515
v 188.964264 7.631971 -25.224342
v 188.964264 7.476655 -25.224342
v 188.898224 7.595233 -25.535059
v 188.898224 7.383050 -25.535059
v 188.831726 7.584138 -25.847866
v 188.831726 7.272375 -25.847866
v 188.765198 7.575339 -26.160873
v 188.765198 7.178435 -26.160873
v 188.698669 7.585992 -26.473879
v 188.698669 7.148747 -26.473879
v 188.632126 7.605267 -26.786884
v 188.632126 7.188797 -26.786884
v 188.565903 7.637692 -27.098452
v 188.565903 7.276540 -27.098452
v 188.500015 7.684878 -27.408419
v 188.500015 7.396269 -27.408419
v 188.434418 7.738893 -27.717051
v 188.434418 7.510355 -27.717051
v 188.369675 7.813608 -28.021664
v 188.369675 7.649551 -28.021664
v 188.304962 7.888970 -28.326084
v 188.304962 7.802382 -28.326084
v 188.241943 7.990466 -28.622562
v 188.241943 7.885999 -28.622562
v 188.178925 8.091962 -28.919044
v 188.178925 7.918680 -28.919044
v 188.117477 8.214464 -29.208145
v 188.117477 7.878700 -29.208145
v 188.056381 8.342463 -29.495598
v 188.056381 7.776883 -29.495598
v 187.996841 8.484675 -29.775684
v 187.996841 7.618205 -29.775684
v 187.938507 8.637383 -30.050131
v 187.938507 7.411469 -30.050131
v 187.881180 8.798410 -30.319822
v 187.881180 7.210845 -30.319822
v 190.222366 9.230776 -21.469835
v 190.222366 8.841604 -21.469835
v 190.166489 9.057013 -21.732676
v 190.166489 8.790600 -21.732676
v 190.108932 8.897047 -22.003475
v 190.108932 8.705168 -22.003475
v 190.050293 8.745886 -22.279341
v 190.050293 8.613733 -22.279341
v 189.991119 8.599938 -22.557697
v 189.991119 8.524199 -22.557697
v 189.930115 8.472378 -22.844765
v 189.930115 8.416471 -22.844765
v 189.869095 8.344818 -23.131832
v 189.869095 8.301126 -23.131832
v 189.806427 8.237599 -23.426632
v 189.806427 8.202730 -23.426632
v 189.743423 8.134479 -23.723040
v 189.743423 8.089084 -23.723040
v 189.679749 8.042526 -24.022598
v 189.679749 7.971345 -24.022598
v 189.615234 7.964600 -24.326159
v 189.615234 7.861498 -24.326159
v 189.550644 7.888052 -24.629976
v 189.550644 7.765024 -24.629976
v 189.485001 7.835791 -24.938866
v 189.485001 7.677633 -24.938866
v 189.419342 7.783540 -25.247700
v 189.419342 7.579877 -25.247700
v 189.353256 7.748588 -25.558628
v 189.353256 7.468680 -25.558628
v 189.287003 7.722397 -25.870340
v 189.287003 7.342551 -25.870340
v 189.220673 7.703376 -26.182404
v 189.220673 7.239222 -26.182404
v 189.154144 7.703376 -26.495411
v 189.154144 7.199644 -26.495411
v 189.087616 7.703377 -26.808418
v 189.087616 7.213195 -26.808418
v 189.021317 7.726538 -27.120275
v 189.021317 7.249905 -27.120275
v 188.955063 7.752728 -27.431982
v 188.955063 7.320898 -27.431982
v 188.889084 7.791789 -27.742392
v 188.889084 7.379693 -27.742392
v 188.823380 7.844085 -28.051491
v 188.823380 7.511245 -28.051491
v 188.757797 7.899103 -28.360029
v 188.757797 7.683505 -28.360029
v 188.693222 7.977093 -28.663845
v 188.693222 7.871805 -28.663845
v 188.628647 8.055086 -28.967669
v 188.628647 8.018043 -28.967669
v 188.565186 8.151142 -29.266193
v 188.565186 8.049599 -29.266193
v 188.502121 8.254385 -29.562952
v 188.502121 7.980117 -29.562952
v 188.439697 8.365728 -29.856564
v 188.439697 7.835242 -29.856564
v 188.378708 8.493252 -30.143549
v 188.378708 7.635066 -30.143549
v 188.317703 8.620775 -30.430536
v 188.317703 7.408135 -30.430536
v 188.258820 8.770844 -30.707548
v 188.258820 7.184192 -30.707548
v 188.200073 8.922290 -30.983931
v 188.200073 6.910869 -30.983931
v 188.142899 9.086282 -31.252937
v 188.142899 6.660965 -31.252937
v 190.630478 9.147912 -21.714199
v 190.630478 8.512238 -21.714199
v 190.574051 8.978416 -21.979609
v 190.574051 8.526243 -21.979609
v 190.515152 8.829653 -22.256739
v 190.515152 8.513786 -22.256739
v 190.456253 8.680891 -22.533867
v 190.456253 8.492689 -22.533867
v 190.395859 8.547089 -22.817938
v 190.395859 8.452049 -22.817938
v 190.334656 8.421617 -23.105881
v 190.334656 8.385489 -23.105881
v 190.273056 8.301292 -23.395720
v 190.273056 8.297083 -23.395720
v 190.209961 8.199939 -23.692562
v 190.209961 8.186178 -23.692562
v 190.146881 8.098622 -23.989292
v 190.146881 8.060160 -23.989292
v 190.082596 8.016647 -24.291748
v 190.082596 7.928493 -24.291748
v 190.017975 7.940010 -24.595766
v 190.017975 7.858934 -24.595766
v 189.952988 7.872373 -24.901546
v 189.952988 7.784979 -24.901546
v 189.887314 7.821022 -25.210497
v 189.887314 7.699200 -25.210497
v 189.821640 7.769672 -25.519440
v 189.821640 7.609973 -25.519440
v 189.755402 7.742060 -25.831085
v 189.755402 7.490522 -25.831085
v 189.689148 7.716322 -26.142813
v 189.689148 7.381557 -26.142813
v 189.622742 7.703367 -26.455177
v 189.622742 7.311416 -26.455177
v 189.556213 7.703367 -26.768185
v 189.556213 7.261862 -26.768185
v 189.489700 7.705112 -27.081104
v 189.489700 7.245362 -27.081104
v 189.423447 7.730850 -27.392832
v 189.423447 7.235377 -27.392832
v 189.357178 7.756587 -27.704559
v 189.357178 7.255224 -27.704559
v 189.291275 7.798662 -28.014654
v 189.291275 7.352843 -28.014654
v 189.225555 7.850047 -28.323818
v 189.225555 7.511381 -28.323818
v 189.160065 7.906732 -28.631908
v 189.160065 7.711370 -28.631908
v 189.095444 7.983375 -28.935949
v 189.095444 7.923759 -28.935949
v 189.030823 8.060019 -29.239988
v 189.030823 8.017872 -29.239988
v 188.967361 8.156027 -29.538513
v 188.967361 8.006546 -29.538513
v 188.904114 8.257624 -29.836071
v 188.904114 7.909408 -29.836071
v 188.841629 8.367685 -30.130043
v 188.841629 7.743525 -30.130043
v 188.780518 8.492964 -30.417536
v 188.780518 7.521611 -30.417536
v 188.719421 8.618224 -30.704988
v 188.719421 7.252006 -30.704988
v 188.660339 8.765226 -30.982925
v 188.660339 6.978090 -30.982925
v 188.601425 8.914004 -31.260082
v 188.601425 6.702887 -31.260082
v 188.543869 9.073810 -31.530916
v 188.543869 6.475513 -31.530916
v 191.094833 9.233801 -21.693953
v 191.094833 8.112446 -21.693953
v 191.038559 9.063061 -21.958679
v 191.038559 8.130230 -21.958679
v 190.980774 8.904934 -22.230518
v 190.980774 8.183319 -22.230518
v 190.921844 8.756481 -22.507809
v 190.921844 8.242784 -22.507809
v 190.862595 8.611093 -22.786531
v 190.862595 8.268940 -22.786531
v 190.801361 8.485868 -23.074627
v 190.801361 8.286854 -23.074627
v 190.740112 8.360636 -23.362743
v 190.740112 8.243221 -23.362743
v 190.677551 8.252216 -23.657063
v 190.677551 8.171732 -23.657063
v 190.614426 8.151051 -23.954075
v 190.614426 8.091737 -23.954075
v 190.550903 8.056427 -24.252951
v 190.550903 8.004137 -24.252951
v 190.486267 7.979964 -24.556992
v 190.486267 7.928571 -24.556992
v 190.421646 7.903498 -24.861046
v 190.421646 7.864653 -24.861046
v 190.356140 7.848013 -25.169207
v 190.356140 7.795914 -25.169207
v 190.290466 7.796777 -25.478184
v 190.290466 7.722705 -25.478184
v 190.224533 7.755698 -25.788366
v 190.224533 7.638962 -25.788366
v 190.158279 7.730019 -26.100098
v 190.158279 7.533251 -26.100098
v 190.092010 7.704340 -26.411827
v 190.092010 7.416597 -26.411827
v 190.025497 7.703366 -26.724787
v 190.025497 7.299670 -26.724787
v 189.958954 7.703367 -27.037792
v 189.958954 7.210079 -27.037792
v 189.892578 7.716927 -27.350128
v 189.892578 7.145808 -27.350128
v 189.826309 7.742607 -27.661858
v 189.826309 7.131960 -27.661858
v 189.760101 7.770640 -27.973354
v 189.760101 7.190310 -27.973354
v 189.694382 7.821908 -28.282526
v 189.694382 7.326673 -28.282526
v 189.628662 7.873177 -28.591698
v 189.628662 7.524845 -28.591698
v 189.563675 7.941068 -28.897499
v 189.563675 7.777056 -28.897499
v 189.499039 8.017536 -29.201561
v 189.499039 7.965917 -29.201561
v 189.434784 8.099550 -29.503880
v 189.434784 7.990970 -29.503880
v 189.371567 8.200838 -29.801250
v 189.371567 7.949758 -29.801250
v 189.308304 8.302211 -30.098869
v 189.308304 7.803615 -30.098869
v 189.246750 8.422379 -30.388462
v 189.246750 7.585496 -30.388462
v 189.185623 8.547379 -30.676044
v 189.185623 7.334894 -30.676044
v 189.125290 8.680767 -30.959923
v 189.125290 7.060225 -30.959923
v 189.066360 8.829195 -31.237165
v 189.066360 6.783029 -31.237165
v 189.007431 8.977623 -31.514406
v 189.007431 6.552952 -31.514406
v 188.950989 9.146542 -31.779911
v 188.950989 6.351770 -31.779911
v 191.502533 9.148915 -21.940243
v 191.502533 7.688515 -21.940243
v 191.444321 8.975503 -22.214096
v 191.444321 7.761213 -22.214096
v 191.383621 8.822985 -22.499693
v 191.383621 7.832745 -22.499693
v 191.322906 8.670468 -22.785286
v 191.322906 7.905575 -22.785286
v 191.260529 8.535126 -23.078802
v 191.260529 7.980962 -23.078802
v 191.197464 8.406492 -23.375450
v 191.197464 8.032009 -23.375450
v 191.133743 8.286516 -23.675240
v 191.133743 8.037498 -23.675240
v 191.068741 8.182588 -23.981056
v 191.068741 8.013256 -23.981056
v 191.003738 8.078659 -24.286880
v 191.003738 7.984561 -24.286880
v 190.937225 7.999618 -24.599766
v 190.937225 7.934906 -24.599766
v 190.870697 7.921075 -24.912773
v 190.870697 7.887212 -24.912773
v 190.803513 7.858391 -25.228888
v 190.803513 7.839720 -25.228888
v 190.735901 7.805764 -25.546944
v 190.735901 7.780734 -25.546944
v 190.668152 7.759508 -25.865709
v 190.668152 7.716082 -25.865709
v 190.599945 7.733129 -26.186611
v 190.599945 7.637062 -26.186611
v 190.531723 7.706751 -26.507515
v 190.531723 7.523095 -26.507515
v 190.463272 7.703364 -26.829559
v 190.463272 7.372133 -26.829559
v 190.394791 7.703364 -27.151772
v 190.394791 7.237806 -27.151772
v 190.326431 7.716617 -27.473326
v 190.326431 7.138905 -27.473326
v 190.258224 7.742995 -27.794230
v 190.258224 7.082128 -27.794230
v 190.190094 7.772821 -28.114786
v 190.190094 7.120161 -28.114786
v 190.122437 7.825484 -28.433060
v 190.122437 7.254313 -28.433060
v 190.054794 7.878148 -28.751333
v 190.054794 7.469234 -28.751333
v 189.987991 7.950572 -29.065598
v 189.987991 7.711068 -29.065598
v 189.921448 8.029119 -29.378620
v 189.921448 7.919367 -29.378620
v 189.855530 8.117684 -29.688776
v 189.855530 8.000548 -29.688776
v 189.790421 8.221775 -29.995070
v 189.790421 7.917609 -29.995070
v 189.725357 8.326626 -30.301184
v 189.725357 7.765645 -30.301184
v 189.662430 8.455017 -30.597275
v 189.662430 7.547400 -30.597275
v 189.599487 8.583408 -30.893360
v 189.599487 7.283119 -30.893360
v 189.538040 8.727582 -31.182480
v 189.538040 6.979346 -31.182480
v 189.477356 8.880037 -31.467958
v 189.477356 6.722251 -31.467958
v 189.417465 9.039022 -31.749733
v 189.417465 6.484634 -31.749733
v 189.359543 9.214289 -32.022205
v 189.359543 6.271713 -32.022205
v 191.965836 9.234406 -21.924938
v 191.965836 7.243305 -21.924938
v 191.909485 9.064275 -22.190041
v 191.909485 7.285051 -22.190041
v 191.851669 8.906519 -22.462084
v 191.851669 7.359605 -22.462084
v 191.792664 8.758612 -22.739656
v 191.792664 7.454492 -22.739656
v 191.733398 8.613335 -23.018450
v 191.733398 7.546829 -23.018450
v 191.672134 8.488596 -23.306715
v 191.672134 7.662468 -23.306715
v 191.610855 8.363857 -23.594980
v 191.610855 7.781730 -23.594980
v 191.548325 8.255196 -23.889175
v 191.548325 7.875499 -23.889175
v 191.485168 8.154425 -24.186302
v 191.485168 7.913312 -24.186302
v 191.421677 8.059265 -24.484993
v 191.421677 7.912449 -24.484993
v 191.357056 7.983114 -24.789057
v 191.357056 7.897689 -24.789057
v 191.292419 7.906958 -25.093143
v 191.292419 7.870000 -25.093143
v 191.226959 7.850528 -25.401066
v 191.226959 7.837742 -25.401066
v 191.161285 7.799493 -25.710075
v 191.161285 7.797147 -25.710075
v 191.095383 7.757157 -26.020073
v 191.095383 7.742775 -26.020073
v 191.029129 7.731581 -26.331810
v 191.029129 7.678138 -26.331810
v 190.962860 7.706004 -26.643545
v 190.962860 7.598347 -26.643545
v 190.896362 7.703363 -26.956421
v 190.896362 7.496669 -26.956421
v 190.829834 7.703363 -27.269428
v 190.829834 7.352705 -27.269428
v 190.763428 7.714964 -27.581860
v 190.763428 7.218709 -27.581860
v 190.697159 7.740540 -27.893595
v 190.697159 7.122600 -27.893595
v 190.630905 7.766328 -28.205309
v 190.630905 7.108798 -28.205309
v 190.565186 7.817390 -28.514496
v 190.565186 7.206631 -28.514496
v 190.499466 7.868454 -28.823683
v 190.499466 7.395202 -28.823683
v 190.434357 7.933737 -29.129986
v 190.434357 7.619517 -29.129986
v 190.369720 8.009895 -29.434082
v 190.369720 7.826592 -29.434082
v 190.305267 8.089104 -29.737299
v 190.305267 7.944094 -29.737299
v 190.242035 8.189990 -30.034763
v 190.242035 7.906846 -30.034763
v 190.178757 8.290957 -30.332462
v 190.178757 7.751621 -30.332462
v 190.116943 8.408042 -30.623329
v 190.116943 7.528621 -30.623329
v 190.055786 8.532528 -30.911011
v 190.055786 7.274015 -30.911011
v 189.995148 8.662550 -31.196274
v 189.995148 7.013142 -31.196274
v 189.936188 8.810367 -31.473671
v 189.936188 6.778953 -31.473671
v 189.877228 8.958180 -31.751066
v 189.877228 6.560301 -31.751066
v 189.820389 9.123542 -32.018509
v 189.820389 6.361615 -32.018509
v 192.067673 9.117773 -23.610231
v 192.067673 7.541511 -23.610231
v 192.011200 8.929115 -23.875917
v 192.011200 7.703362 -23.875917
v 191.952484 8.756423 -24.152157
v 191.952484 7.814152 -24.152157
v 191.892929 8.591070 -24.432346
v 191.892929 7.869514 -24.432346
v 191.831161 8.444860 -24.722935
v 191.831161 7.886896 -24.722935
v 191.768921 8.303951 -25.015741
v 191.768921 7.859382 -25.015741
v 191.704651 8.185511 -25.318117
v 191.704651 7.841979 -25.318117
v 191.640167 8.070053 -25.621471
v 191.640167 7.817819 -25.621471
v 191.573914 7.980333 -25.933212
v 191.573914 7.761377 -25.933212
v 191.507614 7.891126 -26.245110
v 191.507614 7.686800 -26.245110
v 191.439896 7.830874 -26.563656
v 191.439896 7.571173 -26.563656
v 191.372192 7.770617 -26.882235
v 191.372192 7.415309 -26.882235
v 191.303726 7.738355 -27.204296
v 191.303726 7.200177 -27.204296
v 191.235214 7.708130 -27.526609
v 191.235214 7.016886 -27.526609
v 191.166443 7.703436 -27.850178
v 191.166443 6.933041 -27.850178
v 191.097610 7.703436 -28.173981
v 191.097610 6.968919 -28.173981
v 191.029022 7.726348 -28.496651
v 191.029022 7.142698 -28.496651
v 190.960526 7.756575 -28.818962
v 190.960526 7.340707 -28.818962
v 190.892639 7.806854 -29.138325
v 190.892639 7.564362 -29.138325
v 190.825058 7.866983 -29.456232
v 190.825058 7.737529 -29.456232
v 190.758240 7.944321 -29.770632
v 190.758240 7.831594 -29.770632
v 190.691940 8.034080 -30.082504
v 190.691940 7.796556 -30.082504
v 190.626663 8.138044 -30.389669
v 190.626663 7.604984 -30.389669
v 190.562378 8.256506 -30.692108
v 190.562378 7.359847 -30.692108
v 190.499100 8.386374 -30.989799
v 190.499100 7.107925 -30.989799
v 190.437256 8.532744 -31.280706
v 190.437256 6.860542 -31.280706
v 190.376434 8.687674 -31.566845
v 190.376434 6.651072 -31.566845
v 190.317749 8.860307 -31.842991
v 190.317749 6.477383 -31.842991
v 190.259888 9.038882 -32.115166
v 190.259888 6.334323 -32.115166
v 192.828522 9.234514 -22.195101
v 192.828522 6.521089 -22.195101
v 192.772156 9.064488 -22.460268
v 192.772156 6.678742 -22.460268
v 192.714325 8.906800 -22.732340
v 192.714325 6.852388 -22.732340
v 192.655319 8.758997 -23.009941
v 192.655319 7.031763 -23.009941
v 192.596054 8.613739 -23.288740
v 192.596054 7.202671 -23.288740
v 192.534775 8.489084 -23.577036
v 192.534775 7.392103 -23.577036
v 192.473495 8.364429 -23.865332
v 192.473495 7.588870 -23.865332
v 192.410965 8.255720 -24.159519
v 192.410965 7.763126 -24.159519
v 192.347809 8.155017 -24.456661
v 192.347809 7.865481 -24.456661
v 192.284332 8.059763 -24.755316
v 192.284332 7.891725 -24.755316
v 192.219696 7.983663 -25.059399
v 192.219696 7.866078 -25.059399
v 192.155060 7.907558 -25.363495
v 192.155060 7.865199 -25.363495
v 192.089615 7.850963 -25.671389
v 192.089615 7.818924 -25.671389
v 192.023941 7.799972 -25.980358
v 192.023941 7.718104 -25.980358
v 191.958069 7.757420 -26.290257
v 191.958069 7.573865 -26.290257
v 191.891800 7.731862 -26.601994
v 191.891800 7.378034 -26.601994
v 191.825546 7.706303 -26.913729
v 191.825546 7.006328 -26.913729
v 191.759048 7.703365 -27.226591
v 191.759048 6.706803 -27.226591
v 191.692505 7.703365 -27.539597
v 191.692505 6.540201 -27.539597
v 191.626099 7.714618 -27.852045
v 191.626099 6.493980 -27.852045
v 191.559830 7.740176 -28.163780
v 191.559830 6.552690 -28.163780
v 191.493576 7.765733 -28.475517
v 191.493576 6.816138 -28.475517
v 191.427856 7.816592 -28.784725
v 191.427856 7.111801 -28.784725
v 191.362137 7.867620 -29.093914
v 191.362137 7.389639 -29.093914
v 191.297012 7.932442 -29.400307
v 191.297012 7.583890 -29.400307
v 191.232361 8.008547 -29.704407
v 191.232361 7.689498 -29.704407
v 191.167877 8.087255 -30.007769
v 191.167877 7.669404 -30.007769
v 191.104614 8.188128 -30.305408
v 191.104614 7.538820 -30.305408
v 191.041336 8.289022 -30.603121
v 191.041336 7.343309 -30.603121
v 190.979477 8.405562 -30.894169
v 190.979477 7.133925 -30.894169
v 190.918335 8.529945 -31.181839
v 190.918335 6.899713 -31.181839
v 190.857651 8.659370 -31.467316
v 190.857651 6.702283 -31.467316
v 190.798676 8.807082 -31.744745
v 190.798676 6.542837 -31.744745
v 190.739716 8.954795 -32.022175
v 190.739716 6.417103 -32.022175
v 190.682770 9.119579 -32.290024
v 190.682770 6.276563 -32.290024
v 193.229416 9.149378 -22.473385
v 193.229416 6.508016 -22.473385
v 193.171188 8.976175 -22.747372
v 193.171188 6.700421 -22.747372
v 193.110443 8.823943 -23.033108
v 193.110443 6.900045 -23.033108
v 193.049713 8.671706 -23.318851
v 193.049713 7.108220 -23.318851
v 192.987320 8.536398 -23.612404
v 192.987320 7.328038 -23.612404
v 192.924240 8.408010 -23.909151
v 192.924240 7.548491 -23.909151
v 192.860519 8.287921 -24.208944
v 192.860519 7.746154 -24.208944
v 192.795502 8.184202 -24.514809
v 192.795502 7.866392 -24.514809
v 192.730484 8.080484 -24.820669
v 192.730484 7.928435 -24.820669
v 192.664017 8.001154 -25.133430
v 192.664017 7.931802 -25.133430
v 192.597473 7.922770 -25.446453
v 192.597473 7.892310 -25.446453
v 192.530304 7.859631 -25.762444
v 192.530304 7.782408 -25.762444
v 192.462708 7.807110 -26.080505
v 192.462708 7.601465 -26.080505
v 192.394958 7.760230 -26.399231
v 192.394958 7.297489 -26.399231
v 192.326752 7.733905 -26.720135
v 192.326752 6.870528 -26.720135
v 192.258530 7.707581 -27.041039
v 192.258530 6.347456 -27.041039
v 192.190094 7.703366 -27.363043
v 192.190094 6.111630 -27.363043
v 192.121597 7.703366 -27.685257
v 192.121597 6.081061 -27.685257
v 192.053238 7.715638 -28.006859
v 192.053238 6.129576 -28.006859
v 191.985031 7.741961 -28.327763
v 191.985031 6.280408 -28.327763
v 191.916870 7.770656 -28.648432
v 191.916870 6.535952 -28.648432
v 191.849228 7.823213 -28.966713
v 191.849228 6.876857 -28.966713
v 191.781570 7.875770 -29.284994
v 191.781570 7.174882 -29.284994
v 191.714722 7.946876 -29.599510
v 191.714722 7.307928 -29.599510
v 191.648178 8.025263 -29.912552
v 191.648178 7.371642 -29.912552
v 191.582123 8.112450 -30.223297
v 191.582123 7.370056 -30.223297
v 191.516983 8.216372 -30.529755
v 191.516983 7.248346 -30.529755
v 191.451843 8.320292 -30.836218
v 191.451843 7.072435 -30.836218
v 191.388840 8.447838 -31.132603
v 191.388840 6.874190 -31.132603
v 191.325897 8.575967 -31.428753
v 191.325897 6.704968 -31.428753
v 191.264297 8.718455 -31.718597
v 191.264297 6.574785 -31.718597
v 191.203598 8.870594 -32.004158
v 191.203598 6.476767 -32.004158
v 191.143509 9.027818 -32.286865
v 191.143509 6.355088 -32.286865
v 191.085541 9.202768 -32.559525
v 191.085541 6.192345 -32.559525
v 193.686081 9.234318 -22.489361
v 193.686081 6.421677 -22.489361
v 193.629745 9.064099 -22.754412
v 193.629745 6.608254 -22.754412
v 193.571915 8.906286 -23.026436
v 193.571915 6.789819 -23.026436
v 193.512924 8.758291 -23.303984
v 193.512924 6.989479 -23.303984
v 193.453674 8.612998 -23.582775
v 193.453674 7.202695 -23.582775
v 193.392395 8.488199 -23.870998
v 193.392395 7.412764 -23.870998
v 193.331146 8.363399 -24.159222
v 193.331146 7.589649 -24.159222
v 193.268600 8.254770 -24.453438
v 193.268600 7.738697 -24.453438
v 193.205444 8.153938 -24.750563
v 193.205444 7.854077 -24.750563
v 193.141953 8.058853 -25.049294
v 193.141953 7.929112 -25.049294
v 193.077316 7.982655 -25.353359
v 193.077316 7.902404 -25.353359
v 193.012680 7.906456 -25.657436
v 193.012680 7.784655 -25.657436
v 192.947220 7.850163 -25.965393
v 192.947220 7.567619 -25.965393
v 192.881546 7.799102 -26.274391
v 192.881546 7.175688 -26.274391
v 192.815643 7.756945 -26.584444
v 192.815643 6.566535 -26.584444
v 192.749374 7.731354 -26.896179
v 192.749374 6.036441 -26.896179
v 192.683121 7.705763 -27.207914
v 192.683121 5.700992 -27.207914
v 192.616608 7.703363 -27.520802
v 192.616608 5.567159 -27.520802
v 192.550079 7.703363 -27.833809
v 192.550079 5.581655 -27.833809
v 192.483673 7.715247 -28.146225
v 192.483673 5.716459 -28.146225
v 192.417419 7.740838 -28.457962
v 192.417419 5.935473 -28.457962
v 192.351166 7.766950 -28.769644
v 192.351166 6.243802 -28.769644
v 192.285446 7.818042 -29.078829
v 192.285446 6.569659 -29.078829
v 192.219727 7.869133 -29.388012
v 192.219727 6.816787 -29.388012
v 192.154633 7.934791 -29.694242
v 192.154633 6.862831 -29.694242
v 192.089996 8.010994 -29.998337
v 192.089996 6.910126 -29.998337
v 192.025558 8.090629 -30.301495
v 192.025558 6.920444 -30.301495
v 191.962280 8.191653 -30.599182
v 191.962280 6.906103 -30.599182
v 191.899002 8.292679 -30.896873
v 191.899002 6.819705 -30.896873
v 191.837234 8.410218 -31.187515
v 191.837234 6.715739 -31.187515
v 191.776093 8.534774 -31.475174
v 191.776093 6.622764 -31.475174
v 191.715500 8.665285 -31.760202
v 191.715500 6.575171 -31.760202
v 191.656540 8.813188 -32.037579
v 191.656540 6.538994 -32.037579
v 191.597580 8.961091 -32.314957
v 191.597580 6.386279 -32.314957
v 191.540802 9.126964 -32.582085
v 191.540802 6.217448 -32.582085
v 194.085938 9.149022 -22.772564
v 194.085938 6.638162 -22.772564
v 194.029449 8.980012 -23.038286
v 194.029449 6.814702 -23.038286
v 193.970474 8.831916 -23.315752
v 193.970474 7.002908 -23.315752
v 193.911499 8.683817 -23.593224
v 193.911499 7.182070 -23.593224
v 193.851105 8.550104 -23.877340
v 193.851105 7.351342 -23.877340
v 193.789856 8.425205 -24.165524
v 193.789856 7.497092 -24.165524
v 193.728256 8.304634 -24.455296
v 193.728256 7.626262 -24.455296
v 193.665115 8.203725 -24.752377
v 193.665115 7.721820 -24.752377
v 193.601959 8.102814 -25.049465
v 193.601959 7.788405 -25.049465
v 193.537720 8.020157 -25.351719
v 193.537720 7.786105 -25.351719
v 193.473083 7.943895 -25.655781
v 193.473083 7.650982 -25.655781
v 193.408142 7.875209 -25.961334
v 193.408142 7.378832 -25.961334
v 193.342468 7.824108 -26.270302
v 193.342468 6.911398 -26.270302
v 193.276764 7.772989 -26.579388
v 193.276764 6.279344 -26.579388
v 193.210587 7.743844 -26.890768
v 193.210587 5.782152 -26.890768
v 193.144318 7.718231 -27.202501
v 193.144318 5.082879 -27.202501
v 193.077942 7.703364 -27.514771
v 193.077942 4.865012 -27.514771
v 193.011414 7.703365 -27.827776
v 193.011414 5.388621 -27.827776
v 192.944885 7.703365 -28.140785
v 192.944885 5.536662 -28.140785
v 192.878616 7.728455 -28.452545
v 192.878616 5.745880 -28.452545
v 192.812363 7.754066 -28.764278
v 192.812363 5.993997 -28.764278
v 192.746384 7.793400 -29.074640
v 192.746384 6.216583 -29.074640
v 192.680664 7.844534 -29.383823
v 192.680664 6.399223 -29.383823
v 192.615051 7.898161 -29.692497
v 192.615051 6.390324 -29.692497
v 192.550430 7.974430 -29.996582
v 192.550430 6.393498 -29.996582
v 192.485794 8.050697 -30.300667
v 192.485794 6.434060 -30.300667
v 192.422073 8.143330 -30.600430
v 192.422073 6.495926 -30.600430
v 192.358795 8.244442 -30.898113
v 192.358795 6.556931 -30.898113
v 192.296005 8.350844 -31.193520
v 192.296005 6.576978 -31.193520
v 192.234863 8.475513 -31.481171
v 192.234863 6.575277 -31.481171
v 192.173721 8.600180 -31.768822
v 192.173721 6.585831 -31.768822
v 192.114288 8.743089 -32.048443
v 192.114288 6.609929 -32.048443
v 192.055328 8.891120 -32.325790
v 192.055328 6.440110 -32.325790
v 191.997299 9.046679 -32.598862
v 191.997299 6.222482 -32.598862
v 191.941025 9.216876 -32.863605
v 191.941025 5.940523 -32.863605
v 194.545090 9.210385 -22.776825
v 194.545090 6.804400 -22.776825
v 194.490372 9.009538 -23.034214
v 194.490372 6.908048 -23.034214
v 194.432327 8.831861 -23.307287
v 194.432327 7.043164 -23.307287
v 194.373978 8.656366 -23.581816
v 194.373978 7.171230 -23.581816
v 194.312912 8.504002 -23.869129
v 194.312912 7.302475 -23.869129
v 194.251404 8.355341 -24.158484
v 194.251404 7.425588 -24.158484
v 194.187805 8.229508 -24.457720
v 194.187805 7.529570 -24.457720
v 194.123657 8.108965 -24.759441
v 194.123657 7.599772 -24.759441
v 194.058029 8.010637 -25.068243
v 194.058029 7.629720 -25.068243
v 193.991898 7.919388 -25.379333
v 193.991898 7.624501 -25.379333
v 193.924728 7.849261 -25.695333
v 193.924728 7.508960 -25.695333
v 193.857132 7.787983 -26.013388
v 193.857132 7.227305 -26.013388
v 193.788940 7.746579 -26.334202
v 193.788940 6.754093 -26.334202
v 193.720428 7.715796 -26.656557
v 193.720428 6.222999 -26.656557
v 193.651718 7.703449 -26.979752
v 193.651718 5.826957 -26.979752
v 193.582901 7.703448 -27.303551
v 193.582901 5.627093 -27.303551
v 193.514252 7.720267 -27.626524
v 193.514252 5.525411 -27.626524
v 193.445740 7.751042 -27.948811
v 193.445740 5.582740 -27.948811
v 193.377716 7.796845 -28.268879
v 193.377716 5.704263 -28.268879
v 193.310165 7.858067 -28.586639
v 193.310165 5.874326 -28.586639
v 193.243210 7.932512 -28.901674
v 193.243210 6.077341 -28.901674
v 193.177002 8.023861 -29.213106
v 193.177002 6.144686 -29.213106
v 193.111633 8.126499 -29.520712
v 193.111633 6.097142 -29.520712
v 193.047562 8.246914 -29.822113
v 193.047562 6.037402 -29.822113
v 192.984375 8.376709 -30.119371
v 192.984375 6.014241 -30.119371
v 192.922836 8.525456 -30.408897
v 192.922836 6.055687 -30.408897
v 192.862091 8.682073 -30.694660
v 192.862091 6.142709 -30.694660
v 192.803680 8.857771 -30.969509
v 192.803680 6.264319 -30.969509
v 192.746124 9.039328 -31.240229
v 192.746124 6.424496 -31.240229
v 194.940659 9.149521 -23.080194
v 194.940659 7.029124 -23.080194
v 194.882401 8.976385 -23.354216
v 194.882401 7.122972 -23.354216
v 194.821655 8.824245 -23.639990
v 194.821655 7.234237 -23.639990
v 194.760925 8.672106 -23.925760
v 194.760925 7.332737 -23.925760
v 194.698532 8.536811 -24.219309
v 194.698532 7.428837 -24.219309
v 194.635452 8.408502 -24.516083
v 194.635452 7.494960 -24.516083
v 194.571732 8.288375 -24.815870
v 194.571732 7.529332 -24.815870
v 194.506714 8.184720 -25.121752
v 194.506714 7.527375 -25.121752
v 194.441696 8.081076 -25.427603
v 194.441696 7.490780 -25.427603
v 194.375229 8.001647 -25.740326
v 194.375229 7.413146 -25.740326
v 194.308685 7.923314 -26.053354
v 194.308685 7.270599 -26.053354
v 194.241531 7.860024 -26.369324
v 194.241531 6.955725 -26.369324
v 194.173920 7.807536 -26.687391
v 194.173920 6.559704 -26.687391
v 194.106155 7.760450 -27.006191
v 194.106155 6.194940 -27.006191
v 194.037949 7.734142 -27.327095
v 194.037949 6.019237 -27.327095
v 193.969742 7.707833 -27.648003
v 193.969742 5.914351 -27.648003
v 193.901291 7.703363 -27.969992
v 193.901291 5.897002 -27.969992
v 193.832809 7.703363 -28.292206
v 193.832809 5.971449 -28.292206
v 193.764450 7.715333 -28.613823
v 193.764450 6.089225 -28.613823
v 193.696228 7.741641 -28.934729
v 193.696228 6.211678 -28.934729
v 193.628067 7.769989 -29.255430
v 193.628067 6.160876 -29.255430
v 193.560410 7.822513 -29.573713
v 193.560410 5.994565 -29.573713
v 193.492767 7.875037 -29.891998
v 193.492767 5.877103 -29.891998
v 193.425888 7.945735 -30.206594
v 193.425888 5.841247 -30.206594
v 193.359344 8.024075 -30.519642
v 193.359344 5.863657 -30.519642
v 193.293274 8.110806 -30.830477
v 193.293274 5.953696 -30.830477
v 193.228134 8.214661 -31.136946
v 193.228134 6.159441 -31.136946
v 193.162994 8.318512 -31.443405
v 193.162994 6.363163 -31.443405
v 193.099960 8.445554 -31.739962
v 193.099960 6.506256 -31.739962
v 193.037018 8.573584 -32.036087
v 193.037018 6.562571 -32.036087
v 192.975372 8.715512 -32.326115
v 192.975372 6.624405 -32.326115
v 192.914673 8.867555 -32.611706
v 192.914673 6.549013 -32.611706
v 192.854507 9.024216 -32.894707
v 192.854507 6.414371 -32.894707
v 192.796539 9.199080 -33.167450
v 192.796539 6.032216 -33.167450
v 195.395660 9.235165 -23.103924
v 195.395660 7.106996 -23.103924
v 195.339218 9.065792 -23.369490
v 195.339218 7.167378 -23.369490
v 195.281342 8.908501 -23.641781
v 195.281342 7.266893 -23.641781
v 195.222260 8.761282 -23.919683
v 195.222260 7.350236 -23.919683
v 195.162994 8.616140 -24.198570
v 195.162994 7.432017 -24.198570
v 195.101685 8.492019 -24.487011
v 195.101685 7.473050 -24.487011
v 195.040375 8.367903 -24.775442
v 195.040375 7.487784 -24.775442
v 194.977875 8.258944 -25.069450
v 194.977875 7.479418 -25.069450
v 194.914703 8.158682 -25.366661
v 194.914703 7.439427 -25.366661
v 194.851273 8.062847 -25.665094
v 194.851273 7.381831 -25.665094
v 194.786621 7.987075 -25.969219
v 194.786621 7.316541 -25.969219
v 194.721985 7.911302 -26.273354
v 194.721985 7.233793 -26.273354
v 194.656586 7.853675 -26.581028
v 194.656586 7.027145 -26.581028
v 194.590881 7.802882 -26.890144
v 194.590881 6.746724 -26.890144
v 194.525009 7.758968 -27.200039
v 194.525009 6.536080 -27.200039
v 194.458740 7.733519 -27.511780
v 194.458740 6.406443 -27.511780
v 194.392487 7.708070 -27.823521
v 194.392487 6.314011 -27.823521
v 194.326004 7.703362 -28.136295
v 194.326004 6.323650 -28.136295
v 194.259460 7.703362 -28.449303
v 194.259460 6.408200 -28.449303
v 194.193024 7.712531 -28.761854
v 194.193024 6.497514 -28.761854
v 194.126770 7.737978 -29.073595
v 194.126770 6.477257 -29.073595
v 194.060501 7.763428 -29.385338
v 194.060501 6.247106 -29.385338
v 193.994736 7.811786 -29.694786
v 193.994736 5.962949 -29.694786
v 193.929001 7.862594 -30.003992
v 193.929001 5.846850 -30.003992
v 193.863770 7.924638 -30.310917
v 193.863770 5.817060 -30.310917
v 193.799118 8.000414 -30.615055
v 193.799118 5.846929 -30.615055
v 193.734482 8.076185 -30.919182
v 193.734482 5.937805 -30.919182
v 193.671173 8.176531 -31.216990
v 193.671173 6.141457 -31.216990
v 193.607880 8.276985 -31.514769
v 193.607880 6.368429 -31.514769
v 193.545715 8.390243 -31.807219
v 193.545715 6.525402 -31.807219
v 193.484528 8.514125 -32.095104
v 193.484528 6.591777 -32.095104
v 193.423523 8.640011 -32.382141
v 193.423523 6.608540 -32.382141
v 193.364502 8.787073 -32.659748
v 193.364502 6.631359 -32.659748
v 193.305496 8.934145 -32.937370
v 193.305496 6.587743 -32.937370
v 193.248123 9.095142 -33.207275
v 193.248123 6.282596 -33.207275
v 195.793884 9.151415 -23.394827
v 195.793884 7.175355 -23.394827
v 195.737259 8.983455 -23.661211
v 195.737259 7.250099 -23.661211
v 195.678131 8.836789 -23.939400
v 195.678131 7.340780 -23.939400
v 195.619003 8.690125 -24.217588
v 195.619003 7.424020 -24.217588
v 195.558594 8.556600 -24.501795
v 195.558594 7.464929 -24.501795
v 195.497223 8.432922 -24.790529
v 195.497223 7.480462 -24.790529
v 195.435654 8.311806 -25.080193
v 195.435654 7.470505 -25.080193
v 195.372437 8.211929 -25.377569
v 195.372437 7.436132 -25.377569
v 195.309235 8.112051 -25.674946
v 195.309235 7.381046 -25.674946
v 195.245087 8.027890 -25.976685
v 195.245087 7.323046 -25.976685
v 195.180435 7.952432 -26.280849
v 195.180435 7.253988 -26.280849
v 195.115601 7.881430 -26.585911
v 195.115601 7.147973 -26.585911
v 195.049881 7.830838 -26.895090
v 195.049881 6.992195 -26.895090
v 194.984161 7.780244 -27.204292
v 194.984161 6.861113 -27.204292
v 194.918045 7.747725 -27.515320
v 194.918045 6.785685 -27.515320
v 194.851776 7.722381 -27.827066
v 194.851776 6.771627 -27.827066
v 194.785446 7.703360 -28.139130
v 194.785446 6.822051 -28.139130
v 194.718918 7.703360 -28.452137
v 194.718918 6.912571 -28.452137
v 194.652390 7.703360 -28.765142
v 194.652390 7.010346 -28.765142
v 194.586060 7.723264 -29.077160
v 194.586060 6.968446 -29.077160
v 194.519806 7.748608 -29.388906
v 194.519806 6.785922 -29.388906
v 194.453705 7.782006 -29.699848
v 194.453705 6.284331 -29.699848
v 194.387985 7.832603 -30.009068
v 194.387985 6.068850 -30.009068
v 194.322250 7.883202 -30.318287
v 194.322250 5.927598 -30.318287
v 194.257446 7.955079 -30.623188
v 194.257446 5.932519 -30.623188
v 194.192795 8.030540 -30.927364
v 194.192795 6.007802 -30.927364
v 194.128662 8.115641 -31.229107
v 194.128662 6.192295 -31.229107
v 194.065353 8.215673 -31.526947
v 194.065353 6.436973 -31.526947
v 194.002045 8.315707 -31.824787
v 194.002045 6.610895 -31.824787
v 193.940628 8.437567 -32.113682
v 193.940628 6.688210 -32.113682
v 193.879379 8.561013 -32.401875
v 193.879379 6.674279 -32.401875
v 193.819138 8.695141 -32.685295
v 193.819138 6.677876 -32.685295
v 193.760086 8.841592 -32.963078
v 193.760086 6.665294 -32.963078
v 193.701050 8.988016 -33.240810
v 193.701050 6.496418 -33.240810
v 193.644531 9.156631 -33.506763
v 193.644531 6.065096 -33.506763
v 196.248215 9.236388 -23.421736
v 196.248215 7.225634 -23.421736
v 196.191605 9.068236 -23.688040
v 196.191605 7.309514 -23.688040
v 196.133652 8.911683 -23.960739
v 196.133652 7.408287 -23.960739
v 196.074463 8.765554 -24.239199
v 196.074463 7.528829 -24.239199
v 196.015152 8.620629 -24.518242
v 196.015152 7.580492 -24.518242
v 195.953751 8.497431 -24.807121
v 195.953751 7.607680 -24.807121
v 195.892334 8.374231 -25.096004
v 195.892334 7.592570 -25.096004
v 195.829865 8.264754 -25.389946
v 195.829865 7.551725 -25.389946
v 195.766602 8.165221 -25.687557
v 195.766602 7.498430 -25.687557
v 195.703186 8.068298 -25.985903
v 195.703186 7.431021 -25.985903
v 195.638519 7.993138 -26.290115
v 195.638519 7.357325 -26.290115
v 195.573868 7.917980 -26.594315
v 195.573868 7.256205 -26.594315
v 195.508530 7.858515 -26.901699
v 195.508530 7.101469 -26.901699
v 195.442795 7.808119 -27.210930
v 195.442795 6.976642 -27.210930
v 195.376984 7.761780 -27.520571
v 195.376984 6.925335 -27.520571
v 195.310715 7.736536 -27.832321
v 195.310715 6.950025 -27.832321
v 195.244446 7.711293 -28.144073
v 195.244446 7.055214 -28.144073
v 195.178009 7.703359 -28.456686
v 195.178009 7.190834 -28.456686
v 195.111481 7.703359 -28.769691
v 195.111481 7.277787 -28.769691
v 195.044998 7.708718 -29.082434
v 195.044998 7.312778 -29.082434
v 194.978729 7.733961 -29.394184
v 194.978729 7.198153 -29.394184
v 194.912476 7.759204 -29.705936
v 194.912476 6.910898 -29.705936
v 194.846603 7.802979 -30.015833
v 194.846603 6.505203 -30.015833
v 194.780869 7.853374 -30.325068
v 194.780869 6.305412 -30.325068
v 194.715424 7.910317 -30.632973
v 194.715424 6.224337 -30.632973
v 194.650757 7.985477 -30.937181
v 194.650757 6.264904 -30.937181
v 194.586075 8.060663 -31.241495
v 194.586075 6.408904 -31.241495
v 194.522476 8.155183 -31.540730
v 194.522476 6.637113 -31.540730
v 194.459152 8.254813 -31.838631
v 194.459152 6.804857 -31.838631
v 194.396484 8.361940 -32.133476
v 194.396484 6.885923 -32.133476
v 194.335190 8.484920 -32.421844
v 194.335190 6.842103 -32.421844
v 194.273895 8.607903 -32.710220
v 194.273895 6.774321 -32.710220
v 194.214432 8.750240 -32.989922
v 194.214432 6.728177 -32.989922
v 194.155334 8.896152 -33.267967
v 194.155334 6.632332 -33.267967
v 194.097153 9.050220 -33.541729
v 194.097153 6.348493 -33.541729
v 194.040543 9.218371 -33.808037
v 194.040543 5.972995 -33.808037
v 196.645355 9.153152 -23.717701
v 196.645355 7.351721 -23.717701
v 196.586899 8.981669 -23.992758
v 196.586899 7.505248 -23.992758
v 196.525909 8.831755 -24.279675
v 196.525909 7.656656 -24.279675
v 196.464920 8.681837 -24.566595
v 196.464920 7.759858 -24.566595
v 196.402496 8.546874 -24.860249
v 196.402496 7.831241 -24.860249
v 196.339264 8.420526 -25.157745
v 196.339264 7.838920 -25.157745
v 196.275620 8.299604 -25.457207
v 196.275620 7.806338 -25.457207
v 196.210480 8.197530 -25.763634
v 196.210480 7.737750 -25.763634
v 196.145340 8.095449 -26.070076
v 196.145340 7.665680 -26.070076
v 196.079041 8.013680 -26.382015
v 196.079041 7.578888 -26.382015
v 196.012482 7.936602 -26.695192
v 196.012482 7.481628 -26.695192
v 195.945465 7.869698 -27.010458
v 195.945465 7.327984 -27.010458
v 195.877792 7.818014 -27.328800
v 195.877792 7.164186 -27.328800
v 195.810135 7.766330 -27.647144
v 195.810135 7.077692 -27.647144
v 195.741913 7.740194 -27.968044
v 195.741913 7.141741 -27.968044
v 195.673706 7.714304 -28.288971
v 195.673706 7.308169 -28.288971
v 195.605331 7.703357 -28.610638
v 195.605331 7.476388 -28.610638
v 195.536850 7.703358 -28.932850
v 195.536850 7.604765 -28.932850
v 195.468399 7.707654 -29.254850
v 195.468399 7.545503 -29.254850
v 195.400192 7.733543 -29.575775
v 195.400192 7.418359 -29.575775
v 195.331970 7.759434 -29.896702
v 195.331970 7.160184 -29.896702
v 195.264175 7.804737 -30.215683
v 195.264175 6.915253 -30.215683
v 195.196503 7.856421 -30.534027
v 195.196503 6.696444 -30.534027
v 195.129211 7.916800 -30.850605
v 195.129211 6.673047 -30.850605
v 195.062637 7.993879 -31.163792
v 195.062637 6.767537 -31.163792
v 194.996063 8.070961 -31.476992
v 194.996063 6.943948 -31.476992
v 194.930786 8.171390 -31.784157
v 194.930786 7.112504 -31.784157
v 194.865585 8.273562 -32.090878
v 194.865585 7.219644 -32.090878
v 194.801483 8.388213 -32.392433
v 194.801483 7.167807 -32.392433
v 194.738403 8.514277 -32.689262
v 194.738403 7.027968 -32.689262
v 194.675537 8.642823 -32.984997
v 194.675537 6.879763 -32.984997
v 194.614655 8.792465 -33.271393
v 194.614655 6.746240 -33.271393
v 194.553772 8.942120 -33.557808
v 194.553772 6.604199 -33.557808
v 194.494629 9.107611 -33.836102
v 194.494629 6.171622 -33.836102
l 1 2
l 3 4
l 5 6
l 7 8
l 9 10
l 11 12
l 13 14
l 15 16
l 17 18
l 19 20
l 21 22
l 23 24
l 25 26
l 27 28
l 29 30
l 31 32
l 33 34
l 35 36
l 37 38
l 39 40
l 41 42
l 43 44
l 45 46
l 47 48
l 49 50
l 51 52
l 53 54
l 55 56
l 57 58
l 59 60
l 61 62
l 63 64
l 65 66
l 67 68
l 69 70
l 71 72
l 73 74
l 75 76
l 77 78
l 79 80
l 81 82
l 83 84
l 85 86
l 87 88
l 89 90
l 91 92
l 93 94
l 95 96
l 97 98
l 99 100
l 101 102
l 103 104
l 105 106
l 107 108
l 109 110
l 111 112
l 113 114
l 115 116
l 117 118
l 119 120
l 121 122
l 123 124
l 125 126
l 127 128
l 129 130
l 131 132
l 133 134
l 135 136
l 137 138
l 139 140
l 141 142
l 143 144
l 145 146
l 147 148
l 149 150
l 151 152
l 153 154
l 155 156
l 157 158
l 159 160
l 161 162
l 163 164
l 165 166
l 167 168
l 169 170
l 171 172
l 173 174
l 175 176
l 177 178
l 179 180
l 181 182
l 183 184
l 185 186
l 187 188
l 189 190
l 191 192
l 193 194
l 195 196
l 197 198
l 199 200
l 201 202
l 203 204
l 205 206
l 207 208
l 209 210
l 211 212
l 213 214
l 215 216
l 217 218
l 219 220
l 221 222
l 223 224
l 225 226
l 227 228
l 229 230
l 231 232
l 233 234
l 235 236
l 237 238
l 239 240
l 241 242
l 243 244
l 245 246
l 247 248
l 249 250
l 251 252
l 253 254
l 255 256
l 257 258
l 259 260
l 261 262
l 263 264
l 265 266
l 267 268
l 269 270
l 271 272
l 273 274
l 275 276
l 277 278
l 279 280
l 281 282
l 283 284
l 285 286
l 287 288
l 289 290
l 291 292
l 293 294
l 295 296
l 297 298
l 299 300
l 301 302
l 303 304
l 305 306
l 307 308
l 309 310
l 311 312
l 313 314
l 315 316
l 317 318
l 319 320
l 321 322
l 323 324
l 325 326
l 327 328
l 329 330
l 331 332
l 333 334
l 335 336
l 337 338
l 339 340
l 341 342
l 343 344
l 345 346
l 347 348
l 349 350
l 351 352
l 353 354
l 355 356
l 357 358
l 359 360
l 361 362
l 363 364
l 365 366
l 367 368
l 369 370
l 371 372
l 373 374
l 375 376
l 377 378
l 379 380
l 381 382
l 383 384
l 385 386
l 387 388
l 389 390
l 391 392
l 393 394
l 395 396
l 397 398
l 399 400
l 401 402
l 403 404
l 405 406
l 407 408
l 409 410
l 411 412
l 413 414
l 415 416
l 417 418
l 419 420
l 421 422
l 423 424
l 425 426
l 427 428
l 429 430
l 431 432
l 433 434
l 435 436
l 437 438
l 439 440
l 441 442
l 443 444
l 445 446
l 447 448
l 449 450
l 451 452
l 453 454
l 455 456
l 457 458
l 459 460
l 461 462
l 463 464
l 465 466
l 467 468
l 469 470
l 471 472
l 473 474
l 475 476
l 477 478
l 479 480
l 481 482
l 483 484
l 485 486
l 487 488
l 489 490
l 491 492
l 493 494
l 495 496
l 497 498
l 499 500
l 501 502
l 503 504
l 505 506
l 507 508
l 509 510
l 511 512
l 513 514
l 515 516
l 517 518
l 519 520
l 521 522
l 523 524
l 525 526
l 527 528
l 529 530
l 531 532
l 533 534
l 535 536
l 537 538
l 539 540
l 541 542
l 543 544
l 545 546
l 547 548
l 549 550
l 551 552
l 553 554
l 555 556
l 557 558
l 559 560
l 561 562
l 563 564
l 565 566
l 567 568
l 569 570
l 571 572
l 573 574
l 575 576
l 577 578
l 579 580
l 581 582
l 583 584
l 585 586
l 587 588
l 589 590
l 591 592
l 593 594
l 595 596
l 597 598
l 599 600
l 601 602
l 603 604
l 605 606
l 607 608
l 609 610
l 611 612
l 613 614
l 615 616
l 617 618
l 619 620
l 621 622
l 623 624
l 625 626
l 627 628
l 629 630
l 631 632
l 633 634
l 635 636
l 637 638
l 639 640
l 641 642
l 643 644
l 645 646
l 647 648
l 649 650
l 651 652
l 653 654
l 655 656
l 657 658
l 659 660
l 661 662
l 663 664
l 665 666
l 667 668
l 669 670
l 671 672
l 673 674
l 675 676
l 677 678
l 679 680
l 681 682
l 683 684
l 685 686
l 687 688
l 689 690
l 691 692
l 693 694
l 695 696
l 697 698
l 699 700
l 701 702
l 703 704
l 705 706
l 707 708
l 709 710
l 711 712
l 713 714
l 715 716
l 717 718
l 719 720
l 721 722
l 723 724
l 725 726
l 727 728
l 729 730
l 731 732
l 733 734
l 735 736
l 737 738
l 739 740
l 741 742
l 743 744
l 745 746
l 747 748
l 749 750
l 751 752
l 753 754
l 755 756
l 757 758
l 759 760
l 761 762
l 763 764
l 765 766
l 767 768
l 769 770
l 771 772
l 773 774
l 775 776
l 777 778
l 779 780
l 781 782
l 783 784
l 785 786
l 787 788
l 789 790
l 791 792
l 793 794
l 795 796
l 797 798
l 799 800
l 801 802
l 803 804
l 805 806
l 807 808
l 809 810
l 811 812
l 813 814
l 815 816
l 817 818
l 819 820
l 821 822
l 823 824
l 825 826
l 827 828
l 829 830
l 831 832
l 833 834
l 835 836
l 837 838
l 839 840
l 841 842
l 843 844
l 845 846
l 847 848
l 849 850
l 851 852
l 853 854
l 855 856
l 857 858
l 859 860
l 861 862
l 863 864
l 865 866
l 867 868
l 869 870
l 871 872
l 873 874
l 875 876
l 877 878
l 879 880
l 881 882
l 883 884
l 885 886
l 887 888
l 889 890
l 891 892
l 893 894
l 895 896
l 897 898
l 899 900
l 901 902
l 903 904
l 905 906
l 907 908
l 909 910
l 911 912
l 913 914
l 915 916
l 917 918
l 919 920
l 921 922
l 923 924
l 925 926
l 927 928
l 929 930
l 931 932
l 933 934
l 935 936
l 937 938
l 939 940
l 941 942
l 943 944
l 945 946
l 947 948
l 949 950
l 951 952
l 953 954
l 955 956
l 957 958
l 959 960
l 961 962
l 963 964
l 965 966
l 967 968
l 969 970
l 971 972
l 973 974
l 975 976
l 977 978
l 979 980
l 981 982
l 983 984
l 985 986
l 987 988
l 989 990
l 991 992
l 993 994
l 995 996
l 997 998
l 999 1000
l 1001 1002
l 1003 1004
l 1005 1006
l 1007 1008
l 1009 1010
l 1011 1012
l 1013 1014
l 1015 1016
l 1017 1018
l 1019 1020
l 1021 1022
l 1023 1024
l 1025 1026
l 1027 1028
l 1029 1030
l 1031 1032
l 1033 1034
l 1035 1036
l 1037 1038
l 1039 1040
l 1041 1042
l 1043 1044
l 1045 1046
l 1047 1048
l 1049 1050
l 1051 1052
l 1053 1054
l 1055 1056
l 1057 1058
l 1059 1060
l 1061 1062
l 1063 1064
l 1065 1066
l 1067 1068
l 1069 1070
l 1071 1072
l 1073 1074
l 1075 1076
l 1077 1078
l 1079 1080
l 1081 1082
l 1083 1084
l 1085 1086
l 1087 1088
l 1089 1090
l 1091 1092
l 1093 1094
l 1095 1096
l 1097 1098
l 1099 1100
l 1101 1102
l 1103 1104
l 1105 1106
l 1107 1108
l 1109 1110
l 1111 1112
l 1113 1114
l 1115 1116
l 1117 1118
l 1119 1120
l 1121 1122
l 1123 1124
l 1125 1126
l 1127 1128
l 1129 1130
l 1131 1132
l 1133 1134
l 1135 1136
l 1137 1138
l 1139 1140
l 1141 1142
l 1143 1144
l 1145 1146
l 1147 1148
l 1149 1150
l 1151 1152
l 1153 1154
l 1155 1156
l 1157 1158
l 1159 1160
l 1161 1162
l 1163 1164
l 1165 1166
l 1167 1168
l 1169 1170
l 1171 1172
l 1173 1174
l 1175 1176
l 1177 1178
l 1179 1180
l 1181 1182
l 1183 1184
l 1185 1186
l 1187 1188
l 1189 1190
l 1191 1192
l 1193 1194
l 1195 1196
l 1197 1198
l 1199 1200
l 1201 1202
l 1203 1204
l 1205 1206
l 1207 1208
l 1209 1210
l 1211 1212
l 1213 1214
l 1215 1216
l 1217 1218
l 1219 1220
l 1221 1222
l 1223 1224
l 1225 1226
l 1227 1228
l 1229 1230
l 1231 1232
l 1233 1234
l 1235 1236
l 1237 1238
l 1239 1240
l 1241 1242
l 1243 1244
l 1245 1246
l 1247 1248
l 1249 1250
l 1251 1252
l 1253 1254
l 1255 1256
l 1257 1258
l 1259 1260
l 1261 1262
l 1263 1264
l 1265 1266
l 1267 1268
l 1269 1270
l 1271 1272
l 1273 1274
l 1275 1276
l 1277 1278
l 1279 1280
l 1281 1282
l 1283 1284
l 1285 1286
l 1287 1288
l 1289 1290
l 1291 1292
l 1293 1294
l 1295 1296
l 1297 1298
l 1299 1300
l 1301 1302
l 1303 1304
l 1305 1306
l 1307 1308
l 1309 1310
l 1311 1312
l 1313 1314
l 1315 1316
l 1317 1318
l 1319 1320
l 1321 1322
l 1323 1324
l 1325 1326
l 1327 1328
l 1329 1330
l 1331 1332
l 1333 1334
l 1335 1336
l 1337 1338
l 1339 1340
l 1341 1342
l 1343 1344
l 1345 1346
l 1347 1348
l 1349 1350
l 1351 1352
l 1353 1354
l 1355 1356
l 1357 1358
l 1359 1360
l 1361 1362
l 1363 1364
l 1365 1366
l 1367 1368
l 1369 1370
l 1371 1372
l 1373 1374
l 1375 1376
l 1377 1378
l 1379 1380
l 1381 1382
l 1383 1384
l 1385 1386
l 1387 1388
l 1389 1390
l 1391 1392
l 1393 1394
l 1395 1396
l 1397 1398
l 1399 1400
l 1401 1402
l 1403 1404
l 1405 1406
l 1407 1408
l 1409 1410
l 1411 1412
l 1413 1414
l 1415 1416
l 1417 1418
l 1419 1420
l 1421 1422
l 1423 1424
l 1425 1426
l 1427 1428
l 1429 1430
l 1431 1432
l 1433 1434
l 1435 1436
l 1437 1438
l 1439 1440
l 1441 1442
l 1443 1444
l 1445 1446
l 1447 1448
l 1449 1450
l 1451 1452
l 1453 1454
l 1455 1456
l 1457 1458
l 1459 1460
l 1461 1462
l 1463 1464
l 1465 1466
l 1467 1468
l 1469 1470
l 1471 1472
l 1473 1474
l 1475 1476
l 1477 1478
l 1479 1480
l 1481 1482
l 1483 1484
l 1485 1486
l 1487 1488
l 1489 1490
l 1491 1492
l 1493 1494
l 1495 1496
l 1497 1498
l 1499 1500
l 1501 1502
l 1503 1504
l 1505 1506
l 1507 1508
l 1509 1510
l 1511 1512
l 1513 1514
l 1515 1516
l 1517 1518
l 1519 1520
l 1521 1522
l 1523 1524
l 1525 1526
l 1527 1528
l 1529 1530
l 1531 1532
l 1533 1534
l 1535 1536
l 1537 1538
l 1539 1540
l 1541 1542
l 1543 1544
l 1545 1546
l 1547 1548
l 1549 1550
l 1551 1552
l 1553 1554
l 1555 1556
l 1557 1558
l 1559 1560
l 1561 1562
l 1563 1564
l 1565 1566
l 1567 1568
l 1569 1570
l 1571 1572
l 1573 1574
l 1575 1576
l 1577 1578
l 1579 1580
l 1581 1582
l 1583 1584
l 1585 1586
l 1587 1588
l 1589 1590
l 1591 1592
l 1593 1594
l 1595 1596
l 1597 1598
l 1599 1600
l 1601 1602
l 1603 1604
l 1605 1606
l 1607 1608
l 1609 1610
l 1611 1612
l 1613 1614
l 1615 1616
l 1617 1618
l 1619 1620
l 1621 1622
l 1623 1624
l 1625 1626
l 1627 1628
l 1629 1630
l 1631 1632
l 1633 1634
l 1635 1636
l 1637 1638
l 1639 1640
l 1641 1642
l 1643 1644
l 1645 1646
l 1647 1648
l 1649 1650
l 1651 1652
l 1653 1654
l 1655 1656
l 1657 1658
l 1659 1660
l 1661 1662
l 1663 1664
l 1665 1666
l 1667 1668
l 1669 1670
l 1671 1672
l 1673 1674
l 1675 1676
l 1677 1678
l 1679 1680
l 1681 1682
l 1683 1684
l 1685 1686
l 1687 1688
l 1689 1690
l 1691 1692
l 1693 1694
l 1695 1696
l 1697 1698
l 1699 1700
l 1701 1702
l 1703 1704
l 1705 1706
l 1707 1708
l 1709 1710
l 1711 1712
l 1713 1714
l 1715 1716
l 1717 1718
l 1719 1720
l 1721 1722
l 1723 1724
l 1725 1726
l 1727 1728
l 1729 1730
l 1731 1732
l 1733 1734
l 1735 1736
l 1737 1738
l 1739 1740
l 1741 1742
l 1743 1744
l 1745 1746
l 1747 1748
l 1749 1750
l 1751 1752
l 1753 1754
l 1755 1756
l 1757 1758
l 1759 1760
l 1761 1762
l 1763 1764
l 1765 1766
l 1767 1768
l 1769 1770
l 1771 1772
l 1773 1774
l 1775 1776
l 1777 1778
l 1779 1780
l 1781 1782
l 1783 1784
l 1785 1786
l 1787 1788
l 1789 1790
l 1791 1792
l 1793 1794
l 1795 1796
l 1797 1798
l 1799 1800
l 1801 1802
l 1803 1804
l 1805 1806
l 1807 1808
l 1809 1810
l 1811 1812
l 1813 1814
l 1815 1816
l 1817 1818
l 1819 1820
l 1821 1822
l 1823 1824
l 1825 1826
l 1827 1828
l 1829 1830
l 1831 1832
l 1833 1834
l 1835 1836
l 1837 1838
l 1839 1840
